<svg width="188" height="164" viewBox="0 0 188 164" fill="none" xmlns="http://www.w3.org/2000/svg">
<g clip-path="url(#clip0_2065_13718)">
<path d="M176.726 83.9006L150.793 130.939L154.035 133.428L157.623 137.728C157.696 137.84 157.804 137.96 157.921 138.05C159.858 140.202 160.665 143.097 159.79 145.946C158.316 150.742 152.56 153.51 147.236 152.266L146.259 152.038C146.427 152.078 146.596 152.117 146.773 152.127L24.7615 123.619C24.9208 123.687 25.0892 123.727 25.2576 123.766L24.281 123.538C19.2227 122.356 15.5199 117.632 17.0666 112.599C18.5375 107.812 24.1403 104.966 29.596 106.241L33.132 107.067L36.105 73.0767C40.9714 61.9385 40.7892 49.0228 34.2231 38.6757C37.6963 36.1824 43.0417 34.4097 43.0417 34.4097L46.7121 38.7925L47.2996 39.4649C48.7704 41.2564 49.3084 43.6168 48.6046 45.9073C48.0722 47.64 46.945 49.0762 45.403 50.1008L66.3654 76.5589L112.794 32.3577C111.285 31.1427 110.186 29.5915 109.614 27.8715C109.042 26.1515 109.019 24.328 109.549 22.5976C111.155 17.3704 125.649 14.8397 125.649 14.8397L128.864 18.7069L129.03 18.8716L129.897 19.9241C131.52 22.1603 132.109 24.9419 131.27 27.6729C130.151 31.3144 126.777 33.9566 122.83 34.7026L122.821 34.7319L137.761 93.2405L171.052 79.4589C170.277 77.8665 170.136 76.094 170.65 74.4235C171.895 70.3709 182.354 66.9919 182.354 66.9919L186.505 71.9274L186.612 72.047C188.04 73.86 188.554 76.1832 187.859 78.4444C186.587 82.585 181.71 85.0651 176.961 83.9556L176.726 83.9006Z" fill="#F16522"/>
<path d="M133.667 88.3783L116.324 20.3064L86.4164 117.635L103.268 121.573L133.667 88.3783Z" fill="url(#paint0_linear_2065_13718)"/>
<path d="M116.308 20.3027L62.2869 71.7001L69.5534 113.692L86.4054 117.629L116.308 20.3027Z" fill="url(#paint1_linear_2065_13718)"/>
<path d="M117.391 106.133L103.27 121.567L86.4184 117.63L106.426 52.5188L117.391 106.133Z" fill="url(#paint2_linear_2065_13718)"/>
<path d="M115.296 108.426L103.27 121.568L86.418 117.63L104.063 60.2073L115.296 108.426Z" fill="url(#paint3_linear_2065_13718)"/>
<path d="M66.1876 94.1847L106.433 52.5204L86.4258 117.631L69.5739 113.694L66.1876 94.1847Z" fill="url(#paint4_linear_2065_13718)"/>
<path d="M104.053 60.2098L86.4109 117.624L69.5489 113.684L66.6786 97.0652L104.053 60.2098Z" fill="url(#paint5_linear_2065_13718)"/>
<path d="M177.477 70.2572L133.674 88.378L103.276 121.569L124.944 126.632L153.073 92.3883L177.477 70.2572Z" fill="url(#paint6_linear_2065_13718)"/>
<path d="M177.472 70.256L153.068 92.3871L124.938 126.631L143.965 131.077L177.472 70.256Z" fill="url(#paint7_linear_2065_13718)"/>
<path d="M153.057 92.3796L117.384 106.162L117.378 106.145L103.256 121.563L124.927 126.626L153.057 92.3796Z" fill="url(#paint8_linear_2065_13718)"/>
<path d="M150.333 95.6917L124.934 126.63L103.276 121.569L115.31 108.436L150.333 95.6917Z" fill="url(#paint9_linear_2065_13718)"/>
<path d="M34.7236 36.9026L62.2952 71.7003L69.5617 113.692L47.8939 108.629L43.1682 66.7088L34.7236 36.9026Z" fill="url(#paint10_linear_2065_13718)"/>
<path d="M34.7236 36.9026L43.1682 66.7088L47.8939 108.629L28.8664 104.184L34.7236 36.9026Z" fill="url(#paint11_linear_2065_13718)"/>
<path d="M43.168 66.7039L66.1597 94.1932L66.1743 94.1809L69.5639 113.691L47.8894 108.627L43.168 66.7039Z" fill="url(#paint12_linear_2065_13718)"/>
<path d="M43.6411 70.7629L47.8978 108.63L69.5555 113.691L66.6641 97.0699L43.6411 70.7629Z" fill="url(#paint13_linear_2065_13718)"/>
<path d="M155.699 141.062C154.173 146.03 148.332 148.594 143.145 147.382L20.5106 118.728C18.5495 118.276 16.7871 117.325 15.4474 115.996C14.1078 114.668 13.2515 113.022 12.9875 111.268C12.7235 109.514 13.0637 107.732 13.9648 106.147C14.866 104.562 16.2873 103.247 18.0481 102.368C19.2108 101.778 20.4955 101.394 21.8288 101.238C23.162 101.082 24.5174 101.156 25.8175 101.458L148.452 130.111C151.077 130.727 153.314 132.226 154.673 134.278C156.031 136.33 156.401 138.769 155.7 141.059L155.699 141.062Z" fill="url(#paint14_linear_2065_13718)"/>
<path d="M155.712 141.064C154.247 145.834 148.51 148.645 143.146 147.391L142.169 147.163C147.389 148.383 153.001 145.905 154.405 141.338C155.776 136.874 152.167 133.384 146.789 132.127L25.7943 103.857C20.4161 102.6 15.2884 104.052 13.9177 108.513C13.2364 110.73 13.6851 113.029 15.031 114.898C16.4168 116.866 18.6156 118.296 21.1742 118.892C20.6817 118.686 16.5714 118.343 14.009 114.477C13.3248 113.468 12.8807 112.349 12.7032 111.187C12.5257 110.025 12.6184 108.844 12.9758 107.714C13.6767 105.426 15.3902 103.475 17.7398 102.289C20.0894 101.102 22.883 100.777 25.5071 101.385L148.455 130.112C151.081 130.729 153.319 132.229 154.68 134.282C156.04 136.336 156.412 138.773 155.712 141.064Z" fill="#FFFD83"/>
<path d="M103.324 62.6042C100.573 74.6111 93.6821 97.2712 88.8635 109.664C91.795 96.846 98.819 74.2107 103.324 62.6042Z" fill="url(#paint15_linear_2065_13718)"/>
<path d="M113.755 28.6579C112.763 34.9413 109.248 46.6155 106.311 52.8851C107.363 46.1815 111.011 34.5351 113.755 28.6579Z" fill="url(#paint16_linear_2065_13718)"/>
<path d="M124.938 126.632C131.084 120.609 148.424 99.5371 153.069 92.3825C146.788 98.5286 129.495 119.624 124.938 126.632Z" fill="url(#paint17_linear_2065_13718)"/>
<path d="M175.16 72.3482C170.206 77.8633 161.659 85.6517 155.371 90.2918C160.44 84.6367 169.02 76.8842 175.16 72.3482Z" fill="url(#paint18_linear_2065_13718)"/>
<path d="M47.8581 108.513C45.9892 100.617 43.0542 74.8109 43.1367 66.5901C44.288 71.4418 47.9289 100.459 47.8581 108.513Z" fill="url(#paint19_linear_2065_13718)"/>
<path d="M35.4932 39.5986C36.6178 46.5341 39.5534 57.0086 42.3415 63.7693C41.194 56.6617 38.2032 46.2026 35.4923 39.6016L35.4932 39.5986Z" fill="url(#paint20_linear_2065_13718)"/>
<path d="M143.948 131.07L173.358 74.5699L130.797 91.5018L114.425 26.4456L63.0016 75.6613L35.7882 42.4234L28.8603 104.179L34.7151 36.8944L62.2906 71.7025L116.311 20.2984L133.662 88.3786L177.458 70.2466L143.948 131.07Z" fill="#FEF328"/>
<path d="M113.399 29.7596C119.394 31.1602 125.555 28.0581 127.162 22.8309C128.768 17.6036 125.21 12.2307 119.216 10.83C113.221 9.42939 107.06 12.5315 105.453 17.7587C103.847 22.986 107.405 28.3589 113.399 29.7596Z" fill="url(#paint21_linear_2065_13718)"/>
<path d="M113.74 28.6555C118.642 29.801 123.682 27.2639 124.995 22.9887C126.309 18.7135 123.4 14.3191 118.497 13.1736C113.594 12.028 108.555 14.5651 107.241 18.8403C105.927 23.1156 108.837 27.5099 113.74 28.6555Z" fill="url(#paint22_linear_2065_13718)"/>
<path d="M172.877 79.0931C177.631 80.2039 182.517 77.7438 183.791 73.5983C185.065 69.4529 182.244 65.1918 177.49 64.0811C172.736 62.9703 167.849 65.4304 166.575 69.5759C165.302 73.7213 168.123 77.9824 172.877 79.0931Z" fill="url(#paint23_linear_2065_13718)"/>
<path d="M173.141 78.2149C177.028 79.1231 181.023 77.1115 182.065 73.7218C183.107 70.3322 180.8 66.848 176.913 65.9397C173.025 65.0315 169.03 67.043 167.988 70.4327C166.946 73.8224 169.253 77.3066 173.141 78.2149Z" fill="url(#paint24_linear_2065_13718)"/>
<path d="M33.6248 46.5565C38.3788 47.6673 43.2653 45.2072 44.5391 41.0617C45.8129 36.9162 42.9917 32.6552 38.2377 31.5444C33.4837 30.4337 28.5972 32.8938 27.3234 37.0392C26.0496 41.1847 28.8708 45.4457 33.6248 46.5565Z" fill="url(#paint25_linear_2065_13718)"/>
<path d="M33.8886 45.6782C37.7759 46.5865 41.7715 44.5749 42.8131 41.1852C43.8547 37.7955 41.5478 34.3114 37.6606 33.4031C33.7733 32.4948 29.7777 34.5064 28.7361 37.8961C27.6945 41.2858 30.0014 44.77 33.8886 45.6782Z" fill="url(#paint26_linear_2065_13718)"/>
</g>
<defs>
<linearGradient id="paint0_linear_2065_13718" x1="116.324" y1="20.3064" x2="151.283" y2="31.0488" gradientUnits="userSpaceOnUse">
<stop stop-color="#FEF328"/>
<stop offset="0.886" stop-color="#FF7F02"/>
</linearGradient>
<linearGradient id="paint1_linear_2065_13718" x1="30.0139" y1="52.2966" x2="169.81" y2="95.2532" gradientUnits="userSpaceOnUse">
<stop offset="0.137" stop-color="#ED971A"/>
<stop offset="0.849" stop-color="#FEF328"/>
</linearGradient>
<linearGradient id="paint2_linear_2065_13718" x1="106.426" y1="52.5188" x2="131.498" y2="60.223" gradientUnits="userSpaceOnUse">
<stop stop-color="#F16522"/>
<stop offset="1" stop-color="#ED971A"/>
</linearGradient>
<linearGradient id="paint3_linear_2065_13718" x1="104.063" y1="60.2073" x2="127.865" y2="67.5213" gradientUnits="userSpaceOnUse">
<stop stop-color="#FEF328"/>
<stop offset="0.886" stop-color="#FF7F02"/>
</linearGradient>
<linearGradient id="paint4_linear_2065_13718" x1="80.8286" y1="46.5378" x2="105.904" y2="54.243" gradientUnits="userSpaceOnUse">
<stop stop-color="#F16522"/>
<stop offset="1" stop-color="#ED971A"/>
</linearGradient>
<linearGradient id="paint5_linear_2065_13718" x1="95.2325" y1="88.9154" x2="71.4336" y2="81.6025" gradientUnits="userSpaceOnUse">
<stop stop-color="#FEF328"/>
<stop offset="0.12" stop-color="#FEE825"/>
<stop offset="0.33" stop-color="#FCCB1E"/>
<stop offset="0.605" stop-color="#FB9D13"/>
<stop offset="0.931" stop-color="#F85C04"/>
<stop offset="0.942" stop-color="#F85A03"/>
</linearGradient>
<linearGradient id="paint6_linear_2065_13718" x1="24.8935" y1="68.9289" x2="164.686" y2="111.885" gradientUnits="userSpaceOnUse">
<stop offset="0.404" stop-color="#FEF328"/>
<stop offset="0.942" stop-color="#FCA81D"/>
</linearGradient>
<linearGradient id="paint7_linear_2065_13718" x1="63.1571" y1="64.2597" x2="156.263" y2="111.797" gradientUnits="userSpaceOnUse">
<stop offset="0.699" stop-color="#F85A03"/>
<stop offset="0.951" stop-color="#FB9B19"/>
<stop offset="1" stop-color="#FCA81D"/>
</linearGradient>
<linearGradient id="paint8_linear_2065_13718" x1="114.958" y1="83.4778" x2="152.27" y2="94.9428" gradientUnits="userSpaceOnUse">
<stop stop-color="#F16522"/>
<stop offset="1" stop-color="#ED971A"/>
</linearGradient>
<linearGradient id="paint9_linear_2065_13718" x1="113.847" y1="87.1667" x2="149.579" y2="98.1463" gradientUnits="userSpaceOnUse">
<stop stop-color="#FEF328"/>
<stop offset="0.209" stop-color="#FEE826"/>
<stop offset="0.573" stop-color="#FDCB22"/>
<stop offset="0.942" stop-color="#FCA81D"/>
</linearGradient>
<linearGradient id="paint10_linear_2065_13718" x1="34.7236" y1="36.9026" x2="88.1162" y2="53.3091" gradientUnits="userSpaceOnUse">
<stop stop-color="#FEF328"/>
<stop offset="0.886" stop-color="#FF7F02"/>
</linearGradient>
<linearGradient id="paint11_linear_2065_13718" x1="187.254" y1="106.865" x2="28.2399" y2="58.0028" gradientUnits="userSpaceOnUse">
<stop stop-color="#F85A03"/>
<stop offset="1" stop-color="#FCA81D"/>
</linearGradient>
<linearGradient id="paint12_linear_2065_13718" x1="43.168" y1="66.7039" x2="80.4791" y2="78.1689" gradientUnits="userSpaceOnUse">
<stop stop-color="#F16522"/>
<stop offset="1" stop-color="#ED971A"/>
</linearGradient>
<linearGradient id="paint13_linear_2065_13718" x1="43.6411" y1="70.7629" x2="79.3725" y2="81.7425" gradientUnits="userSpaceOnUse">
<stop stop-color="#FEF328"/>
<stop offset="0.209" stop-color="#FEE826"/>
<stop offset="0.573" stop-color="#FDCB22"/>
<stop offset="0.942" stop-color="#FCA81D"/>
</linearGradient>
<linearGradient id="paint14_linear_2065_13718" x1="15.9092" y1="99.1426" x2="155.409" y2="142.008" gradientUnits="userSpaceOnUse">
<stop stop-color="#F16522"/>
<stop offset="1" stop-color="#ED971A"/>
</linearGradient>
<linearGradient id="paint15_linear_2065_13718" x1="102.643" y1="62.4451" x2="103.978" y2="62.8553" gradientUnits="userSpaceOnUse">
<stop stop-color="#FFFD83"/>
<stop offset="0.175" stop-color="#FFFD87" stop-opacity="0.825"/>
<stop offset="0.356" stop-color="#FFFD94" stop-opacity="0.644"/>
<stop offset="0.539" stop-color="#FFFEA8" stop-opacity="0.461"/>
<stop offset="0.725" stop-color="#FFFEC5" stop-opacity="0.275"/>
<stop offset="0.91" stop-color="#FFFFEA" stop-opacity="0.09"/>
<stop offset="1" stop-color="white" stop-opacity="0"/>
</linearGradient>
<linearGradient id="paint16_linear_2065_13718" x1="113.074" y1="28.4988" x2="114.409" y2="28.909" gradientUnits="userSpaceOnUse">
<stop stop-color="#FFFD83"/>
<stop offset="0.175" stop-color="#FFFD87" stop-opacity="0.825"/>
<stop offset="0.356" stop-color="#FFFD94" stop-opacity="0.644"/>
<stop offset="0.539" stop-color="#FFFEA8" stop-opacity="0.461"/>
<stop offset="0.725" stop-color="#FFFEC5" stop-opacity="0.275"/>
<stop offset="0.91" stop-color="#FFFFEA" stop-opacity="0.09"/>
<stop offset="1" stop-color="white" stop-opacity="0"/>
</linearGradient>
<linearGradient id="paint17_linear_2065_13718" x1="136.642" y1="88.5442" x2="152.73" y2="93.4877" gradientUnits="userSpaceOnUse">
<stop stop-color="#FFFD83"/>
<stop offset="0.175" stop-color="#FFFD87" stop-opacity="0.825"/>
<stop offset="0.356" stop-color="#FFFD94" stop-opacity="0.644"/>
<stop offset="0.539" stop-color="#FFFEA8" stop-opacity="0.461"/>
<stop offset="0.725" stop-color="#FFFEC5" stop-opacity="0.275"/>
<stop offset="0.91" stop-color="#FFFFEA" stop-opacity="0.09"/>
<stop offset="1" stop-color="white" stop-opacity="0"/>
</linearGradient>
<linearGradient id="paint18_linear_2065_13718" x1="161.841" y1="69.2361" x2="174.885" y2="73.2442" gradientUnits="userSpaceOnUse">
<stop stop-color="#FFFD83"/>
<stop offset="0.175" stop-color="#FFFD87" stop-opacity="0.825"/>
<stop offset="0.356" stop-color="#FFFD94" stop-opacity="0.644"/>
<stop offset="0.539" stop-color="#FFFEA8" stop-opacity="0.461"/>
<stop offset="0.725" stop-color="#FFFEC5" stop-opacity="0.275"/>
<stop offset="0.91" stop-color="#FFFFEA" stop-opacity="0.09"/>
<stop offset="1" stop-color="white" stop-opacity="0"/>
</linearGradient>
<linearGradient id="paint19_linear_2065_13718" x1="43.1367" y1="66.5901" x2="59.2215" y2="71.5326" gradientUnits="userSpaceOnUse">
<stop stop-color="#FFFD83"/>
<stop offset="0.175" stop-color="#FFFD87" stop-opacity="0.825"/>
<stop offset="0.356" stop-color="#FFFD94" stop-opacity="0.644"/>
<stop offset="0.539" stop-color="#FFFEA8" stop-opacity="0.461"/>
<stop offset="0.725" stop-color="#FFFEC5" stop-opacity="0.275"/>
<stop offset="0.91" stop-color="#FFFFEA" stop-opacity="0.09"/>
<stop offset="1" stop-color="white" stop-opacity="0"/>
</linearGradient>
<linearGradient id="paint20_linear_2065_13718" x1="35.4932" y1="39.5986" x2="48.5371" y2="43.6068" gradientUnits="userSpaceOnUse">
<stop stop-color="#FFFD83"/>
<stop offset="0.175" stop-color="#FFFD87" stop-opacity="0.825"/>
<stop offset="0.356" stop-color="#FFFD94" stop-opacity="0.644"/>
<stop offset="0.539" stop-color="#FFFEA8" stop-opacity="0.461"/>
<stop offset="0.725" stop-color="#FFFEC5" stop-opacity="0.275"/>
<stop offset="0.91" stop-color="#FFFFEA" stop-opacity="0.09"/>
<stop offset="1" stop-color="white" stop-opacity="0"/>
</linearGradient>
<linearGradient id="paint21_linear_2065_13718" x1="105.453" y1="17.7587" x2="126.716" y2="24.2924" gradientUnits="userSpaceOnUse">
<stop stop-color="#FEF328"/>
<stop offset="0.886" stop-color="#FF7F02"/>
</linearGradient>
<linearGradient id="paint22_linear_2065_13718" x1="118.501" y1="13.1714" x2="114.824" y2="28.9089" gradientUnits="userSpaceOnUse">
<stop stop-color="#FEF328"/>
<stop offset="0.886" stop-color="#FF7F02"/>
</linearGradient>
<linearGradient id="paint23_linear_2065_13718" x1="166.579" y1="69.5766" x2="183.435" y2="74.7563" gradientUnits="userSpaceOnUse">
<stop stop-color="#FEF328"/>
<stop offset="0.886" stop-color="#FF7F02"/>
</linearGradient>
<linearGradient id="paint24_linear_2065_13718" x1="176.917" y1="65.9376" x2="174.001" y2="78.4159" gradientUnits="userSpaceOnUse">
<stop stop-color="#FEF328"/>
<stop offset="0.886" stop-color="#FF7F02"/>
</linearGradient>
<linearGradient id="paint25_linear_2065_13718" x1="27.3234" y1="37.0392" x2="44.1832" y2="42.2199" gradientUnits="userSpaceOnUse">
<stop stop-color="#FEF328"/>
<stop offset="0.886" stop-color="#FF7F02"/>
</linearGradient>
<linearGradient id="paint26_linear_2065_13718" x1="37.6615" y1="33.4002" x2="34.7459" y2="45.8785" gradientUnits="userSpaceOnUse">
<stop stop-color="#FEF328"/>
<stop offset="0.886" stop-color="#FF7F02"/>
</linearGradient>
<clipPath id="clip0_2065_13718">
<rect width="166.004" height="147.463" fill="white" transform="matrix(0.973773 0.227524 -0.293727 0.955889 43.314 -15)"/>
</clipPath>
</defs>
</svg>
