<svg width="19" height="19" viewBox="0 0 19 19" fill="none" xmlns="http://www.w3.org/2000/svg">
    <path d="M5.76562 0C5.21362 0 4.76562 0.448 4.76562 1C2.55662 1 0.765625 2.791 0.765625 5V6.06201L18.7656 6V5C18.7656 2.791 16.9746 1 14.7656 1C14.7656 0.448 14.3176 0 13.7656 0C13.2136 0 12.7656 0.448 12.7656 1H6.76561C6.76561 0.448 6.31762 0 5.76562 0ZM0.765625 8V15C0.765625 17.209 2.55662 19 4.76562 19H14.7656C16.9746 19 18.7656 17.209 18.7656 15V8H0.765625Z" fill="url(#paint0_linear_3992_12825)"/>
    <defs>
        <linearGradient id="paint0_linear_3992_12825" x1="9.76561" y1="0" x2="9.76561" y2="19" gradientUnits="userSpaceOnUse">
            <stop stop-color="#DDB762"/>
            <stop offset="1" stop-color="#E8D29F"/>
        </linearGradient>
    </defs>
</svg>
