<svg width="50" height="50" viewBox="0 0 50 50" fill="none" xmlns="http://www.w3.org/2000/svg">
<path d="M45.3182 6.01238C39.0867 -0.219458 28.9465 -0.219458 22.7139 6.01238L3.33812 25.3881C-1.11295 29.8396 -1.11266 37.0827 3.33871 41.534C5.56459 43.7598 8.48744 44.8727 11.4115 44.8724C14.3347 44.8721 17.2591 43.7595 19.4846 41.534L37.2452 23.7729C38.5391 22.4792 39.2518 20.759 39.252 18.9293C39.252 17.0995 38.5396 15.3794 37.2454 14.0852C34.5744 11.4144 30.2283 11.4145 27.5578 14.0857L15.943 25.7002C15.0513 26.5918 15.0513 28.0376 15.9428 28.9294C16.8344 29.8213 18.2802 29.821 19.172 28.9294L30.7869 17.3148C31.6772 16.4245 33.1256 16.4243 34.0161 17.3146C34.2288 17.5262 34.3974 17.7778 34.5122 18.0549C34.627 18.332 34.6857 18.6292 34.6849 18.9292C34.6849 19.539 34.4474 20.1123 34.0161 20.5437L16.2554 38.3047C13.5844 40.9754 9.23871 40.9758 6.56791 38.3049C3.89711 35.6339 3.89691 31.288 6.56742 28.617L25.9431 9.24158C30.3949 4.79001 37.6379 4.79001 42.089 9.24158C44.2455 11.3978 45.4332 14.2649 45.4332 17.3144C45.4332 20.3639 44.2454 23.231 42.089 25.3875L22.7136 44.7634C21.822 45.6551 21.822 47.1008 22.7138 47.9926C22.9256 48.205 23.1772 48.3734 23.4543 48.4882C23.7314 48.6029 24.0284 48.6618 24.3284 48.6614C24.6283 48.6618 24.9253 48.6029 25.2024 48.4881C25.4795 48.3733 25.7312 48.205 25.943 47.9926L45.3181 28.6168C48.3372 25.5979 49.9998 21.5841 49.9999 17.3145C49.9999 13.0451 48.3372 9.03123 45.3182 6.01238Z" fill="url(#paint0_linear_2340_14185)"/>
<defs>
<linearGradient id="paint0_linear_2340_14185" x1="25" y1="1.3385" x2="25" y2="48.6614" gradientUnits="userSpaceOnUse">
<stop stop-color="#DDB762"/>
<stop offset="1" stop-color="#A88D4F"/>
</linearGradient>
</defs>
</svg>
