<svg width="25" height="24" viewBox="0 0 25 24" fill="none" xmlns="http://www.w3.org/2000/svg">
    <g clip-path="url(#clip0_3992_12783)">
        <path d="M4.43852 2.83236H4.4365C4.32472 2.83212 4.21399 2.85402 4.11071 2.89681C4.00744 2.9396 3.91366 3.00242 3.8348 3.08165C3.7544 3.16145 3.69065 3.25642 3.64726 3.36106C3.60387 3.4657 3.5817 3.57791 3.58204 3.69119V16.5692C3.58204 17.0415 3.96773 17.4266 4.44192 17.4278C6.44095 17.4326 9.79014 17.8492 12.1006 20.2671V6.78987C12.1006 6.62979 12.0597 6.4794 11.9825 6.35496C10.0862 3.30105 6.44209 2.83704 4.43852 2.83236ZM21.9525 16.5692V3.69111C21.9525 3.46064 21.8627 3.24416 21.6998 3.08157C21.6209 3.00236 21.5271 2.93955 21.4239 2.89677C21.3206 2.85398 21.2099 2.83206 21.0981 2.83228H21.096C19.0926 2.83704 15.4484 3.30105 13.552 6.35496C13.4748 6.4794 13.434 6.62979 13.434 6.78987V20.267C15.7445 17.8491 19.0937 17.4325 21.0927 17.4277C21.5668 17.4265 21.9525 17.0414 21.9525 16.5692Z" fill="url(#paint0_linear_3992_12783)"/>
        <path d="M23.907 5.80225H23.2842V16.5692C23.2842 17.775 22.3019 18.7582 21.0943 18.7612C19.3987 18.7652 16.6028 19.0968 14.6228 20.9708C18.0473 20.1323 21.6573 20.6774 23.7147 21.1462C23.8407 21.1753 23.9717 21.1755 24.0978 21.1467C24.2239 21.118 24.3419 21.0611 24.4429 20.9802C24.5438 20.9 24.6253 20.798 24.6812 20.6819C24.7371 20.5657 24.766 20.4384 24.7656 20.3094V6.66092C24.7657 6.18746 24.3804 5.80225 23.907 5.80225ZM2.247 16.5692V5.80225H1.62429C1.15092 5.80225 0.765625 6.18746 0.765625 6.66092V20.3092C0.765625 20.5718 0.883282 20.8164 1.08837 20.98C1.18933 21.0609 1.3073 21.1178 1.43341 21.1465C1.55952 21.1753 1.69051 21.1751 1.81654 21.146C3.87392 20.677 7.48403 20.1321 10.9084 20.9705C8.9284 19.0966 6.13259 18.7651 4.43699 18.7611C3.22947 18.7582 2.247 17.775 2.247 16.5692Z" fill="url(#paint1_linear_3992_12783)"/>
    </g>
    <defs>
        <linearGradient id="paint0_linear_3992_12783" x1="12.7673" y1="2.83228" x2="12.7673" y2="20.2671" gradientUnits="userSpaceOnUse">
            <stop stop-color="#DDB762"/>
            <stop offset="1" stop-color="#E8D29F"/>
        </linearGradient>
        <linearGradient id="paint1_linear_3992_12783" x1="12.7656" y1="5.80225" x2="12.7656" y2="21.1681" gradientUnits="userSpaceOnUse">
            <stop stop-color="#DDB762"/>
            <stop offset="1" stop-color="#E8D29F"/>
        </linearGradient>
        <clipPath id="clip0_3992_12783">
            <rect width="24" height="24" fill="white" transform="translate(0.765625)"/>
        </clipPath>
    </defs>
</svg>
