<svg width="32" height="32" viewBox="0 0 32 32" fill="none" xmlns="http://www.w3.org/2000/svg">
<g id="box-open 1" clip-path="url(#clip0_3265_28740)">
<path id="Vector" d="M16.0214 7.64134L4.03336 3.632L13.9027 0.342671C15.2707 -0.113329 16.7507 -0.113329 18.1187 0.342671L28.0107 3.64L16.0214 7.64134ZM11.7787 15.1387L14.6787 10.3067L4.08403 6.77467C3.26136 6.5 2.36003 6.83467 1.91336 7.57734L0.410697 10.084C-0.478636 11.5667 0.233364 13.4907 1.87336 14.0373L8.64803 16.296C9.83336 16.6907 11.136 16.2093 11.7787 15.1387ZM4.0107 3.624V3.63867L4.03336 3.632L4.0107 3.624ZM14.6774 31.8733V15.4893L14.064 16.5107C13.0747 18.1587 11.3387 19.104 9.5107 19.104C8.94403 19.104 8.36936 19.0147 7.80403 18.8253L2.67736 17.1173V23.1947C2.67736 26.064 4.51336 28.612 7.23603 29.5187L13.1494 31.4893C13.648 31.6507 14.16 31.7827 14.6774 31.872V31.8733ZM31.6374 10.128L30.1067 7.57734C29.6614 6.83467 28.7587 6.5 27.936 6.77467L17.3427 10.3053L20.2427 15.1373C20.8854 16.2093 22.1867 16.6907 23.372 16.2947L30.196 14.02C31.8107 13.4813 32.512 11.5867 31.636 10.1267L31.6374 10.128ZM22.5107 19.1053C20.6827 19.1053 18.9467 18.1613 17.9574 16.512L17.344 15.4907V31.8667C17.9067 31.768 18.464 31.624 18.992 31.448H19.0054L24.7854 29.52C27.508 28.612 29.344 26.0653 29.344 23.196V17.1173L24.2174 18.8267C23.652 19.016 23.0774 19.1053 22.5107 19.1053Z" fill="url(#paint0_linear_3265_28740)"/>
</g>
<defs>
<linearGradient id="paint0_linear_3265_28740" x1="16.0205" y1="0.000671387" x2="16.0205" y2="31.8733" gradientUnits="userSpaceOnUse">
<stop stop-color="#FFF5DE"/>
<stop offset="1" stop-color="#EBD39D"/>
</linearGradient>
<clipPath id="clip0_3265_28740">
<rect width="32" height="32" fill="white"/>
</clipPath>
</defs>
</svg>
