<svg width="20" height="20" viewBox="0 0 20 20" fill="none" xmlns="http://www.w3.org/2000/svg">
<g clip-path="url(#clip0_3201_18959)">
<path d="M19.375 8.4375V11.5625C19.375 12.4244 18.6744 13.125 17.8125 13.125H17.3875C16.7894 16.6663 13.7094 19.375 10 19.375C9.83424 19.375 9.67527 19.3092 9.55806 19.1919C9.44085 19.0747 9.375 18.9158 9.375 18.75C9.375 18.5842 9.44085 18.4253 9.55806 18.3081C9.67527 18.1908 9.83424 18.125 10 18.125C13.4462 18.125 16.25 15.3212 16.25 11.875V8.125C16.25 4.67875 13.4462 1.875 10 1.875C6.55375 1.875 3.75 4.67875 3.75 8.125V12.5C3.75 12.6658 3.68415 12.8247 3.56694 12.9419C3.44973 13.0592 3.29076 13.125 3.125 13.125H2.1875C1.7732 13.1247 1.37597 12.9599 1.08301 12.667C0.790057 12.374 0.625331 11.9768 0.625 11.5625V8.4375C0.625 7.57562 1.32563 6.875 2.1875 6.875H2.6125C3.21125 3.33375 6.29125 0.625 10 0.625C13.7087 0.625 16.7894 3.33375 17.3875 6.875H17.8125C18.6744 6.875 19.375 7.57562 19.375 8.4375ZM10 3.125C7.24312 3.125 5 5.36812 5 8.125V11.25C5 14.0069 7.24312 16.25 10 16.25C12.7569 16.25 15 14.0069 15 11.25V8.125C15 5.36812 12.7569 3.125 10 3.125Z" fill="url(#paint0_linear_3201_18959)"/>
</g>
<defs>
<linearGradient id="paint0_linear_3201_18959" x1="10" y1="0.625" x2="10" y2="19.375" gradientUnits="userSpaceOnUse">
<stop stop-color="#DDB762"/>
<stop offset="1" stop-color="#E8D29F"/>
</linearGradient>
<clipPath id="clip0_3201_18959">
<rect width="20" height="20" fill="white"/>
</clipPath>
</defs>
</svg>
