<svg width="20" height="20" viewBox="0 0 20 20" fill="none" xmlns="http://www.w3.org/2000/svg">
    <path d="M17.1773 4.43438C16.9337 4.33291 16.6654 4.30623 16.4066 4.35776C16.1478 4.40928 15.9102 4.53668 15.724 4.72372L14 6.44772L10.9427 3.39038C10.6926 3.14042 10.3536 3 10 3C9.64645 3 9.30737 3.14042 9.05733 3.39038L6 6.44772L4.276 4.72372C4.08953 4.5373 3.85198 4.41036 3.59338 4.35894C3.33477 4.30751 3.06673 4.33392 2.82313 4.43481C2.57953 4.5357 2.37131 4.70656 2.2248 4.92577C2.07829 5.14498 2.00006 5.40271 2 5.66638V12.7237C2.00106 13.6074 2.35259 14.4547 2.97748 15.0796C3.60237 15.7045 4.4496 16.056 5.33333 16.057H14.6667C15.5504 16.056 16.3976 15.7045 17.0225 15.0796C17.6474 14.4547 17.9989 13.6074 18 12.7237V5.66638C18.0001 5.40269 17.9219 5.14491 17.7755 4.92562C17.6291 4.70632 17.4209 4.53537 17.1773 4.43438Z" fill="url(#paint0_linear_3201_18900)"/>
    <defs>
        <linearGradient id="paint0_linear_3201_18900" x1="10" y1="3" x2="10" y2="16.057" gradientUnits="userSpaceOnUse">
            <stop stop-color="#DDB762"/>
            <stop offset="1" stop-color="#E8D29F"/>
        </linearGradient>
    </defs>
</svg>