<svg width="24" height="24" viewBox="0 0 24 24" fill="none" xmlns="http://www.w3.org/2000/svg">
<path d="M11.8238 4.18115L0 8.07365L4.095 9.3749C4.12223 9.37841 4.14878 9.386 4.17375 9.3974L11.8238 11.8424L19.4738 9.3974C19.4985 9.38551 19.5252 9.37791 19.5525 9.3749L23.6475 8.0624L11.8238 4.18115Z" fill="#F0CF86"/>
<path d="M11.8236 12.7011C11.7825 12.7066 11.7409 12.7066 11.6998 12.7011L4.4248 10.3573V14.7073C7.23536 14.8305 9.88819 16.0406 11.8236 18.0823C13.7596 16.0437 16.41 14.8341 19.2186 14.7073V10.3573L11.9511 12.6861C11.9094 12.6968 11.8665 12.7019 11.8236 12.7011ZM23.5461 17.0661C23.6549 16.9325 23.7308 16.7753 23.7676 16.607C23.8045 16.4387 23.8012 16.2641 23.7581 16.0973C23.7151 15.9305 23.6334 15.7762 23.5197 15.6468C23.406 15.5174 23.2634 15.4165 23.1036 15.3523V9.04858L22.2748 9.31108V15.3523C22.0737 15.4366 21.9014 15.5776 21.7789 15.758C21.6564 15.9384 21.5889 16.1505 21.5848 16.3686C21.5842 16.6222 21.6732 16.8679 21.8361 17.0623L21.3748 19.4398C21.365 19.4858 21.3659 19.5335 21.3777 19.579C21.3894 19.6246 21.4115 19.6668 21.4423 19.7023C21.4716 19.7388 21.5087 19.7681 21.5509 19.7883C21.5931 19.8084 21.6393 19.8188 21.6861 19.8186H23.6698C23.7166 19.8188 23.7627 19.8084 23.8049 19.7883C23.8471 19.7681 23.8843 19.7388 23.9136 19.7023C23.9444 19.6668 23.9665 19.6246 23.9782 19.579C23.9899 19.5335 23.9909 19.4858 23.9811 19.4398L23.5461 17.0661Z" fill="#F0CF86"/>
</svg>
