<svg width="24" height="24" viewBox="0 0 24 24" fill="none" xmlns="http://www.w3.org/2000/svg">
<g clip-path="url(#clip0_2830_20611)">
<path d="M3.67143 2.83227H3.66941C3.55763 2.83203 3.4469 2.85393 3.34362 2.89672C3.24035 2.93951 3.14657 3.00233 3.06771 3.08156C2.98731 3.16136 2.92356 3.25633 2.88017 3.36097C2.83678 3.4656 2.81461 3.57782 2.81495 3.6911V16.5691C2.81495 17.0414 3.20064 17.4265 3.67483 17.4277C5.67386 17.4325 9.02305 17.8491 11.3335 20.267V6.78977C11.3335 6.62969 11.2926 6.47931 11.2155 6.35486C9.31913 3.30095 5.675 2.83695 3.67143 2.83227ZM21.1854 16.5691V3.69102C21.1854 3.46055 21.0957 3.24407 20.9327 3.08148C20.8538 3.00227 20.76 2.93946 20.6568 2.89667C20.5535 2.85389 20.4428 2.83197 20.331 2.83219H20.3289C18.3255 2.83695 14.6813 3.30095 12.7849 6.35486C12.7077 6.47931 12.6669 6.62969 12.6669 6.78977V20.2669C14.9774 17.849 18.3266 17.4324 20.3256 17.4276C20.7997 17.4264 21.1854 17.0413 21.1854 16.5691Z" fill="url(#paint0_linear_2830_20611)"/>
<path d="M23.1413 5.80212H22.5186V16.5691C22.5186 17.7749 21.5362 18.758 20.3286 18.761C18.633 18.7651 15.8372 19.0966 13.8572 20.9707C17.2817 20.1322 20.8917 20.6772 22.9491 21.1461C23.0751 21.1752 23.2061 21.1753 23.3322 21.1466C23.4583 21.1178 23.5763 21.0609 23.6773 20.9801C23.7782 20.8999 23.8597 20.7979 23.9156 20.6817C23.9715 20.5656 24.0003 20.4382 24 20.3093V6.66079C24.0001 6.18734 23.6148 5.80212 23.1413 5.80212ZM1.48138 16.5691V5.80212H0.85867C0.385294 5.80212 0 6.18734 0 6.66079V20.3091C0 20.5717 0.117657 20.8162 0.322749 20.9799C0.423707 21.0607 0.541671 21.1177 0.667784 21.1464C0.793898 21.1752 0.924885 21.175 1.05091 21.1459C3.10829 20.6769 6.71841 20.132 10.1427 20.9704C8.16278 19.0965 5.36697 18.765 3.67137 18.761C2.46385 18.758 1.48138 17.7749 1.48138 16.5691Z" fill="url(#paint1_linear_2830_20611)"/>
</g>
<defs>
<linearGradient id="paint0_linear_2830_20611" x1="12.0002" y1="2.83218" x2="12.0002" y2="20.267" gradientUnits="userSpaceOnUse">
<stop stop-color="#DDB762"/>
<stop offset="1" stop-color="#E8D29F"/>
</linearGradient>
<linearGradient id="paint1_linear_2830_20611" x1="12" y1="5.80212" x2="12" y2="21.168" gradientUnits="userSpaceOnUse">
<stop stop-color="#DDB762"/>
<stop offset="1" stop-color="#E8D29F"/>
</linearGradient>
<clipPath id="clip0_2830_20611">
<rect width="24" height="24" fill="white"/>
</clipPath>
</defs>
</svg>
