<svg width="19" height="22" viewBox="0 0 19 22" fill="none" xmlns="http://www.w3.org/2000/svg">
    <path fill-rule="evenodd" clip-rule="evenodd" d="M0.957031 5C0.957031 2.37665 3.08368 0.25 5.70703 0.25H13.707C16.3304 0.25 18.457 2.37665 18.457 5V17C18.457 19.6234 16.3304 21.75 13.707 21.75H5.70703C3.08368 21.75 0.957031 19.6234 0.957031 17V5ZM5.70703 5.25C5.29282 5.25 4.95703 5.58579 4.95703 6C4.95703 6.41421 5.29282 6.75 5.70703 6.75H13.707C14.1212 6.75 14.457 6.41421 14.457 6C14.457 5.58579 14.1212 5.25 13.707 5.25H5.70703ZM4.95703 11C4.95703 10.5858 5.29282 10.25 5.70703 10.25H13.707C14.1212 10.25 14.457 10.5858 14.457 11C14.457 11.4142 14.1212 11.75 13.707 11.75H5.70703C5.29282 11.75 4.95703 11.4142 4.95703 11ZM5.70703 15.25C5.29282 15.25 4.95703 15.5858 4.95703 16C4.95703 16.4142 5.29282 16.75 5.70703 16.75H9.70703C10.1212 16.75 10.457 16.4142 10.457 16C10.457 15.5858 10.1212 15.25 9.70703 15.25H5.70703Z" fill="url(#paint0_linear_4002_8526)"/>
    <defs>
        <linearGradient id="paint0_linear_4002_8526" x1="9.70703" y1="0.25" x2="9.70703" y2="21.75" gradientUnits="userSpaceOnUse">
            <stop stop-color="#DDB762"/>
            <stop offset="1" stop-color="#E8D29F"/>
        </linearGradient>
    </defs>
</svg>
