<?xml version="1.0" encoding="UTF-8"?>
<svg version="1.1" xmlns="http://www.w3.org/2000/svg" width="260" height="260">
<path d="M0 0 C0.70176361 0.00087616 1.40352722 0.00175232 2.1265564 0.00265503 C31.61052892 0.12362651 61.21335866 9.4467334 83.5 29.375 C84.30308594 30.05949219 85.10617188 30.74398438 85.93359375 31.44921875 C110.59386761 52.87788106 126.73522919 81.66703942 130.5 114.375 C130.8120843 119.5424626 130.8908567 124.69950942 130.875 129.875 C130.87412384 130.57676361 130.87324768 131.27852722 130.87234497 132.0015564 C130.75137349 161.48552892 121.4282666 191.08835866 101.5 213.375 C100.81550781 214.17808594 100.13101563 214.98117188 99.42578125 215.80859375 C77.99711894 240.46886761 49.20796058 256.61022919 16.5 260.375 C11.3325374 260.6870843 6.17549058 260.7658567 1 260.75 C0.29823639 260.74912384 -0.40352722 260.74824768 -1.1265564 260.74734497 C-30.61052892 260.62637349 -60.21335866 251.3032666 -82.5 231.375 C-83.30308594 230.69050781 -84.10617188 230.00601563 -84.93359375 229.30078125 C-109.59386761 207.87211894 -125.73522919 179.08296058 -129.5 146.375 C-129.8120843 141.2075374 -129.8908567 136.05049058 -129.875 130.875 C-129.87412384 130.17323639 -129.87324768 129.47147278 -129.87234497 128.7484436 C-129.75137349 99.26447108 -120.4282666 69.66164134 -100.5 47.375 C-99.81550781 46.57191406 -99.13101563 45.76882812 -98.42578125 44.94140625 C-73.17044613 15.87736709 -38.61865308 -0.1183201 0 0 Z " fill="#EBEEF0" transform="translate(129.5,-0.375)"/>
<path d="M0 0 C10.22776929 8.60181622 17.49677088 20.97854469 20.22265625 34.046875 C20.66272082 39.2843303 20.68781019 44.5064879 20.69921875 49.7578125 C20.71355856 51.2585284 20.72932083 52.75923132 20.74642944 54.25991821 C20.78798669 58.18078039 20.81318091 62.10156192 20.83392334 66.02258301 C20.86995653 72.31798226 20.93084364 78.61318291 20.99241257 84.90837479 C21.01143183 87.0997539 21.02320663 89.29107949 21.03384399 91.48251343 C21.0440556 92.82476925 21.05441348 94.16702397 21.06494141 95.50927734 C21.07143707 96.67824554 21.07793274 97.84721375 21.08462524 99.05160522 C21.20071473 101.57074453 21.48448792 103.65018339 22.22265625 106.046875 C23.41890625 106.27375 24.61515625 106.500625 25.84765625 106.734375 C30.4261261 107.87289326 32.89887188 109.72309063 36.22265625 113.046875 C37.14539324 115.81508596 37.3575274 117.50167829 37.34765625 120.359375 C37.35023438 121.09800781 37.3528125 121.83664063 37.35546875 122.59765625 C37.22265625 125.046875 37.22265625 125.046875 36.51171875 128 C36.13711838 131.94849041 37.19584069 133.29590768 39.47265625 136.484375 C44.86961786 144.424239 49.12370525 153.18682456 48.22265625 163.046875 C38.26766108 176.99465956 15.24117929 185.12632701 -0.52734375 189.859375 C-1.49969971 190.15183105 -1.49969971 190.15183105 -2.49169922 190.45019531 C-13.65651562 193.60831499 -24.7076195 194.4573224 -36.27734375 194.421875 C-36.97910736 194.42099884 -37.68087097 194.42012268 -38.40390015 194.41921997 C-64.66214605 194.31148351 -87.4890193 186.78479186 -109.77734375 173.046875 C-110.89367187 172.38816406 -112.01 171.72945312 -113.16015625 171.05078125 C-116.82080339 168.59845357 -119.35092247 166.84432165 -120.39453125 162.4453125 C-120.19063124 151.6386118 -114.40465141 140.31255938 -107.77734375 132.046875 C-107.99281029 129.31999968 -107.99281029 129.31999968 -108.77734375 126.046875 C-109.59012432 115.55202419 -109.59012432 115.55202419 -107.08984375 110.921875 C-104.64262371 108.93764254 -102.83524705 107.81135083 -99.77734375 107.046875 C-97.74658203 107.27490234 -97.74658203 107.27490234 -95.77734375 108.046875 C-94.65576172 109.66650391 -94.65576172 109.66650391 -93.76953125 111.7734375 C-93.42809082 112.55066162 -93.08665039 113.32788574 -92.73486328 114.12866211 C-92.37763184 114.96792236 -92.02040039 115.80718262 -91.65234375 116.671875 C-83.76103713 134.17177591 -71.67137007 154.19642645 -53.2578125 162.1328125 C-49.9400485 163.30126573 -47.31219041 164.046875 -43.77734375 164.046875 C-44.75574219 163.68335938 -44.75574219 163.68335938 -45.75390625 163.3125 C-46.62789063 162.97734375 -47.501875 162.6421875 -48.40234375 162.296875 C-49.26085937 161.97203125 -50.119375 161.6471875 -51.00390625 161.3125 C-70.99879778 152.18807063 -81.07201739 130.29996705 -88.77734375 111.046875 C-89.12576828 110.18590714 -89.47419281 109.32493927 -89.83317566 108.43788147 C-92.82667548 100.36534007 -93.36294193 93.1110592 -93.30859375 84.55078125 C-93.31129897 83.18659694 -93.31518986 81.82241452 -93.32019043 80.45823669 C-93.32603935 77.61837149 -93.31767549 74.77901441 -93.29882812 71.93920898 C-93.27606221 68.33751888 -93.28917466 64.73702323 -93.31311798 61.13537693 C-93.32772136 58.32365775 -93.32290412 55.51221171 -93.31260681 52.70048332 C-93.30871986 50.73940614 -93.32065967 48.77831739 -93.33312988 46.817276 C-93.15940825 29.98618937 -87.39051823 15.80471703 -75.6796875 3.81640625 C-54.395692 -17.02903567 -23.6177936 -16.60885626 0 0 Z " fill="#465B65" transform="translate(166.77734375,65.953125)"/>
<path d="M0 0 C11.34697979 8.68336951 17.08364467 22.10210775 19 36 C20.3516128 50.56315201 16.73707547 65.07961303 7.890625 76.79296875 C3.49206431 81.9271508 -0.98219182 85.90733627 -7 89 C-7.56589844 89.36480469 -8.13179687 89.72960937 -8.71484375 90.10546875 C-12.16226273 91.45497122 -15.60099273 91.33775538 -19.25 91.3125 C-20.00982178 91.31121094 -20.76964355 91.30992187 -21.55249023 91.30859375 C-26.95119014 91.2157628 -31.13957603 90.48191862 -36 88 C-25.81599479 101.61923884 -25.81599479 101.61923884 -11 109 C1.49238376 110.07177976 13.6886402 107.32601051 24 100 C26.68754184 97.73349327 29.2801121 95.40211635 31.8359375 92.98828125 C34 91 34 91 37 89 C31.72589721 100.58283818 18.02169464 107.32683804 6.8125 111.88671875 C-2.41536406 114.58133069 -11.77243058 114.549878 -20.5625 110.4375 C-38.70239131 99.77568633 -50.70636048 79.74558775 -56.34375 59.83203125 C-59.15308042 47.7084327 -60.19593157 32.56988812 -55 21 C-54.67128906 20.18789062 -54.34257813 19.37578125 -54.00390625 18.5390625 C-49.29967394 7.95860921 -41.49365362 -0.08846264 -31 -5 C-20.28909536 -8.60788367 -9.05246521 -6.26508743 0 0 Z " fill="#EAEDEF" transform="translate(151,85)"/>
<path d="M0 0 C0.639375 0.268125 1.27875 0.53625 1.9375 0.8125 C8.2508914 3.26054973 14.24598517 5.28148778 21 6 C21 6.33 21 6.66 21 7 C13.52662583 7.57242866 7.66678029 6.51288039 1 3 C0.34 2.34 -0.32 1.68 -1 1 C-0.67 0.67 -0.34 0.34 0 0 Z " fill="#D7DDE0" transform="translate(109,224)"/>
<path d="M0 0 C-1.27499345 2.5499869 -2.18491352 2.65976415 -4.8125 3.625 C-5.84310547 4.01558594 -5.84310547 4.01558594 -6.89453125 4.4140625 C-9 5 -9 5 -13 5 C-13 4.34 -13 3.68 -13 3 C-14.98 3 -16.96 3 -19 3 C-19 2.67 -19 2.34 -19 2 C-16.77149723 1.66225668 -14.54216533 1.3299813 -12.3125 1 C-10.45044922 0.7215625 -10.45044922 0.7215625 -8.55078125 0.4375 C-5.64113629 0.07899589 -2.92299978 -0.08942256 0 0 Z " fill="#D5DBDE" transform="translate(163,193)"/>
</svg>
