<svg width="24" height="24" viewBox="0 0 24 24" fill="none" xmlns="http://www.w3.org/2000/svg">
<g clip-path="url(#clip0_2340_14159)">
<path d="M16.8178 3.87085H3.03616C2.53584 3.87085 2.12891 4.27779 2.12891 4.77811V23.0926C2.12891 23.5929 2.53584 23.9999 3.03616 23.9999H16.8178C17.3176 23.9999 17.7246 23.5929 17.7246 23.0926V4.77811C17.7246 4.27779 17.3176 3.87085 16.8178 3.87085ZM13.7418 16.645H6.38697C5.95923 16.645 5.61278 16.2986 5.61278 15.8708C5.61278 15.4431 5.95923 15.0967 6.38697 15.0967H13.7418C14.1696 15.0967 14.516 15.4431 14.516 15.8708C14.516 16.2986 14.1696 16.645 13.7418 16.645ZM13.7418 13.5483H6.38697C5.95923 13.5483 5.61278 13.2018 5.61278 12.7741C5.61278 12.3463 5.95923 11.9999 6.38697 11.9999H13.7418C14.1696 11.9999 14.516 12.3463 14.516 12.7741C14.516 13.2018 14.1696 13.5483 13.7418 13.5483ZM13.7418 10.4515H6.38697C5.95923 10.4515 5.61278 10.105 5.61278 9.6773C5.61278 9.24956 5.95923 8.90311 6.38697 8.90311H13.7418C14.1696 8.90311 14.516 9.24956 14.516 9.6773C14.516 10.105 14.1696 10.4515 13.7418 10.4515Z" fill="#F0CF86"/>
<path d="M21.8711 2.32258V19.3548C21.8711 20.5239 20.9304 21.6774 19.2732 21.6774V4.77823C19.2732 3.42387 18.1719 2.32258 16.818 2.32258H4.72705C4.72705 1.04177 5.83076 0 7.18705 0H19.4111C20.7674 0 21.8711 1.04177 21.8711 2.32258Z" fill="#F0CF86"/>
</g>
<defs>
<clipPath id="clip0_2340_14159">
<rect width="24" height="24" fill="white"/>
</clipPath>
</defs>
</svg>
