<svg width="13" height="20" viewBox="0 0 13 20" fill="none" xmlns="http://www.w3.org/2000/svg">
<path d="M7.02082 19.9997C6.82316 19.9999 6.62762 19.9591 6.4465 19.8798C6.26538 19.8006 6.10262 19.6846 5.96846 19.5393C5.74155 19.2892 5.61131 18.9662 5.60122 18.6285L5.41314 13.0525H1.4168C1.1805 13.0525 0.947967 12.9932 0.740357 12.8802C0.532748 12.7672 0.356654 12.604 0.228095 12.4055C0.0995362 12.207 0.022594 11.9794 0.00426854 11.7435C-0.014057 11.5077 0.0268159 11.2709 0.123169 11.0549L4.6799 0.840209C4.81119 0.545972 5.0386 0.305242 5.3247 0.157625C5.61081 0.0100082 5.93858 -0.0357024 6.25409 0.0280132C6.5696 0.0917288 6.85405 0.261075 7.06064 0.508192C7.26724 0.755309 7.38367 1.06548 7.39078 1.38766L7.51167 6.88703L11.6098 6.96474C11.8439 6.96921 12.0733 7.0317 12.2774 7.14662C12.4815 7.26154 12.654 7.42531 12.7795 7.62329C12.9049 7.82127 12.9794 8.04728 12.9963 8.28114C13.0132 8.51499 12.972 8.74939 12.8763 8.96338L8.31098 19.1612C8.20127 19.4117 8.02072 19.6247 7.79159 19.7737C7.56247 19.9228 7.2948 20.0014 7.02156 20L7.02082 19.9997Z" fill="url(#paint0_linear_2065_13342)"/>
<defs>
<linearGradient id="paint0_linear_2065_13342" x1="0.256822" y1="21.8834" x2="14.5705" y2="-5.31153" gradientUnits="userSpaceOnUse">
<stop offset="0.06" stop-color="#FE611A"/>
<stop offset="1" stop-color="#FAA318"/>
</linearGradient>
</defs>
</svg>
