<svg width="24" height="24" viewBox="0 0 24 24" fill="none" xmlns="http://www.w3.org/2000/svg">
<path d="M8.2419 0.831913C5.84393 1.66379 3.77592 3.24272 2.34163 5.33679C0.907348 7.43086 0.182385 9.92968 0.273231 12.4662C0.364076 15.0028 1.26594 17.4433 2.84636 19.4294C4.42677 21.4155 6.60244 22.8425 9.05377 23.5007C11.0411 24.0135 13.1233 24.036 15.1213 23.5663C16.9312 23.1597 18.6046 22.2901 19.9775 21.0425C21.4064 19.7044 22.4436 18.0022 22.9775 16.1188C23.5577 14.0706 23.6609 11.9168 23.2794 9.82254H12.1194V14.4519H18.5825C18.4534 15.1903 18.1766 15.895 17.7687 16.5238C17.3608 17.1527 16.8303 17.6929 16.2088 18.1119C15.4197 18.6342 14.53 18.9854 13.5969 19.1432C12.6612 19.3172 11.7014 19.3172 10.7656 19.1432C9.81719 18.9473 8.91998 18.5558 8.13128 17.9938C6.86405 17.0968 5.91254 15.8224 5.41253 14.3525C4.90419 12.8551 4.90419 11.2318 5.41253 9.73441C5.76845 8.68482 6.35684 7.72917 7.13378 6.93879C8.02288 6.01769 9.14852 5.35928 10.3872 5.03581C11.6259 4.71233 12.9297 4.73628 14.1556 5.10504C15.1134 5.39889 15.9892 5.91256 16.7131 6.60504C17.4419 5.88004 18.1694 5.15316 18.8957 4.42441C19.2707 4.03254 19.6794 3.65941 20.0488 3.25816C18.9435 2.22976 17.6463 1.42948 16.2313 0.903163C13.6545 -0.0324811 10.835 -0.0576256 8.2419 0.831913Z" fill="white"/>
<path d="M8.24156 0.831848C10.8344 -0.0582956 13.6539 -0.0338129 16.2309 0.901223C17.6462 1.43112 18.9428 2.23525 20.0466 3.26747C19.6716 3.66872 19.2759 4.04372 18.8934 4.43372C18.1659 5.15997 17.4391 5.88372 16.7128 6.60497C15.9889 5.91249 15.1131 5.39883 14.1553 5.10497C12.9298 4.73492 11.626 4.70959 10.387 5.03174C9.14798 5.35389 8.02165 6.01109 7.13156 6.93122C6.35463 7.7216 5.76624 8.67725 5.41031 9.72685L1.52344 6.71747C2.9147 3.95853 5.32359 1.84814 8.24156 0.831848Z" fill="#E33629"/>
<path d="M0.494213 9.69878C0.702975 8.66335 1.04982 7.66064 1.52546 6.71753L5.41234 9.7344C4.90401 11.2318 4.90401 12.8551 5.41234 14.3525C4.11734 15.3525 2.82171 16.3575 1.52546 17.3675C0.335121 14.9981 -0.0279129 12.2985 0.494213 9.69878Z" fill="#F8BD00"/>
<path d="M12.1219 9.82056H23.2819C23.6635 11.9148 23.5602 14.0687 22.9801 16.1168C22.4461 18.0002 21.409 19.7025 19.9801 21.0406C18.7257 20.0618 17.4657 19.0906 16.2113 18.1118C16.8332 17.6923 17.364 17.1516 17.7719 16.5221C18.1798 15.8925 18.4564 15.1871 18.5851 14.4481H12.1219C12.1201 12.9068 12.1219 11.3637 12.1219 9.82056Z" fill="#587DBD"/>
<path d="M1.52344 17.3675C2.81969 16.3675 4.11531 15.3625 5.41031 14.3525C5.91133 15.8229 6.8642 17.0973 8.13281 17.9938C8.92397 18.5532 9.82312 18.9415 10.7728 19.1338C11.7085 19.3078 12.6683 19.3078 13.6041 19.1338C14.5371 18.9761 15.4268 18.6248 16.2159 18.1025C17.4703 19.0813 18.7303 20.0525 19.9847 21.0313C18.612 22.2795 16.9386 23.1498 15.1284 23.5569C13.1305 24.0266 11.0483 24.0041 9.06094 23.4913C7.48913 23.0716 6.02095 22.3318 4.74844 21.3182C3.40168 20.2487 2.30163 18.9011 1.52344 17.3675Z" fill="#319F43"/>
</svg>
