<svg xmlns="http://www.w3.org/2000/svg" width="24" height="24" fill="none" viewBox="0 0 24 24">
  <path fill="url(#a)" d="M17.8 22.313a1.934 1.934 0 0 0-1.933-1.934H8.133a1.934 1.934 0 0 0-1.934 1.933V23h11.602v-.688Zm3.91-16.114V4.91h-7.895a1.93 1.93 0 0 0-1.17-1.17V1h-1.29v2.74a1.93 1.93 0 0 0-1.17 1.17H2.29V6.2h1.612L1 13.29a3.226 3.226 0 0 0 3.223 3.222h1.289a3.226 3.226 0 0 0 3.222-3.223L5.821 6.2h4.364a1.93 1.93 0 0 0 1.17 1.17v9.213a3.228 3.228 0 0 0-2.512 2.508h6.315a3.229 3.229 0 0 0-2.513-2.508V7.37a1.931 1.931 0 0 0 1.17-1.17h4.351l-2.9 7.09a3.226 3.226 0 0 0 3.222 3.222h1.29A3.226 3.226 0 0 0 23 13.289L20.086 6.2h1.625ZM7.124 12.645H2.61L4.867 7.23l2.256 5.415Zm14.265 0h-4.51l2.255-5.415 2.256 5.415Z"/>
  <defs>
    <linearGradient id="a" x1="12" x2="12" y1="1" y2="23" gradientUnits="userSpaceOnUse">
      <stop stop-color="#DDB762"/>
      <stop offset="1" stop-color="#E8D29F"/>
    </linearGradient>
  </defs>
</svg>
