<svg width="24" height="24" viewBox="0 0 24 24" fill="none" xmlns="http://www.w3.org/2000/svg">
<path fill-rule="evenodd" clip-rule="evenodd" d="M0 5.57143C0 4.88944 0.270918 4.23539 0.753154 3.75315C1.23539 3.27092 1.88944 3 2.57143 3H21.4286C22.1106 3 22.7646 3.27092 23.2468 3.75315C23.7291 4.23539 24 4.88944 24 5.57143V17.5714C24 18.2534 23.7291 18.9075 23.2468 19.3897C22.7646 19.8719 22.1106 20.1429 21.4286 20.1429H2.57143C1.88944 20.1429 1.23539 19.8719 0.753154 19.3897C0.270918 18.9075 0 18.2534 0 17.5714V5.57143ZM2.57143 11.5714C2.57185 10.8576 2.72086 10.1517 3.00898 9.49861C3.29711 8.84553 3.71803 8.25957 4.24496 7.77804C4.7719 7.29651 5.3933 6.92994 6.06963 6.70166C6.74597 6.47339 7.46241 6.38841 8.17338 6.45213C8.88435 6.51585 9.57426 6.72688 10.1992 7.07178C10.8242 7.41669 11.3705 7.88791 11.8034 8.45547C12.2363 9.02304 12.5463 9.6745 12.7137 10.3684C12.8811 11.0623 12.9022 11.7835 12.7757 12.486C11.7972 11.6991 10.6474 11.1533 9.41914 10.8926C9.4437 10.6539 9.41788 10.4128 9.34336 10.1847C9.26884 9.95665 9.14729 9.74677 8.98655 9.56866C8.82582 9.39054 8.62949 9.24814 8.41026 9.15068C8.19102 9.05321 7.95378 9.00285 7.71386 9.00285C7.47394 9.00285 7.23669 9.05321 7.01746 9.15068C6.79823 9.24814 6.60189 9.39054 6.44116 9.56866C6.28043 9.74677 6.15887 9.95665 6.08435 10.1847C6.00984 10.4128 5.98402 10.6539 6.00857 10.8926C4.75543 11.16 3.60943 11.7154 2.65286 12.4869C2.59861 12.1847 2.57136 11.8784 2.57143 11.5714ZM7.71429 12.4286C9.44829 12.4286 11.0083 13.11 12.1329 14.2037C11.2354 15.708 9.59229 16.7143 7.71429 16.7143C5.83629 16.7143 4.19314 15.7071 3.29571 14.2037C4.48053 13.0581 6.06623 12.4211 7.71429 12.4286ZM14.5714 8.14286C14.3441 8.14286 14.1261 8.23316 13.9653 8.39391C13.8046 8.55465 13.7143 8.77267 13.7143 9C13.7143 9.22733 13.8046 9.44535 13.9653 9.60609C14.1261 9.76684 14.3441 9.85714 14.5714 9.85714H19.7143C19.9416 9.85714 20.1596 9.76684 20.3204 9.60609C20.4811 9.44535 20.5714 9.22733 20.5714 9C20.5714 8.77267 20.4811 8.55465 20.3204 8.39391C20.1596 8.23316 19.9416 8.14286 19.7143 8.14286H14.5714ZM13.7143 11.5714C13.7143 11.3441 13.8046 11.1261 13.9653 10.9653C14.1261 10.8046 14.3441 10.7143 14.5714 10.7143H19.7143C19.9416 10.7143 20.1596 10.8046 20.3204 10.9653C20.4811 11.1261 20.5714 11.3441 20.5714 11.5714C20.5714 11.7988 20.4811 12.0168 20.3204 12.1775C20.1596 12.3383 19.9416 12.4286 19.7143 12.4286H14.5714C14.3441 12.4286 14.1261 12.3383 13.9653 12.1775C13.8046 12.0168 13.7143 11.7988 13.7143 11.5714ZM14.5714 13.2857C14.3441 13.2857 14.1261 13.376 13.9653 13.5368C13.8046 13.6975 13.7143 13.9155 13.7143 14.1429C13.7143 14.3702 13.8046 14.5882 13.9653 14.7489C14.1261 14.9097 14.3441 15 14.5714 15H19.7143C19.9416 15 20.1596 14.9097 20.3204 14.7489C20.4811 14.5882 20.5714 14.3702 20.5714 14.1429C20.5714 13.9155 20.4811 13.6975 20.3204 13.5368C20.1596 13.376 19.9416 13.2857 19.7143 13.2857H14.5714Z" fill="#F0CF86"/>
</svg>
