<svg width="25" height="25" viewBox="0 0 25 25" fill="none" xmlns="http://www.w3.org/2000/svg">
<g clip-path="url(#clip0_411_2299)">
<path d="M19.2578 0.0424805H6.50781C3.40121 0.0424805 0.882812 2.56088 0.882812 5.66748V18.4175C0.882812 21.5241 3.40121 24.0425 6.50781 24.0425H19.2578C22.3644 24.0425 24.8828 21.5241 24.8828 18.4175V5.66748C24.8828 2.56088 22.3644 0.0424805 19.2578 0.0424805Z" fill="url(#paint0_radial_411_2299)"/>
<path d="M19.2578 0.0424805H6.50781C3.40121 0.0424805 0.882812 2.56088 0.882812 5.66748V18.4175C0.882812 21.5241 3.40121 24.0425 6.50781 24.0425H19.2578C22.3644 24.0425 24.8828 21.5241 24.8828 18.4175V5.66748C24.8828 2.56088 22.3644 0.0424805 19.2578 0.0424805Z" fill="url(#paint1_radial_411_2299)"/>
<path d="M12.8837 2.66748C10.3376 2.66748 10.018 2.67864 9.01806 2.72411C8.02 2.76986 7.33872 2.92782 6.74266 3.15967C6.12597 3.39911 5.60294 3.71945 5.08188 4.2407C4.56034 4.76186 4.24 5.28489 3.99981 5.90129C3.76731 6.49754 3.60916 7.17911 3.56425 8.1767C3.51953 9.17673 3.50781 9.49642 3.50781 12.0426C3.50781 14.5887 3.51906 14.9073 3.56444 15.9072C3.61038 16.9053 3.76834 17.5866 4 18.1826C4.23962 18.7993 4.55997 19.3224 5.08122 19.8434C5.60219 20.365 6.12522 20.686 6.74144 20.9255C7.33797 21.1573 8.01934 21.3153 9.01722 21.361C10.0172 21.4065 10.3366 21.4177 12.8825 21.4177C15.4289 21.4177 15.7474 21.4065 16.7474 21.361C17.7454 21.3153 18.4275 21.1573 19.024 20.9255C19.6404 20.686 20.1627 20.365 20.6836 19.8434C21.2051 19.3224 21.5253 18.7993 21.7656 18.1829C21.9961 17.5866 22.1543 16.9051 22.2012 15.9074C22.2461 14.9075 22.2578 14.5887 22.2578 12.0426C22.2578 9.49642 22.2461 9.17692 22.2012 8.17689C22.1543 7.17882 21.9961 6.49764 21.7656 5.90157C21.5253 5.28489 21.2051 4.76186 20.6836 4.2407C20.1621 3.71926 19.6406 3.39892 19.0234 3.15976C18.4258 2.92782 17.7441 2.76976 16.7461 2.72411C15.746 2.67864 15.4277 2.66748 12.8807 2.66748H12.8837ZM12.0426 4.35695C12.2923 4.35657 12.5708 4.35695 12.8837 4.35695C15.3869 4.35695 15.6835 4.36595 16.672 4.41086C17.5861 4.45267 18.0822 4.60539 18.4127 4.73373C18.8502 4.90361 19.1621 5.10676 19.49 5.43498C19.8182 5.76311 20.0212 6.07557 20.1916 6.51311C20.3199 6.84311 20.4728 7.33923 20.5144 8.25329C20.5593 9.24161 20.5691 9.53842 20.5691 12.0404C20.5691 14.5424 20.5593 14.8393 20.5144 15.8275C20.4726 16.7416 20.3199 17.2377 20.1916 17.5678C20.0217 18.0054 19.8182 18.3169 19.49 18.6448C19.1619 18.973 18.8504 19.176 18.4127 19.346C18.0826 19.4749 17.5861 19.6272 16.672 19.669C15.6837 19.714 15.3869 19.7237 12.8837 19.7237C10.3803 19.7237 10.0836 19.714 9.09541 19.669C8.18134 19.6269 7.68522 19.4741 7.35447 19.3458C6.91703 19.1758 6.60447 18.9728 6.27634 18.6446C5.94822 18.3165 5.74516 18.0048 5.57481 17.5671C5.44647 17.237 5.29356 16.7409 5.25194 15.8268C5.20703 14.8385 5.19803 14.5417 5.19803 12.0381C5.19803 9.53457 5.20703 9.23926 5.25194 8.25095C5.29375 7.33689 5.44647 6.84076 5.57481 6.51029C5.74478 6.07276 5.94822 5.76029 6.27644 5.43217C6.60456 5.10404 6.91703 4.90089 7.35456 4.73064C7.68503 4.60173 8.18134 4.44939 9.09541 4.40739C9.96025 4.36829 10.2954 4.35657 12.0426 4.35461V4.35695ZM17.888 5.91357C17.2669 5.91357 16.763 6.41701 16.763 7.0382C16.763 7.65929 17.2669 8.1632 17.888 8.1632C18.5091 8.1632 19.013 7.65929 19.013 7.0382C19.013 6.41711 18.5091 5.9132 17.888 5.9132V5.91357ZM12.8837 7.22804C10.2249 7.22804 8.06922 9.38373 8.06922 12.0426C8.06922 14.7014 10.2249 16.8561 12.8837 16.8561C15.5425 16.8561 17.6974 14.7014 17.6974 12.0426C17.6974 9.38383 15.5423 7.22804 12.8835 7.22804H12.8837ZM12.8837 8.91751C14.6095 8.91751 16.0087 10.3165 16.0087 12.0426C16.0087 13.7684 14.6095 15.1676 12.8837 15.1676C11.1577 15.1676 9.75869 13.7684 9.75869 12.0426C9.75869 10.3165 11.1577 8.91751 12.8837 8.91751Z" fill="white"/>
</g>
<defs>
<radialGradient id="paint0_radial_411_2299" cx="0" cy="0" r="1" gradientUnits="userSpaceOnUse" gradientTransform="translate(7.25781 25.8909) rotate(-90) scale(23.7858 22.1227)">
<stop stop-color="#FFDD55"/>
<stop offset="0.1" stop-color="#FFDD55"/>
<stop offset="0.5" stop-color="#FF543E"/>
<stop offset="1" stop-color="#C837AB"/>
</radialGradient>
<radialGradient id="paint1_radial_411_2299" cx="0" cy="0" r="1" gradientUnits="userSpaceOnUse" gradientTransform="translate(-3.13728 1.77132) rotate(78.681) scale(10.6324 43.827)">
<stop stop-color="#3771C8"/>
<stop offset="0.128" stop-color="#3771C8"/>
<stop offset="1" stop-color="#6600FF" stop-opacity="0"/>
</radialGradient>
<clipPath id="clip0_411_2299">
<rect width="24" height="24" fill="white" transform="translate(0.882812 0.0424805)"/>
</clipPath>
</defs>
</svg>
