<svg width="25" height="24" viewBox="0 0 25 24" fill="none" xmlns="http://www.w3.org/2000/svg">
    <g clip-path="url(#clip0_3992_12741)">
        <path d="M23.9715 19.1406H23.1501V11.5634L23.7415 9.712H23.9715C24.154 9.71106 24.331 9.64673 24.4746 9.52917C24.6182 9.4116 24.7201 9.2475 24.7644 9.06276C24.8086 8.87801 24.7927 8.68315 24.719 8.50892C24.6454 8.33469 24.5182 8.19102 24.3576 8.10057L13.679 2.10057C13.5602 2.03454 13.4276 2 13.293 2C13.1583 2 13.0257 2.03454 12.9069 2.10057L2.22833 8.10057C2.06773 8.19102 1.94057 8.33469 1.86691 8.50892C1.79326 8.68315 1.7773 8.87801 1.82156 9.06276C1.86582 9.2475 1.96778 9.4116 2.11135 9.52917C2.25491 9.64673 2.43191 9.71106 2.6144 9.712H2.8444L3.43583 11.5634V19.1406H2.6144C2.39654 19.1406 2.18761 19.2309 2.03356 19.3916C1.87951 19.5524 1.79297 19.7704 1.79297 19.9977V21.5691C1.79297 21.7965 1.87951 22.0145 2.03356 22.1752C2.18761 22.336 2.39654 22.4263 2.6144 22.4263H23.9715C24.1894 22.4263 24.3983 22.336 24.5524 22.1752C24.7064 22.0145 24.793 21.7965 24.793 21.5691V19.9977C24.793 19.7704 24.7064 19.5524 24.5524 19.3916C24.3983 19.2309 24.1894 19.1406 23.9715 19.1406ZM21.5483 11.152C21.5227 11.2411 21.5089 11.3333 21.5073 11.4263V19.1406H19.8644V11.4263C19.8627 11.3333 19.8489 11.2411 19.8233 11.152L20.4586 9.712H20.9131L21.5483 11.152ZM15.7573 19.1406V11.5634L16.3487 9.712H17.6301L18.2215 11.5634V19.1406H15.7573ZM8.3644 19.1406V11.5634L8.95583 9.712H10.2373L10.8287 11.5634V19.1406H8.3644ZM12.4715 11.152L13.0657 9.712H13.5202L14.1555 11.152C14.1299 11.2411 14.116 11.3333 14.1144 11.4263V19.1406H12.4715V11.4263C12.4834 11.3353 12.4834 11.243 12.4715 11.152ZM13.293 7.99772H20.6858H5.90011H13.293ZM5.07868 11.152L5.90011 9.712L6.76261 11.152C6.73701 11.2411 6.72319 11.3333 6.72154 11.4263V19.1406H5.07868V11.4263C5.09052 11.3353 5.09052 11.243 5.07868 11.152ZM23.1501 20.5691H3.43583V20.8549H23.1501V20.5691Z" fill="url(#paint0_linear_3992_12741)"/>
    </g>
    <defs>
        <linearGradient id="paint0_linear_3992_12741" x1="13.293" y1="2" x2="13.293" y2="23.4263" gradientUnits="userSpaceOnUse">
            <stop stop-color="#DDB762"/>
            <stop offset="1" stop-color="#E8D29F"/>
        </linearGradient>
        <clipPath id="clip0_3992_12741">
            <rect width="24" height="24" fill="white" transform="translate(0.792969)"/>
        </clipPath>
    </defs>
</svg>
