<svg width="25" height="24" viewBox="0 0 25 24" fill="none" xmlns="http://www.w3.org/2000/svg">
    <path d="M22.707 13.1065V13.6664C22.707 15.6894 20.9037 17.2925 18.8154 16.9542C17.1754 16.6876 16.0404 15.1495 16.0404 13.4897V13.1065L17.4637 9.07382L14.3737 8.49392V18.6672H17.707C18.627 18.6672 19.3737 19.4121 19.3737 20.3336C19.3737 21.2551 18.627 22 17.707 22H7.70703C6.78703 22 6.04036 21.2551 6.04036 20.3336C6.04036 19.4121 6.78703 18.6672 7.70703 18.6672H11.0404V7.86902L8.12037 7.32245L9.55536 11.3318V12.29H9.5337C9.3187 14.2263 7.49036 15.6761 5.4237 15.2611C3.80703 14.9378 2.70703 13.4081 2.70703 11.76V11.3534L4.4737 5.72271C4.89203 4.38794 6.24203 3.5764 7.61703 3.83136L11.0404 4.46626V3.66639C11.0404 2.74488 11.787 2 12.707 2C13.627 2 14.3737 2.74488 14.3737 3.66639V5.08449L18.3904 5.82936C19.5154 6.03766 20.4454 6.82753 20.832 7.90402L22.7054 13.1048L22.707 13.1065Z" fill="url(#paint0_linear_3992_12763)"/>
    <defs>
        <linearGradient id="paint0_linear_3992_12763" x1="2.70709" y1="-17.995" x2="2.70709" y2="22" gradientUnits="userSpaceOnUse">
            <stop stop-color="#DDB762"/>
            <stop offset="1" stop-color="#E8D29F"/>
        </linearGradient>
    </defs>
</svg>
