<svg xmlns="http://www.w3.org/2000/svg" width="24" height="24" fill="none" viewBox="0 0 24 24">
  <path fill="url(#a)" d="M23 18.108v.308a1.835 1.835 0 0 1-2.141 1.808c-.902-.146-1.526-.992-1.526-1.905v-.211l.782-2.218-1.7-.32v5.597h1.834a.916.916 0 1 1 0 1.833h-5.5a.916.916 0 1 1 0-1.833h1.834v-5.94l-1.606-.3.789 2.205v.527h-.012a1.885 1.885 0 0 1-2.26 1.634c-.89-.178-1.495-1.02-1.495-1.926v-.223l.972-3.098c.23-.734.973-1.18 1.729-1.04l1.883.35v-.44a.916.916 0 1 1 1.833 0v.78l2.209.409a1.77 1.77 0 0 1 1.343 1.141l1.03 2.861.001.001ZM9.25 11.999c3.033 0 5.5-2.466 5.5-5.5A5.507 5.507 0 0 0 9.25 1a5.505 5.505 0 0 0-5.5 5.5c0 3.033 2.467 5.5 5.5 5.5Zm.916 5.367v-.504l.884-2.816a8.155 8.155 0 0 0-1.8-.213c-4.544 0-8.242 3.692-8.25 8.234 0 .51.406.932.917.932h10.251a2.718 2.718 0 0 1-.168-.916c0-.462.124-.89.326-1.272a3.8 3.8 0 0 1-2.16-3.445Z"/>
  <defs>
    <linearGradient id="a" x1="11.999" x2="11.999" y1="1" y2="23" gradientUnits="userSpaceOnUse">
      <stop stop-color="#DDB762"/>
      <stop offset="1" stop-color="#E8D29F"/>
    </linearGradient>
  </defs>
</svg>
