<svg width="24" height="24" viewBox="0 0 24 24" fill="none" xmlns="http://www.w3.org/2000/svg">
<path d="M11.9998 0L11.0615 10.8281L11.9998 24C18.2661 22.2165 22.5886 16.492 22.5886 9.97673V3.01383C16.3664 3.01383 11.9998 0 11.9998 0Z" fill="#F1CB30"/>
<path d="M1.41113 3.01383V9.97678C1.41113 16.492 5.73366 22.2165 12 24V0C12 0 7.63351 3.01383 1.41113 3.01383Z" fill="#F9EB97"/>
<path d="M11.9998 3.46313L11.0615 11.0941L11.9998 20.836C14.088 20.0724 15.8874 18.7404 17.2409 16.948C18.7694 14.9238 19.5773 12.5131 19.5773 9.97665V5.82142C16.2613 5.37381 13.6091 4.27956 11.9998 3.46313Z" fill="#D7A22C"/>
<path d="M4.42236 5.82142V9.97665C4.42236 12.5132 5.23025 14.9238 6.75875 16.948C8.11222 18.7404 9.91166 20.0724 11.9998 20.836V3.46313C10.3905 4.27956 7.7383 5.37381 4.42236 5.82142Z" fill="#DDB762"/>
<path d="M15.5846 10.2891L13.1076 9.92918L11.9998 7.68457L11.0615 11.094L11.9998 13.3386L14.2154 14.5034L13.7923 12.0363L15.5846 10.2891Z" fill="#F1CB30"/>
<path d="M10.8921 9.92918L8.41504 10.2891L10.2075 12.0363L9.7843 14.5034L11.9999 13.3386V7.68457L10.8921 9.92918Z" fill="#F9EB97"/>
</svg>
