<svg width="237" height="116" viewBox="0 0 237 116" fill="none" xmlns="http://www.w3.org/2000/svg">
    <g clip-path="url(#clip0_1_4115)">
        <path d="M196.931 61.8962C196.822 61.6256 196.768 61.4091 196.66 61.1386L196.931 61.8962Z" fill="#DDB762"/>
        <path d="M197.419 33.1085L198.014 34.4072L199.258 34.5695L198.338 35.5435L198.555 36.9504L197.419 36.3011L196.336 36.9504L196.553 35.5435L195.633 34.5695L196.877 34.4072L197.419 33.1085Z" fill="#DDB762"/>
        <path d="M202.506 35.76L202.777 36.4093L203.426 36.5175L202.939 37.0046L203.048 37.708L202.506 37.3833L201.965 37.708L202.074 37.0046L201.641 36.5175L202.236 36.4093L202.506 35.76Z" fill="#DDB762"/>
        <path d="M192.061 35.76L192.332 36.4093L192.981 36.5175L192.494 37.0046L192.602 37.708L192.061 37.3833L191.52 37.708L191.628 37.0046L191.195 36.5175L191.791 36.4093L192.061 35.76Z" fill="#DDB762"/>
        <path fill-rule="evenodd" clip-rule="evenodd" d="M197.635 41.3876C202.343 41.3876 206.131 43.2274 206.131 45.5001C206.131 46.0954 205.86 46.6906 205.373 47.1776C204.94 45.933 203.804 45.1214 202.938 44.6885C201.315 43.8768 199.313 43.5521 197.581 43.5521C195.849 43.5521 193.901 43.8227 192.224 44.6885C191.358 45.1214 190.222 45.8789 189.789 47.1776C189.302 46.6906 189.031 46.0954 189.031 45.5001C189.139 43.2274 192.927 41.3876 197.635 41.3876Z" fill="#DDB762"/>
        <path fill-rule="evenodd" clip-rule="evenodd" d="M197.633 39.169C202.449 39.169 206.345 41.0088 206.345 43.2815C206.345 43.5521 206.291 43.7685 206.237 43.985C205.534 42.037 201.962 40.5759 197.688 40.5759C193.413 40.5759 189.841 42.037 189.138 43.985C189.03 43.7685 189.03 43.498 189.03 43.2815C188.921 41.0629 192.817 39.169 197.633 39.169Z" fill="#DDB762"/>
        <path fill-rule="evenodd" clip-rule="evenodd" d="M191.68 60.9222C192.221 61.4633 192.762 61.6256 193.303 61.6256V63.5196C192.654 62.6538 192.113 61.7339 191.68 60.9222Z" fill="#DDB762"/>
        <path fill-rule="evenodd" clip-rule="evenodd" d="M204.614 47.2858V48.801C204.452 48.7469 204.29 48.7469 204.127 48.801C203.965 48.8551 203.857 48.9633 203.803 49.1257C203.749 49.1798 203.749 49.2339 203.749 49.288V55.8897C203.153 56.7014 202.612 57.6213 202.017 58.5412V49.9915C202.017 49.288 201.638 48.7469 201.151 48.7469C200.664 48.7469 200.285 49.288 200.285 49.9915V61.2468C199.636 62.2208 199.041 63.0325 198.554 63.6819V49.9915C198.554 49.288 198.175 48.7469 197.688 48.7469C197.201 48.7469 196.822 49.288 196.822 49.9915V65.3593C196.227 65.6299 195.632 65.5217 195.091 65.197V49.9915C195.091 49.288 194.712 48.7469 194.225 48.7469C193.738 48.7469 193.359 49.288 193.359 49.9915V60.8139C192.71 60.8139 192.169 60.4892 191.628 60.0022V49.288C191.573 48.9092 191.141 48.6386 190.762 48.801V47.2858C191.573 45.7707 194.387 44.6343 197.742 44.6343C200.935 44.6343 203.749 45.7707 204.614 47.2858Z" fill="#DDB762"/>
        <path fill-rule="evenodd" clip-rule="evenodd" d="M214.407 44.3638C210.944 46.6906 207.426 50.5326 203.693 55.8897C203.097 56.7014 202.556 57.6213 201.961 58.5412C201.745 58.8659 201.528 59.2446 201.312 59.5693C200.933 60.1646 200.554 60.7598 200.229 61.2468C199.58 62.2208 198.985 63.0325 198.498 63.6818C198.119 64.1147 197.794 64.4935 197.524 64.8182C197.253 65.0888 197.037 65.2511 196.766 65.3593C196.171 65.6299 195.576 65.5217 195.035 65.197C194.439 64.8182 193.844 64.223 193.303 63.5195C192.654 62.6537 192.113 61.7338 191.68 60.9221C192.221 61.4632 192.762 61.6256 193.303 61.6256C193.898 61.6256 194.494 61.355 195.035 60.9221C195.63 60.4892 196.225 59.894 196.766 59.2446C197.145 58.8117 197.47 58.3247 197.794 57.9459C198.011 57.6213 198.281 57.2966 198.498 56.9719C199.093 56.2144 199.634 55.4568 200.229 54.7533C200.825 54.0499 201.366 53.3464 201.961 52.7512C202.556 52.1018 203.151 51.5066 203.693 50.9114C207.426 47.2858 210.998 45.0672 214.407 44.3638Z" fill="#DDB762"/>
        <path fill-rule="evenodd" clip-rule="evenodd" d="M195.902 59.3529C195.577 59.6775 195.306 59.894 195.036 60.1104C194.386 60.5974 193.845 60.7598 193.304 60.7598C192.655 60.7598 192.114 60.4351 191.573 59.9481C189.841 58.3788 188.488 55.0239 186.27 54.8074C187.947 52.7512 189.787 52.21 191.573 53.4546C192.168 53.8334 192.763 54.4286 193.304 55.2403C193.412 55.4027 193.521 55.5109 193.629 55.7273C194.062 56.4308 194.549 57.2425 195.036 58.0542C195.306 58.4871 195.577 58.9741 195.902 59.3529Z" fill="#DDB762"/>
        <path d="M163.275 66.7662C161.923 66.7662 160.84 66.171 160.137 65.0346C160.029 64.8723 159.975 64.8723 159.92 64.8182C159.433 64.7099 159.055 64.3312 159.001 63.8983C158.892 63.4112 159.109 62.9242 159.488 62.5996C159.758 62.3831 160.029 62.2749 160.299 62.2208C160.299 62.1667 160.353 62.1125 160.407 61.9502C161.598 57.7836 162.734 53.6169 163.925 49.4503L164.899 46.0412C164.953 45.8248 164.953 45.7165 164.953 45.7165C164.953 45.7165 164.953 45.6624 164.899 45.6083C164.52 45.2295 164.304 44.6884 164.304 44.1473C164.304 43.4979 164.574 42.9027 165.007 42.4698C165.386 42.091 165.927 41.9287 166.468 41.9287C167.063 41.9287 167.604 42.1451 167.983 42.578C168.416 43.0109 168.687 43.6603 168.633 44.2555C168.633 44.7966 168.362 45.3378 167.929 45.7165C167.875 45.7707 167.875 45.7707 167.875 45.7707C167.875 45.7707 167.875 45.8248 167.929 45.9871C169.011 49.7208 170.039 53.4546 171.122 57.1883C171.122 57.1883 171.879 59.8939 171.987 60.1645C172.15 60.8139 172.366 61.4632 172.529 62.1667C172.745 62.2208 173.07 62.2749 173.286 62.4913C173.448 62.5996 173.881 63.0325 173.827 63.6277C173.827 64.1147 173.394 64.6017 172.907 64.7641C172.853 64.7641 172.799 64.8182 172.637 65.0887C171.987 66.1169 170.959 66.7121 169.715 66.7121C169.282 66.7121 168.849 66.7121 168.47 66.7121C168.416 66.7662 163.817 66.7662 163.275 66.7662ZM163.384 61.8961C163.438 61.8961 163.492 61.8961 163.546 61.8961C164.033 61.8961 164.466 61.842 164.953 61.842C164.953 59.9481 164.953 58.1082 164.953 56.2143L163.384 61.8961ZM167.821 61.842C168.254 61.842 168.741 61.842 169.228 61.842H169.444L167.821 56.1061C167.821 58 167.821 59.9481 167.821 61.842Z" fill="#DDB762"/>
        <path d="M217.281 45.5001V38.6819" stroke="#DDB762" stroke-width="0.880947" stroke-miterlimit="10"/>
        <path d="M236.438 37.9785V112.058C236.438 112.22 236.384 112.383 236.276 112.491C236.114 112.707 235.789 112.762 235.518 112.653C235.464 112.653 235.41 112.599 235.356 112.599C234.815 112.383 234.328 112.112 233.841 111.842C233.462 111.625 233.029 111.409 232.65 111.138C230.811 109.948 229.025 108.433 227.456 106.647L227.401 106.593C227.293 106.43 227.131 106.268 227.023 106.16C225.778 104.699 224.642 103.076 223.668 101.29C223.559 101.073 223.397 100.803 223.289 100.586C222.261 98.6924 221.449 96.6903 220.746 94.5258C220.583 94.0929 220.475 93.66 220.367 93.2271C219.609 90.4674 219.122 87.5994 218.96 84.6773C218.96 84.3527 218.906 84.028 218.906 83.7574C218.906 83.4328 218.906 83.1622 218.906 82.8375V37.9785C218.906 35.4352 218.365 32.946 217.337 30.7274C214.144 23.5846 206.298 18.4981 197.153 18.4981C188.062 18.4981 180.27 23.5305 177.023 30.6192C175.995 32.8919 175.4 35.3811 175.4 37.9244V79.9696C175.4 81.8635 176.915 83.3787 178.809 83.3787H185.356C186.871 83.3787 188.116 82.1341 188.116 80.6189V74.1796C188.116 73.8008 188.441 73.4761 188.819 73.4761H207.163C207.542 73.4761 207.867 73.8008 207.867 74.1796V100.208C207.867 100.586 207.542 100.911 207.163 100.911H204.025H158.571C158.192 100.911 157.867 100.586 157.867 100.208V37.9785C157.867 27.9677 162.034 18.5522 169.61 11.5717C177.023 4.75356 186.763 0.965698 197.153 0.965698C207.542 0.965698 217.282 4.75356 224.696 11.5717C232.272 18.6063 236.438 27.9677 236.438 37.9785Z" fill="#DDB762"/>
        <path d="M224.697 66.7662C223.344 66.7662 222.262 66.171 221.559 65.0346C221.451 64.8723 221.396 64.8723 221.342 64.8182C220.855 64.7099 220.477 64.3311 220.422 63.8982C220.314 63.4112 220.531 62.9242 220.909 62.5996C221.18 62.3831 221.451 62.2749 221.721 62.2208C221.721 62.1667 221.775 62.1125 221.829 61.9502C223.074 57.513 224.318 53.1299 225.563 48.6927L226.321 46.0953C226.375 45.8789 226.375 45.7706 226.375 45.7706C226.375 45.7706 226.375 45.7165 226.321 45.6624C225.942 45.2836 225.725 44.7425 225.725 44.2014C225.725 43.552 225.996 42.9568 226.429 42.5239C226.808 42.1451 227.349 41.9828 227.89 41.9828C228.485 41.9828 229.026 42.1992 229.405 42.6321C229.838 43.065 230.054 43.7144 230.054 44.3096C230.054 44.8507 229.784 45.3919 229.351 45.7706C229.297 45.8248 229.297 45.8248 229.297 45.8248C229.297 45.8248 229.297 45.8789 229.351 46.0412C230.325 49.5044 231.353 53.0217 232.327 56.4849L233.139 59.3528L233.355 60.1104C233.572 60.8139 233.734 61.5173 233.95 62.2208C234.167 62.2749 234.492 62.329 234.708 62.5454C234.87 62.6537 235.303 63.0866 235.249 63.6818C235.249 64.1688 234.816 64.6558 234.329 64.8182C234.275 64.8182 234.221 64.8723 234.059 65.1428C233.409 66.171 232.381 66.7662 231.137 66.7662C230.704 66.7662 230.271 66.7662 229.892 66.7662C229.892 66.7662 225.238 66.7662 224.697 66.7662ZM224.805 61.8961C224.86 61.8961 224.914 61.8961 224.968 61.8961C225.455 61.8961 225.888 61.842 226.375 61.842C226.375 59.9481 226.375 58.1082 226.375 56.2143L224.805 61.8961ZM229.243 61.842C229.676 61.842 230.163 61.842 230.65 61.842H230.866C230.325 59.9481 229.784 58 229.243 56.1061C229.243 58 229.243 59.9481 229.243 61.842Z" fill="#DDB762"/>
        <mask id="mask0_1_4115" style="mask-type:luminance" maskUnits="userSpaceOnUse" x="220" y="41" width="16" height="26">
            <path d="M235.291 41.9828H220.41V66.7662H235.291V41.9828Z" fill="white"/>
        </mask>
        <g mask="url(#mask0_1_4115)">
            <path d="M224.686 66.7662C223.333 66.7662 222.25 66.171 221.547 65.0346C221.439 64.8723 221.385 64.8723 221.331 64.8182C220.844 64.7099 220.465 64.3311 220.411 63.8982C220.302 63.4112 220.519 62.9242 220.898 62.5996C221.168 62.3831 221.439 62.2749 221.709 62.2208C221.709 62.1667 221.763 62.1125 221.818 61.9502C223.062 57.513 224.307 53.1299 225.551 48.6927L226.309 46.0953C226.363 45.8789 226.363 45.7706 226.363 45.7706C226.363 45.7706 226.363 45.7165 226.309 45.6624C225.93 45.2836 225.714 44.7425 225.714 44.2014C225.714 43.552 225.984 42.9568 226.417 42.5239C226.796 42.1451 227.337 41.9828 227.878 41.9828C228.473 41.9828 229.015 42.1992 229.393 42.6321C229.826 43.065 230.043 43.7144 230.043 44.3096C230.043 44.8507 229.772 45.3919 229.339 45.7706C229.285 45.8248 229.285 45.8248 229.285 45.8248C229.285 45.8248 229.285 45.8789 229.339 46.0412C230.313 49.5044 231.341 53.0217 232.315 56.4849L233.127 59.3528L233.344 60.1104C233.56 60.8139 233.722 61.5173 233.939 62.2208C234.155 62.2749 234.48 62.329 234.696 62.5454C234.859 62.6537 235.292 63.0866 235.237 63.6818C235.237 64.1688 234.805 64.6558 234.318 64.8182C234.263 64.8182 234.209 64.8723 234.047 65.1428C233.398 66.171 232.369 66.7662 231.125 66.7662C230.692 66.7662 230.259 66.7662 229.88 66.7662C229.88 66.7662 225.227 66.7662 224.686 66.7662ZM224.794 61.8961C224.848 61.8961 224.902 61.8961 224.956 61.8961C225.443 61.8961 225.876 61.842 226.363 61.842C226.363 59.9481 226.363 58.1082 226.363 56.2143L224.794 61.8961ZM229.231 61.842C229.664 61.842 230.151 61.842 230.638 61.842H230.854C230.313 59.9481 229.772 58 229.231 56.1061C229.231 58 229.231 59.9481 229.231 61.842Z" fill="#DDB762"/>
        </g>
        <path d="M234.216 63.1948C234.108 63.0866 233.892 63.0324 233.729 63.0324C233.405 62.9783 233.242 62.816 233.134 62.4372C232.918 61.4632 232.593 60.5433 232.322 59.5693C231.078 55.1321 229.779 50.6949 228.535 46.2576C228.426 45.8247 228.372 45.5001 228.751 45.1213C229.346 44.6343 229.292 43.7685 228.751 43.2274C228.264 42.7404 227.452 42.6862 226.965 43.1733C226.424 43.6603 226.316 44.5802 226.857 45.1213C227.29 45.5542 227.236 45.933 227.074 46.3659C225.558 51.6689 224.097 56.9719 222.582 62.2208C222.474 62.7078 222.312 63.0324 221.716 63.0866C221.608 63.0866 221.446 63.1948 221.338 63.2489C221.013 63.5195 221.067 63.9524 221.5 64.0606C221.825 64.1688 222.041 64.3311 222.203 64.6558C222.745 65.5757 223.556 65.9545 224.638 65.9545C225.667 65.9545 226.749 65.9545 227.777 65.9545C228.859 65.9545 229.996 65.9545 231.078 65.9545C232.052 65.9545 232.809 65.5216 233.351 64.7099C233.567 64.3853 233.729 64.1688 234.108 64.0606C234.27 64.0065 234.433 63.8441 234.433 63.6818C234.433 63.5195 234.325 63.303 234.216 63.1948ZM226.749 62.6537C225.937 62.6537 225.071 62.7078 224.26 62.7619C224.097 62.7619 223.935 62.7619 223.719 62.7619C224.909 58.5952 226.045 54.4827 227.182 50.3702H227.236C227.236 54.2663 227.236 58.2165 227.236 62.1125C227.236 62.4913 227.182 62.6537 226.749 62.6537ZM228.697 62.6537C228.589 62.6537 228.48 62.4913 228.426 62.3831C228.372 62.329 228.426 62.2208 228.426 62.1125C228.426 58.1623 228.426 54.158 228.48 50.1537C229.671 54.3204 230.807 58.487 231.998 62.5995C230.807 62.6537 229.779 62.6537 228.697 62.6537Z" fill="#2B4868"/>
        <mask id="mask1_1_4115" style="mask-type:luminance" maskUnits="userSpaceOnUse" x="158" y="41" width="16" height="26">
            <path d="M173.842 41.9828H158.961V66.7662H173.842V41.9828Z" fill="white"/>
        </mask>
        <g mask="url(#mask1_1_4115)">
            <path d="M163.287 66.7662C161.934 66.7662 160.852 66.171 160.149 65.0346C160.04 64.8723 159.986 64.8723 159.932 64.8182C159.445 64.7099 159.066 64.3312 159.012 63.8983C158.904 63.4112 159.12 62.9242 159.499 62.5996C159.77 62.3831 160.04 62.2749 160.311 62.2208C160.311 62.1667 160.365 62.1125 160.419 61.9502C161.61 57.7836 162.746 53.6169 163.936 49.4503L164.91 46.0412C164.965 45.8248 164.965 45.7165 164.965 45.7165C164.965 45.7165 164.965 45.6624 164.91 45.6083C164.532 45.2295 164.315 44.6884 164.315 44.1473C164.315 43.4979 164.586 42.9027 165.019 42.4698C165.397 42.091 165.939 41.9287 166.48 41.9287C167.075 41.9287 167.616 42.1451 167.995 42.578C168.428 43.0109 168.698 43.6603 168.644 44.2555C168.644 44.7966 168.374 45.3378 167.941 45.7165C167.887 45.7707 167.887 45.7707 167.887 45.7707C167.887 45.7707 167.887 45.8248 167.941 45.9871C169.023 49.7208 170.051 53.4546 171.133 57.1883C171.133 57.1883 171.891 59.8939 171.999 60.1645C172.162 60.8139 172.378 61.4632 172.54 62.1667C172.757 62.2208 173.081 62.2749 173.298 62.4913C173.46 62.5996 173.893 63.0325 173.839 63.6277C173.839 64.1147 173.406 64.6017 172.919 64.7641C172.865 64.7641 172.811 64.8182 172.649 65.0887C171.999 66.1169 170.971 66.7121 169.726 66.7121C169.294 66.7121 168.861 66.7121 168.482 66.7121C168.428 66.7662 163.828 66.7662 163.287 66.7662ZM163.395 61.8961C163.449 61.8961 163.504 61.8961 163.558 61.8961C164.045 61.8961 164.478 61.842 164.965 61.842C164.965 59.9481 164.965 58.1082 164.965 56.2143L163.395 61.8961ZM167.833 61.842C168.265 61.842 168.752 61.842 169.239 61.842H169.456L167.833 56.1061C167.833 58 167.833 59.9481 167.833 61.842Z" fill="#DDB762"/>
        </g>
        <path d="M172.748 63.1948C172.639 63.0866 172.423 63.0324 172.261 63.0324C171.936 62.9783 171.774 62.816 171.665 62.4372C171.449 61.4632 171.124 60.5433 170.854 59.5693C169.609 55.1321 168.31 50.6949 167.066 46.2576C166.958 45.8247 166.903 45.5001 167.282 45.1213C167.877 44.6343 167.823 43.7685 167.282 43.2274C166.795 42.7404 165.984 42.6862 165.497 43.1733C164.955 43.6603 164.847 44.5802 165.388 45.1213C165.821 45.5542 165.767 45.933 165.605 46.3659C164.09 51.6689 162.574 56.9719 161.113 62.2208C161.005 62.7078 160.843 63.0324 160.248 63.0866C160.139 63.0866 159.977 63.1948 159.869 63.2489C159.544 63.5195 159.598 63.9524 160.031 64.0606C160.356 64.1688 160.572 64.3311 160.735 64.6558C161.276 65.5757 162.087 65.9545 163.17 65.9545C164.198 65.9545 165.28 65.9545 166.308 65.9545C167.39 65.9545 168.527 65.9545 169.609 65.9545C170.583 65.9545 171.341 65.5216 171.882 64.7099C172.098 64.3853 172.261 64.1688 172.639 64.0606C172.802 64.0065 172.964 63.8441 172.964 63.6818C173.018 63.5195 172.91 63.303 172.748 63.1948ZM165.334 62.6537C164.523 62.6537 163.657 62.7078 162.845 62.7619C162.683 62.7619 162.52 62.7619 162.304 62.7619C163.494 58.5952 164.631 54.4827 165.767 50.3702H165.821C165.821 54.2663 165.821 58.2165 165.821 62.1125C165.821 62.4913 165.713 62.6537 165.334 62.6537ZM167.282 62.6537C167.174 62.6537 167.066 62.4913 167.012 62.3831C166.958 62.329 167.012 62.2208 167.012 62.1125C167.012 58.1623 167.012 54.158 167.066 50.1537C168.256 54.3204 169.393 58.487 170.583 62.5995C169.393 62.6537 168.365 62.6537 167.282 62.6537Z" fill="#2B4868"/>
        <path d="M217.281 38.6819V45.5C217.281 57.9458 217.389 65.8462 217.389 86.1383" stroke="#DDB762" stroke-width="0.880947" stroke-miterlimit="10"/>
        <path d="M177.023 38.3572V46.7446V79.5367C177.023 80.7812 177.943 81.8094 179.188 81.9176C179.242 81.9176 179.296 81.9176 179.296 81.9176H184.004H185.573H185.627" stroke="#DDB762" stroke-width="0.880947" stroke-miterlimit="10"/>
        <path d="M217.282 38.7902C217.282 36.0304 216.632 33.2707 215.28 30.8357C211.871 24.5045 205.215 20.1756 197.585 19.9591C197.368 19.9591 197.152 19.9591 196.936 19.9591C196.719 19.9591 196.503 19.9591 196.286 19.9591C189.739 20.1756 183.949 23.3682 180.269 28.2383C178.105 31.1603 176.914 34.6776 176.914 38.3573V46.7447" stroke="#DDB762" stroke-width="0.880947" stroke-miterlimit="10"/>
        <path d="M217.391 86.1384C217.391 90.792 221.124 109.136 235.735 114.601" stroke="#DDB762" stroke-width="0.880947" stroke-miterlimit="10"/>
        <path d="M62.1921 57.9459C63.112 57.0802 64.0319 56.1602 65.06 55.3486C66.3046 54.3204 67.8739 54.104 69.1726 55.078C72.3111 57.4048 75.3414 56.7014 78.2634 54.8074C81.2937 52.8594 84.1617 50.749 87.1378 48.801C91.6291 45.8789 91.7915 45.8789 95.9581 49.1257C96.1205 49.2339 96.2828 49.3962 96.4993 49.5044C97.8521 50.5867 99.259 50.6408 100.558 49.5586C101.91 48.4222 103.263 47.1776 104.4 45.8248C107.592 41.7664 107.484 40.6841 103.317 37.3833C102.127 36.4634 102.181 35.8682 103.209 34.8941C106.402 31.9721 109.919 29.537 114.248 28.4007C118.631 27.2643 121.716 24.721 124.259 21.4743C125.016 20.5003 126.586 19.3639 125.449 18.0111C124.259 16.6583 122.581 17.6864 121.337 18.2276C111.38 22.3401 102.722 27.9678 97.0404 36.8422C96.391 37.8703 95.2547 38.682 94.1724 39.3854C92.2785 40.63 90.2222 41.6582 88.3283 42.8486C85.5145 44.6343 82.7547 46.5824 79.8868 48.3681C77.7764 49.7209 75.4496 49.9914 73.0686 48.9092C70.4713 47.7728 67.9821 48.0434 65.6012 49.3962C64.3025 50.0997 63.0579 50.8572 61.7051 51.5066C60.4605 52.1018 59.1077 52.6429 57.7549 52.9676C50.4497 54.8074 45.2008 50.9114 46.0125 43.985C46.7701 36.7881 48.0147 29.6452 48.9887 22.5024C49.4757 18.931 49.8545 15.3596 50.0709 11.7882C50.1251 11.0306 49.3134 10.1648 48.9346 9.35315C48.2311 9.89427 47.203 10.3272 46.9324 11.0306C45.6337 14.2233 44.2809 17.47 43.4692 20.8249C42.387 25.4786 41.7377 30.1864 40.8719 34.8941C39.8978 40.3054 38.9238 45.7707 38.0039 50.9114C38.4909 53.7252 38.6533 56.2685 39.3567 58.5953C41.4671 65.5217 49.8004 68.1191 56.0233 63.736C58.3501 62.0585 60.1899 59.894 62.1921 57.9459Z" fill="#DDB762"/>
        <path d="M55.1598 35.5976C57.1619 36.6798 59.1641 37.762 61.1121 38.8984C62.4649 39.7101 63.6554 39.6019 64.7918 38.682C66.0905 37.6538 67.4433 36.6257 68.4714 35.3811C69.5536 34.0824 70.4736 34.0283 71.8264 34.9482C73.1251 35.8681 74.6402 36.5716 75.9389 37.4374C77.2376 38.3032 78.4281 38.2491 79.6185 37.4374C80.1597 37.0586 80.7008 36.6798 81.2419 36.301C86.8696 31.9179 86.1661 28.7794 79.8891 25.695C77.5082 24.5587 76.8588 24.721 75.019 26.5067C73.4497 28.0218 71.8264 29.537 70.6359 30.7816C67.9303 29.1582 65.8199 27.8054 63.6013 26.669C63.0061 26.3444 61.6533 26.4526 61.1662 26.8855C58.8935 28.7794 56.8373 30.8898 54.7269 32.9461C53.5905 33.9742 53.7529 34.84 55.1598 35.5976Z" fill="#DDB762"/>
        <path d="M128.587 34.1906C125.557 29.4829 119.875 28.563 115.384 32.1885C114.41 32.9461 113.652 33.9201 112.84 34.7859C111.812 35.9222 112.029 36.8421 113.327 37.762C115.113 39.0066 116.791 40.3594 118.414 41.6581C116.52 43.2274 114.842 44.472 113.381 45.933C111.758 47.5022 111.866 48.0975 113.598 49.5044C115.005 50.6408 116.412 51.7771 117.819 52.9135C119.496 54.3204 120.145 54.3745 121.823 53.0217C123.825 51.4524 125.773 49.8291 127.775 48.3139C129.29 47.1235 129.507 46.5823 127.992 45.3378C126.206 43.8226 124.204 42.578 122.148 41.0629C123.933 39.656 125.881 38.0867 127.829 36.5175C128.641 35.8681 129.29 35.2729 128.587 34.1906Z" fill="#DDB762"/>
        <path d="M32.973 34.1906C32.486 33.866 31.2415 33.9742 30.8086 34.353C29.8887 35.1105 29.1311 36.1387 28.6441 37.1668C27.183 40.0348 25.9385 42.9568 24.5315 45.8789C22.7458 49.6126 20.3108 52.8594 16.6311 55.2403C14.4667 56.5931 12.1939 57.7836 9.97534 59.0823C7.21562 60.6515 4.45589 62.1125 1.75028 63.7359C1.26327 64.0065 0.722147 64.8723 0.830372 65.1428C1.10093 65.6298 1.8585 65.9004 2.56196 66.3874C7.21562 65.2511 11.8152 64.2229 16.3065 62.9783C21.5554 61.5173 25.235 58.2706 27.1289 53.5087C29.4016 47.7728 31.512 41.9828 33.5683 36.1387C33.7306 35.5434 33.4059 34.4612 32.973 34.1906Z" fill="#DDB762"/>
        <path d="M24.6952 26.4526C26.6433 27.589 28.5372 28.8336 30.5393 29.9699C31.0264 30.2405 31.6216 30.3487 32.1086 30.5652C32.5956 30.457 32.9744 30.4028 33.2991 30.2405C35.68 29.1041 37.6281 27.5349 38.9267 25.3704C39.8467 23.8553 39.8467 22.1237 38.3315 21.0414C36.5458 19.7427 34.5437 18.7146 32.4874 17.6865C32.0545 17.47 30.9722 17.7406 30.5393 18.1194C28.429 20.0133 26.4809 22.0154 24.4788 23.9094C23.5048 24.9375 23.4506 25.6951 24.6952 26.4526Z" fill="#DDB762"/>
        <path d="M90.2231 20.9332C91.63 20.4462 92.9287 19.9591 94.2274 19.5804C100.017 17.957 105.861 16.3877 111.652 14.8185C117.117 13.3033 122.528 11.8423 127.993 10.3272C129.292 9.94838 130.591 9.56959 130.212 7.67566C129.779 7.67566 129.563 7.62155 129.346 7.67566C119.281 10.4354 109.271 13.141 99.2598 15.9007C96.6624 16.6042 94.1191 17.3618 91.5759 18.1734C90.4395 18.6063 89.249 19.2557 90.2231 20.9332Z" fill="#DDB762"/>
        <path d="M64.4109 19.7428C73.7723 17.1454 83.1879 14.548 92.5493 12.0047C93.9021 11.6259 95.0926 11.2471 95.309 9.245C94.2268 9.40733 93.4692 9.51556 92.7116 9.67789C86.3264 11.4095 79.9411 13.087 73.5559 14.8727C68.1988 16.3337 62.8417 17.8488 57.4846 19.364C56.0776 19.7428 54.6166 20.2298 54.5625 22.286C55.3201 22.2319 55.9694 22.286 56.5647 22.0696C59.162 21.3661 61.7594 20.4462 64.4109 19.7428Z" fill="#DDB762"/>
        <path d="M10.6241 95.8245V87.2748L4.07649 77.0476C3.48126 76.1277 3.10247 75.4242 2.83191 74.8831C2.61546 74.342 2.45312 73.9091 2.45312 73.5303C2.45312 72.8809 2.66957 72.3398 3.15658 71.9069C3.64359 71.474 4.23883 71.2035 4.94229 71.2035C5.69986 71.2035 6.24098 71.4199 6.61977 71.8528C6.99855 72.2857 7.59379 73.0974 8.35136 74.3961L13.3838 82.567L18.4704 74.3961C18.795 73.9091 19.0115 73.4762 19.2279 73.1515C19.4444 72.8268 19.6608 72.5022 19.9314 72.1775C20.2019 71.8528 20.4725 71.6364 20.7431 71.474C21.0677 71.3117 21.4465 71.2576 21.8794 71.2576C22.5829 71.2576 23.124 71.474 23.611 71.9069C24.098 72.3398 24.3145 72.8809 24.3145 73.4762C24.3145 73.9632 24.2063 74.4502 23.9898 74.9372C23.7734 75.4242 23.3405 76.0736 22.7993 76.9394L16.0353 87.2748V95.8245C16.0353 96.9609 15.7647 97.7726 15.2777 98.3137C14.7366 98.8548 14.0873 99.1254 13.3297 99.1254C12.518 99.1254 11.8687 98.8548 11.3816 98.3137C10.8946 97.7726 10.6241 96.9068 10.6241 95.8245Z" fill="#DDB762"/>
        <path d="M37.2481 94.6341L32.9192 77.4805V96.0951C32.9192 97.1232 32.7027 97.8808 32.2157 98.4219C31.7287 98.9631 31.1335 99.1795 30.3759 99.1795C29.6183 99.1795 29.0231 98.9089 28.5902 98.4219C28.1032 97.9349 27.8867 97.1232 27.8867 96.0951V74.7749C27.8867 73.5844 28.2114 72.8268 28.8066 72.3939C29.4019 71.961 30.2677 71.7987 31.2958 71.7987H32.9733C34.0014 71.7987 34.7049 71.9069 35.1919 72.0693C35.6248 72.2316 36.0036 72.6104 36.22 73.0433C36.4365 73.5303 36.707 74.2879 36.9776 75.3701L40.8737 90.1428L44.7697 75.3701C45.0403 74.2879 45.3109 73.5303 45.5273 73.0433C45.7438 72.5563 46.0684 72.2316 46.5554 72.0693C46.9883 71.9069 47.7459 71.7987 48.774 71.7987H50.4515C51.4797 71.7987 52.3455 72.0152 52.9407 72.3939C53.5359 72.8268 53.8606 73.5844 53.8606 74.7749V96.0951C53.8606 97.1232 53.6441 97.8808 53.1571 98.4219C52.6701 98.9631 52.0749 99.1795 51.3173 99.1795C50.6139 99.1795 50.0186 98.9089 49.5316 98.4219C49.0446 97.8808 48.8282 97.1232 48.8282 96.0951V77.4805L44.4992 94.6341C44.2286 95.7704 44.0122 96.5821 43.7957 97.0691C43.6334 97.6103 43.3087 98.0431 42.8217 98.476C42.3347 98.9089 41.6853 99.1254 40.8195 99.1254C40.1702 99.1254 39.6291 98.9631 39.1962 98.6925C38.7633 98.4219 38.4386 98.0432 38.168 97.6103C37.8975 97.1774 37.7351 96.6903 37.5728 96.2033C37.5728 95.7163 37.4105 95.1752 37.2481 94.6341Z" fill="#DDB762"/>
        <path d="M77.0204 76.2359H71.068V95.8245C71.068 96.9609 70.7975 97.7726 70.3105 98.3137C69.8235 98.8548 69.1741 99.1254 68.3624 99.1254C67.5507 99.1254 66.9014 98.8548 66.3603 98.3137C65.8733 97.7726 65.6027 96.9068 65.6027 95.8245V76.2359H59.6503C58.7304 76.2359 58.027 76.0195 57.5941 75.6407C57.1612 75.2078 56.8906 74.6667 56.8906 74.0173C56.8906 73.3139 57.1071 72.7727 57.5941 72.3398C58.0811 71.9069 58.7304 71.7446 59.6503 71.7446H77.0204C77.9403 71.7446 78.6437 71.961 79.1308 72.3939C79.5637 72.8268 79.8342 73.368 79.8342 74.0173C79.8342 74.6667 79.6178 75.2078 79.1308 75.6407C78.6979 76.0195 77.9944 76.2359 77.0204 76.2359Z" fill="#DDB762"/>
        <path d="M97.9632 95.6081L96.6645 92.199H85.6797L84.381 95.6622C83.894 97.015 83.4611 97.9349 83.0823 98.3678C82.7035 98.8548 82.1624 99.0713 81.3507 99.0713C80.6473 99.0713 80.052 98.8007 79.5109 98.3137C78.9698 97.8267 78.6992 97.2315 78.6992 96.5821C78.6992 96.2033 78.7533 95.8245 78.8616 95.4458C78.9698 95.067 79.1862 94.5258 79.4568 93.8224L86.329 76.29C86.5455 75.803 86.7619 75.2078 87.0325 74.5043C87.3031 73.8008 87.6277 73.2056 87.8983 72.7727C88.223 72.2857 88.6018 71.9069 89.1429 71.6364C89.6299 71.3658 90.2792 71.2035 91.0368 71.2035C91.7944 71.2035 92.4437 71.3658 92.9307 71.6364C93.4178 71.9069 93.8507 72.2857 94.1753 72.7727C94.5 73.2597 94.7706 73.6926 94.987 74.2337C95.2035 74.7749 95.474 75.4242 95.7987 76.3441L102.833 93.7142C103.374 95.0128 103.645 95.9869 103.645 96.5821C103.645 97.2315 103.374 97.7726 102.887 98.3137C102.346 98.8548 101.751 99.0713 100.993 99.0713C100.561 99.0713 100.182 99.0172 99.9112 98.8548C99.5866 98.6925 99.3701 98.476 99.1537 98.2055C98.9372 97.9349 98.7208 97.5561 98.5043 97.015C98.2879 96.4739 98.1255 96.041 97.9632 95.6081ZM87.1407 88.1406H95.2035L91.145 76.9935L87.1407 88.1406Z" fill="#DDB762"/>
        <path d="M107.052 92.3613L120.905 75.803H109C108.189 75.803 107.539 75.6406 107.106 75.2618C106.674 74.8831 106.457 74.396 106.457 73.8008C106.457 73.1515 106.674 72.6645 107.106 72.2857C107.539 71.9069 108.135 71.6904 109 71.6904H124.314C126.316 71.6904 127.29 72.6103 127.29 74.4502C127.29 75.316 127.128 76.0194 126.803 76.5605C126.479 77.1017 125.829 77.9133 124.801 79.1038L111.868 94.5799H126.154C127.02 94.5799 127.615 94.7423 128.048 95.121C128.481 95.4457 128.697 95.9327 128.697 96.5821C128.697 97.2314 128.481 97.7725 128.048 98.1513C127.615 98.5301 127.02 98.7466 126.154 98.7466H108.622C107.431 98.7466 106.511 98.476 105.916 97.9349C105.321 97.3937 104.996 96.6903 104.996 95.7704C104.996 95.4457 105.05 95.1752 105.158 94.9046C105.267 94.634 105.375 94.4176 105.537 94.2011C105.7 93.9847 105.916 93.66 106.241 93.3353C106.619 92.9565 106.836 92.6319 107.052 92.3613Z" fill="#DDB762"/>
    </g>
    <defs>
        <clipPath id="clip0_1_4115">
            <rect width="235.605" height="114.069" fill="white" transform="translate(0.828125 0.965698)"/>
        </clipPath>
    </defs>
</svg>
