<svg width="20" height="20" viewBox="0 0 20 20" fill="none" xmlns="http://www.w3.org/2000/svg">
<path d="M17.3667 7.50002L16.4583 8.05836V7.01669L17.3667 7.50002ZM3.54167 7.01669L2.63333 7.50002L3.54167 8.05836V7.01669ZM16.875 9.30002L11.175 12.8C10.8201 13.013 10.4139 13.1256 10 13.1256C9.58607 13.1256 9.17992 13.013 8.825 12.8L3.125 9.30002L1.875 8.53336V16.25C1.875 16.7473 2.07254 17.2242 2.42417 17.5758C2.77581 17.9275 3.25272 18.125 3.75 18.125H16.25C16.7473 18.125 17.2242 17.9275 17.5758 17.5758C17.9275 17.2242 18.125 16.7473 18.125 16.25V8.53336L16.875 9.30002ZM9.475 11.7334L4.79167 8.85836V3.33336C4.79056 3.14154 4.82753 2.9514 4.90042 2.77397C4.97332 2.59654 5.0807 2.43533 5.21634 2.2997C5.35198 2.16406 5.51318 2.05668 5.69061 1.98378C5.86805 1.91088 6.05818 1.87392 6.25 1.87502H13.75C13.9418 1.87392 14.132 1.91088 14.3094 1.98378C14.4868 2.05668 14.648 2.16406 14.7837 2.2997C14.9193 2.43533 15.0267 2.59654 15.0996 2.77397C15.1725 2.9514 15.2094 3.14154 15.2083 3.33336V8.88336L10.525 11.7584C10.3637 11.8484 10.1813 11.8936 9.99659 11.8892C9.81192 11.8848 9.63181 11.831 9.475 11.7334ZM6.875 4.93336C6.87716 5.09845 6.9437 5.25617 7.06044 5.37291C7.17719 5.48966 7.33491 5.5562 7.5 5.55836H12.5C12.6658 5.55836 12.8247 5.49251 12.9419 5.3753C13.0592 5.25809 13.125 5.09912 13.125 4.93336C13.125 4.7676 13.0592 4.60863 12.9419 4.49142C12.8247 4.3742 12.6658 4.30836 12.5 4.30836H7.5C7.33424 4.30836 7.17527 4.3742 7.05806 4.49142C6.94085 4.60863 6.875 4.7676 6.875 4.93336ZM7.5 7.99169H12.5C12.6658 7.99169 12.8247 7.92584 12.9419 7.80863C13.0592 7.69142 13.125 7.53245 13.125 7.36669C13.125 7.20093 13.0592 7.04196 12.9419 6.92475C12.8247 6.80754 12.6658 6.74169 12.5 6.74169H7.5C7.33424 6.74169 7.17527 6.80754 7.05806 6.92475C6.94085 7.04196 6.875 7.20093 6.875 7.36669C6.875 7.53245 6.94085 7.69142 7.05806 7.80863C7.17527 7.92584 7.33424 7.99169 7.5 7.99169Z" fill="url(#paint0_linear_3201_18890)"/>
<defs>
<linearGradient id="paint0_linear_3201_18890" x1="10" y1="1.875" x2="10" y2="18.125" gradientUnits="userSpaceOnUse">
<stop stop-color="#DDB762"/>
<stop offset="1" stop-color="#E8D29F"/>
</linearGradient>
</defs>
</svg>
