<?xml version="1.0" encoding="UTF-8"?>
<svg version="1.1" xmlns="http://www.w3.org/2000/svg" width="260" height="260">
<path d="M0 0 C0.70176361 0.00087616 1.40352722 0.00175232 2.1265564 0.00265503 C31.61052892 0.12362651 61.21335866 9.4467334 83.5 29.375 C84.30308594 30.05949219 85.10617188 30.74398438 85.93359375 31.44921875 C110.59386761 52.87788106 126.73522919 81.66703942 130.5 114.375 C130.8120843 119.5424626 130.8908567 124.69950942 130.875 129.875 C130.87412384 130.57676361 130.87324768 131.27852722 130.87234497 132.0015564 C130.75137349 161.48552892 121.4282666 191.08835866 101.5 213.375 C100.81550781 214.17808594 100.13101563 214.98117188 99.42578125 215.80859375 C77.99711894 240.46886761 49.20796058 256.61022919 16.5 260.375 C11.3325374 260.6870843 6.17549058 260.7658567 1 260.75 C0.29823639 260.74912384 -0.40352722 260.74824768 -1.1265564 260.74734497 C-30.61052892 260.62637349 -60.21335866 251.3032666 -82.5 231.375 C-83.30308594 230.69050781 -84.10617188 230.00601563 -84.93359375 229.30078125 C-109.59386761 207.87211894 -125.73522919 179.08296058 -129.5 146.375 C-129.8120843 141.2075374 -129.8908567 136.05049058 -129.875 130.875 C-129.87412384 130.17323639 -129.87324768 129.47147278 -129.87234497 128.7484436 C-129.75137349 99.26447108 -120.4282666 69.66164134 -100.5 47.375 C-99.81550781 46.57191406 -99.13101563 45.76882812 -98.42578125 44.94140625 C-73.17044613 15.87736709 -38.61865308 -0.1183201 0 0 Z " fill="#EBEEF0" transform="translate(129.5,-0.375)"/>
<path d="M0 0 C2.40183853 1.08825818 4.59561393 1.3597345 7.20703125 1.69921875 C14.93345087 3.05725788 19.77741947 5.81941245 24.33203125 12.26171875 C28.59459675 18.8103529 29.34099796 25.98054622 30.01953125 33.57421875 C30.17445011 35.24503791 30.33191155 36.91562371 30.4921875 38.5859375 C30.59092163 39.68168091 30.59092163 39.68168091 30.69165039 40.79956055 C30.91138308 42.88407334 30.91138308 42.88407334 31.47070312 44.85717773 C32.02333277 47.16340777 32.13402521 49.29028936 32.203125 51.66015625 C32.23599609 52.56765625 32.26886719 53.47515625 32.30273438 54.41015625 C32.36367712 56.30327141 32.42099969 58.19650674 32.47460938 60.08984375 C32.6625618 65.09718002 33.1948111 69.15031676 34.95703125 73.88671875 C36.32038885 84.31798968 33.58049654 93.70363819 27.34326172 102.06298828 C24.48743083 105.72784836 21.49889034 109.26660983 18.44140625 112.765625 C11.319963 121.71221802 5.84726355 131.60047519 6.25 143.25 C7.16804524 146.67364938 8.15539218 147.69449966 10.95703125 149.88671875 C13.83084152 150.87180914 16.75688562 151.3716597 19.74609375 151.88671875 C21.03379166 152.13035156 21.03379166 152.13035156 22.34750366 152.37890625 C25.08983778 152.89629845 27.83531074 153.39318624 30.58203125 153.88671875 C61.1944619 159.45162714 61.1944619 159.45162714 69.95703125 168.88671875 C71.20703125 172.51171875 71.20703125 172.51171875 70.95703125 175.88671875 C61.01987234 194.99898451 34.64307472 208.49694368 14.95703125 214.88671875 C-19.98544132 225.39299801 -56.7653093 223.40209934 -89.26708984 206.23266602 C-96.77574291 202.11145186 -103.65021517 197.62352023 -110.04296875 191.88671875 C-110.93886719 191.0978125 -111.83476563 190.30890625 -112.7578125 189.49609375 C-123.772447 179.69828401 -123.772447 179.69828401 -125.04296875 175.88671875 C-125.1059026 172.4882907 -124.92357431 170.05707195 -122.83203125 167.27734375 C-112.69046884 157.67996274 -97.66131391 156.14323912 -84.54296875 153.76171875 C-81.8101277 153.26269079 -79.07835871 152.75965234 -76.34875488 152.24319458 C-74.66342862 151.9244474 -72.97619643 151.615569 -71.2869873 151.31808472 C-65.6289302 150.25661347 -65.6289302 150.25661347 -61.04296875 146.88671875 C-58.74316937 139.03966457 -60.91039291 132.29833966 -64.47949219 125.31225586 C-68.82586986 117.41692655 -73.45965549 110.81354963 -79.80859375 104.4140625 C-85.92122494 97.49994994 -89.17235829 89.14668351 -89.23046875 80.01171875 C-89.24464844 79.00367187 -89.25882813 77.995625 -89.2734375 76.95703125 C-89.04296875 73.88671875 -89.04296875 73.88671875 -88.04785156 71.10595703 C-86.97718336 67.67596894 -86.77383278 64.89331976 -86.734375 61.30859375 C-86.70923828 60.06464844 -86.68410156 58.82070312 -86.65820312 57.5390625 C-86.62325866 54.95317229 -86.59196355 52.36722999 -86.56445312 49.78125 C-86.26088405 35.43205811 -82.4361406 23.4453624 -72.48046875 12.69921875 C-52.91382556 -5.43203363 -24.34369127 -13.26568262 0 0 Z " fill="#455A64" transform="translate(157.04296875,39.11328125)"/>
</svg>
