<svg width="200" height="204" viewBox="0 0 200 204" fill="none" xmlns="http://www.w3.org/2000/svg">
<path d="M100 200C155.228 200 200 155.228 200 100C200 44.7715 155.228 0 100 0C44.7715 0 0 44.7715 0 100C0 155.228 44.7715 200 100 200Z" fill="url(#paint0_linear_213_30645)"/>
<g filter="url(#filter0_d_213_30645)">
<mask id="mask0_213_30645" style="mask-type:alpha" maskUnits="userSpaceOnUse" x="0" y="0" width="200" height="200">
<path d="M100 200C155.228 200 200 155.228 200 100C200 44.7715 155.228 0 100 0C44.7715 0 0 44.7715 0 100C0 155.228 44.7715 200 100 200Z" fill="url(#paint1_linear_213_30645)"/>
</mask>
<g mask="url(#mask0_213_30645)">
<path d="M157.333 57.3333H42.6667C38.9848 57.3333 36 60.318 36 63.9999V204C36 207.682 38.9848 210.667 42.6667 210.667H157.333C161.015 210.667 164 207.682 164 204V63.9999C164 60.318 161.015 57.3333 157.333 57.3333Z" fill="white"/>
</g>
</g>
<path d="M88.0007 70.6667H53.334C51.1248 70.6667 49.334 72.4576 49.334 74.6667C49.334 76.8759 51.1248 78.6667 53.334 78.6667H88.0007C90.2098 78.6667 92.0007 76.8759 92.0007 74.6667C92.0007 72.4576 90.2098 70.6667 88.0007 70.6667Z" fill="#EED293"/>
<path d="M88.0007 126.667H53.334C51.1248 126.667 49.334 128.458 49.334 130.667C49.334 132.876 51.1248 134.667 53.334 134.667H88.0007C90.2098 134.667 92.0007 132.876 92.0007 130.667C92.0007 128.458 90.2098 126.667 88.0007 126.667Z" fill="#EED293"/>
<path d="M143.999 90.6667H55.9993C53.0538 90.6667 50.666 93.0546 50.666 96.0001V109.333C50.666 112.279 53.0538 114.667 55.9993 114.667H143.999C146.945 114.667 149.333 112.279 149.333 109.333V96.0001C149.333 93.0546 146.945 90.6667 143.999 90.6667Z" stroke="#DDB762" stroke-width="2.66667"/>
<path d="M144.001 145.333H56.0007C52.3188 145.333 49.334 148.318 49.334 152V162.667C49.334 166.348 52.3188 169.333 56.0007 169.333H144.001C147.683 169.333 150.667 166.348 150.667 162.667V152C150.667 148.318 147.683 145.333 144.001 145.333Z" fill="#DDB762"/>
<path d="M70.6654 42.6667C73.6109 42.6667 75.9987 40.2789 75.9987 37.3333C75.9987 34.3878 73.6109 32 70.6654 32C67.7198 32 65.332 34.3878 65.332 37.3333C65.332 40.2789 67.7198 42.6667 70.6654 42.6667Z" fill="white"/>
<path d="M99.9993 42.6667C102.945 42.6667 105.333 40.2789 105.333 37.3333C105.333 34.3878 102.945 32 99.9993 32C97.0538 32 94.666 34.3878 94.666 37.3333C94.666 40.2789 97.0538 42.6667 99.9993 42.6667Z" fill="#DDB762"/>
<path d="M129.331 42.6667C132.277 42.6667 134.665 40.2789 134.665 37.3333C134.665 34.3878 132.277 32 129.331 32C126.386 32 123.998 34.3878 123.998 37.3333C123.998 40.2789 126.386 42.6667 129.331 42.6667Z" fill="white"/>
<path d="M114.667 117.333C118.349 117.333 121.333 114.349 121.333 110.667C121.333 106.985 118.349 104 114.667 104C110.985 104 108 106.985 108 110.667C108 114.349 110.985 117.333 114.667 117.333Z" fill="#DDB762"/>
<path d="M119.876 139.16C118.809 139.16 117.813 139.16 116.907 139.103C115.79 139.027 114.716 138.645 113.802 137.998C112.888 137.352 112.171 136.466 111.728 135.437L106.103 124.32C105.69 123.84 105.484 123.216 105.53 122.584C105.575 121.953 105.868 121.364 106.345 120.948C106.736 120.634 107.224 120.465 107.725 120.469C108.095 120.48 108.457 120.571 108.788 120.735C109.119 120.9 109.41 121.134 109.641 121.421L112.196 124.908L112.235 124.953V111.707C112.235 111.05 112.496 110.419 112.961 109.955C113.425 109.49 114.056 109.229 114.713 109.229C115.37 109.229 116 109.49 116.465 109.955C116.93 110.419 117.191 111.05 117.191 111.707V120.373C117.162 120.055 117.2 119.733 117.302 119.43C117.405 119.126 117.569 118.847 117.785 118.611C118.001 118.375 118.264 118.186 118.557 118.057C118.85 117.928 119.167 117.861 119.487 117.861C119.807 117.861 120.124 117.928 120.417 118.057C120.71 118.186 120.973 118.375 121.189 118.611C121.405 118.847 121.569 119.126 121.671 119.43C121.774 119.733 121.812 120.055 121.783 120.373V122.18C121.754 121.861 121.792 121.54 121.894 121.236C121.997 120.933 122.161 120.654 122.377 120.418C122.593 120.181 122.856 119.993 123.149 119.863C123.442 119.734 123.759 119.668 124.079 119.668C124.399 119.668 124.716 119.734 125.009 119.863C125.302 119.993 125.565 120.181 125.781 120.418C125.997 120.654 126.161 120.933 126.263 121.236C126.366 121.54 126.404 121.861 126.375 122.18V123.572C126.346 123.253 126.384 122.932 126.486 122.628C126.589 122.325 126.753 122.046 126.969 121.81C127.185 121.573 127.448 121.385 127.741 121.255C128.034 121.126 128.351 121.06 128.671 121.06C128.991 121.06 129.308 121.126 129.601 121.255C129.894 121.385 130.157 121.573 130.373 121.81C130.589 122.046 130.753 122.325 130.855 122.628C130.958 122.932 130.996 123.253 130.967 123.572V132.021C130.921 134.62 129.747 139.001 125.615 139.001C125.315 139.015 122.773 139.161 119.881 139.161L119.876 139.16Z" fill="#DDB762" stroke="white" stroke-width="1.33333"/>
<defs>
<filter id="filter0_d_213_30645" x="28" y="45.3333" width="144" height="158.667" filterUnits="userSpaceOnUse" color-interpolation-filters="sRGB">
<feFlood flood-opacity="0" result="BackgroundImageFix"/>
<feColorMatrix in="SourceAlpha" type="matrix" values="0 0 0 0 0 0 0 0 0 0 0 0 0 0 0 0 0 0 127 0" result="hardAlpha"/>
<feOffset dy="-4"/>
<feGaussianBlur stdDeviation="4"/>
<feColorMatrix type="matrix" values="0 0 0 0 0.788235 0 0 0 0 0.803922 0 0 0 0 0.85098 0 0 0 0.349 0"/>
<feBlend mode="normal" in2="BackgroundImageFix" result="effect1_dropShadow_213_30645"/>
<feBlend mode="normal" in="SourceGraphic" in2="effect1_dropShadow_213_30645" result="shape"/>
</filter>
<linearGradient id="paint0_linear_213_30645" x1="100" y1="0" x2="100" y2="200" gradientUnits="userSpaceOnUse">
<stop stop-color="#FFF5DF"/>
<stop offset="1" stop-color="#FFF7E6"/>
</linearGradient>
<linearGradient id="paint1_linear_213_30645" x1="100" y1="0" x2="100" y2="200" gradientUnits="userSpaceOnUse">
<stop stop-color="#E3ECFA"/>
<stop offset="1" stop-color="#DAE7FF"/>
</linearGradient>
</defs>
</svg>
