<svg width="305" height="260" viewBox="0 0 305 260" fill="none" xmlns="http://www.w3.org/2000/svg">
<path d="M294.107 99.4752C290.58 104.872 289.147 111.388 290.135 117.765C293.915 142.253 283.144 166.659 263.085 180.387C261.006 181.809 258.824 183.12 256.554 184.3H191.333C189.886 184.224 188.425 184.224 186.977 184.3H35.6676C33.5478 183.099 31.5035 181.788 29.5414 180.387C5.0298 162.801 -6.33762 129.989 5.00922 99.6063C8.59713 90.0057 14.1333 81.6198 21.0347 74.78C27.0786 68.7891 31.4829 61.3419 33.8291 53.1354C33.8428 53.094 33.8565 53.0457 33.8703 53.0043C44.435 16.3204 82.5642 -4.79956 119.026 5.82945C122.95 6.97517 126.689 8.43838 130.236 10.1846C139.127 14.5673 149.527 14.6156 158.466 10.3364C162.225 8.54191 166.218 7.0856 170.43 6.0227C179.712 3.68984 189.104 3.5518 198.015 5.3118C205.472 6.78882 213.17 6.26427 220.359 3.78647C220.524 3.73125 220.688 3.67604 220.853 3.61392C254.159 -7.58105 290.183 10.509 301.31 44.018C307.724 63.3917 304.445 83.6559 294.107 99.4752Z" fill="url(#paint0_linear_411_1332)" fill-opacity="0.5"/>
<path d="M158.467 251.776H40.787C38.1303 251.776 35.9766 249.623 35.9766 246.966V86.2113C35.9766 83.5547 38.1303 81.4009 40.787 81.4009H134.583L163.278 109.154V246.979C163.291 249.623 161.137 251.776 158.467 251.776Z" fill="url(#paint1_linear_411_1332)"/>
<path d="M163.292 109.141L134.584 81.4011V109.141H163.292Z" fill="#CCCACA"/>
<path d="M112.853 102.358H56.3666C55.6315 102.358 55.0254 101.752 55.0254 101.017C55.0254 100.282 55.6315 99.6754 56.3666 99.6754H112.853C113.588 99.6754 114.194 100.282 114.194 101.017C114.194 101.752 113.588 102.358 112.853 102.358Z" fill="#CCCACA"/>
<path d="M126.407 110.483H56.3666C55.6315 110.483 55.0254 109.876 55.0254 109.141C55.0254 108.406 55.6315 107.8 56.3666 107.8H126.407C127.143 107.8 127.749 108.406 127.749 109.141C127.749 109.876 127.143 110.483 126.407 110.483Z" fill="#CCCACA"/>
<path d="M126.407 118.62H56.3666C55.6315 118.62 55.0254 118.014 55.0254 117.279C55.0254 116.544 55.6315 115.938 56.3666 115.938H126.407C127.143 115.938 127.749 116.544 127.749 117.279C127.749 118.014 127.143 118.62 126.407 118.62Z" fill="#CCCACA"/>
<path d="M151.659 147.418H109.32C108.765 147.418 108.301 146.954 108.301 146.399V145.909C108.301 145.355 108.765 144.89 109.32 144.89H151.659C152.213 144.89 152.678 145.355 152.678 145.909V146.399C152.678 146.954 152.226 147.418 151.659 147.418Z" fill="#CCCACA"/>
<path d="M151.659 155.066H109.32C108.765 155.066 108.301 154.602 108.301 154.047V153.557C108.301 153.002 108.765 152.538 109.32 152.538H151.659C152.213 152.538 152.678 153.002 152.678 153.557V154.047C152.678 154.602 152.226 155.066 151.659 155.066Z" fill="#CCCACA"/>
<path d="M151.659 162.636H109.32C108.765 162.636 108.301 162.172 108.301 161.617V161.127C108.301 160.573 108.765 160.108 109.32 160.108H151.659C152.213 160.108 152.678 160.573 152.678 161.127V161.617C152.678 162.172 152.226 162.636 151.659 162.636Z" fill="#CCCACA"/>
<path d="M151.659 170.284H109.32C108.765 170.284 108.301 169.819 108.301 169.265V168.775C108.301 168.22 108.765 167.756 109.32 167.756H151.659C152.213 167.756 152.678 168.22 152.678 168.775V169.265C152.678 169.819 152.226 170.284 151.659 170.284Z" fill="#CCCACA"/>
<path d="M151.659 177.854H109.32C108.765 177.854 108.301 177.389 108.301 176.835V176.345C108.301 175.79 108.765 175.326 109.32 175.326H151.659C152.213 175.326 152.678 175.79 152.678 176.345V176.835C152.678 177.389 152.226 177.854 151.659 177.854Z" fill="#CCCACA"/>
<path d="M151.659 185.502H109.32C108.765 185.502 108.301 185.037 108.301 184.483V183.993C108.301 183.438 108.765 182.974 109.32 182.974H151.659C152.213 182.974 152.678 183.438 152.678 183.993V184.483C152.678 185.037 152.226 185.502 151.659 185.502Z" fill="#CCCACA"/>
<path d="M151.412 193.072H54.4435C53.7471 193.072 53.1797 192.504 53.1797 191.808C53.1797 191.111 53.7471 190.544 54.4435 190.544H151.412C152.109 190.544 152.676 191.111 152.676 191.808C152.676 192.504 152.109 193.072 151.412 193.072Z" fill="#CCCACA"/>
<path d="M151.412 231.439H54.4435C53.7471 231.439 53.1797 230.871 53.1797 230.175C53.1797 229.478 53.7471 228.911 54.4435 228.911H151.412C152.109 228.911 152.676 229.478 152.676 230.175C152.676 230.871 152.109 231.439 151.412 231.439Z" fill="#CCCACA"/>
<path d="M151.412 200.719H54.4435C53.7471 200.719 53.1797 200.152 53.1797 199.455C53.1797 198.759 53.7471 198.192 54.4435 198.192H151.412C152.109 198.192 152.676 198.759 152.676 199.455C152.676 200.152 152.109 200.719 151.412 200.719Z" fill="#CCCACA"/>
<path d="M151.412 208.29H54.4435C53.7471 208.29 53.1797 207.722 53.1797 207.026C53.1797 206.329 53.7471 205.762 54.4435 205.762H151.412C152.109 205.762 152.676 206.329 152.676 207.026C152.676 207.722 152.109 208.29 151.412 208.29Z" fill="#CCCACA"/>
<path d="M163.278 125.726H35.9766V132.149H163.278V125.726Z" fill="#CCCACA"/>
<path d="M72.4613 160.547L51.7754 157.916C52.3299 153.454 54.316 149.159 57.7336 145.742C65.8841 137.565 79.103 137.578 87.2407 145.742C95.3784 153.918 95.3526 167.176 87.202 175.339C83.1912 179.363 77.9682 181.387 72.7322 181.478L72.4613 160.547Z" fill="#2A4767"/>
<path d="M56.0561 176.99C51.3231 172.231 49.35 165.744 50.1495 159.554L70.8355 162.185L71.0934 183.116C65.6511 183.193 60.1959 181.155 56.0561 176.99Z" fill="#DDB762"/>
<g opacity="0.17">
<path opacity="0.0384615" d="M155.673 174.103C157.986 139.837 141.531 110.821 118.919 109.295C96.3075 107.768 76.1017 134.308 73.7883 168.574C71.475 202.84 87.9301 231.856 110.542 233.382C133.154 234.909 153.359 208.368 155.673 174.103Z" fill="#4A0101"/>
<path opacity="0.0769231" d="M154.656 174.034C156.912 140.614 140.866 112.314 118.815 110.826C96.7648 109.337 77.0604 135.223 74.8041 168.643C72.5478 202.063 88.5941 230.362 110.644 231.851C132.695 233.34 152.399 207.454 154.656 174.034Z" fill="#480202"/>
<path opacity="0.1154" d="M153.639 173.965C155.838 141.398 140.2 113.821 118.711 112.37C97.2223 110.919 78.0196 136.144 75.8209 168.712C73.6222 201.279 89.2601 228.856 110.749 230.307C132.238 231.758 151.441 206.533 153.639 173.965Z" fill="#460303"/>
<path opacity="0.1538" d="M152.622 173.897C154.764 142.175 139.535 115.314 118.607 113.901C97.6796 112.488 78.9783 137.058 76.8367 168.78C74.6951 200.502 89.9242 227.363 110.852 228.776C131.779 230.189 150.481 205.619 152.622 173.897Z" fill="#440404"/>
<path opacity="0.1923" d="M151.606 173.828C153.69 142.959 138.87 116.82 118.503 115.445C98.1371 114.07 79.9376 137.98 77.8536 168.849C75.7695 199.718 90.5902 225.857 110.956 227.232C131.323 228.607 149.522 204.697 151.606 173.828Z" fill="#420505"/>
<path opacity="0.2308" d="M150.59 173.76C152.617 143.743 138.204 118.326 118.4 116.989C98.5947 115.652 80.8969 138.901 78.8704 168.918C76.844 198.934 91.2562 224.351 111.061 225.688C130.866 227.025 148.564 203.776 150.59 173.76Z" fill="#400606"/>
<path opacity="0.2692" d="M149.573 173.691C151.542 144.52 137.539 119.819 118.295 118.52C99.052 117.221 81.8556 139.815 79.8862 168.986C77.9168 198.157 91.9202 222.858 111.164 224.157C130.407 225.456 147.604 202.862 149.573 173.691Z" fill="#3E0606"/>
<path opacity="0.3077" d="M148.557 173.622C150.469 145.304 136.874 121.325 118.192 120.064C99.5095 118.803 82.8149 140.737 80.903 169.055C78.9912 197.373 92.5862 221.351 111.268 222.613C129.95 223.874 146.645 201.94 148.557 173.622Z" fill="#3C0707"/>
<path opacity="0.3462" d="M147.554 173.554C149.408 146.082 136.216 122.819 118.089 121.595C99.9608 120.371 83.7618 141.65 81.9071 169.122C80.0524 196.595 93.2443 219.858 111.372 221.082C129.5 222.305 145.699 201.027 147.554 173.554Z" fill="#3A0808"/>
<path opacity="0.3846" d="M146.538 173.486C148.335 146.866 135.551 124.325 117.985 123.139C100.418 121.953 84.7211 142.572 82.9239 169.191C81.1268 195.811 93.9103 218.352 111.477 219.538C129.043 220.724 144.74 200.106 146.538 173.486Z" fill="#380909"/>
<path opacity="0.4231" d="M145.519 173.417C147.259 147.65 134.884 125.831 117.879 124.683C100.874 123.535 85.6784 143.493 83.9389 169.26C82.1993 195.027 94.5743 216.845 111.579 217.994C128.584 219.142 143.78 199.184 145.519 173.417Z" fill="#360A0A"/>
<path opacity="0.4615" d="M144.504 173.349C146.187 148.427 134.22 127.325 117.777 126.215C101.333 125.104 86.6391 144.407 84.9566 169.328C83.2741 194.25 95.2403 215.352 111.684 216.462C128.128 217.573 142.822 198.27 144.504 173.349Z" fill="#340B0B"/>
<path opacity="0.5" d="M143.488 173.28C145.113 149.211 133.555 128.831 117.673 127.759C101.791 126.686 87.5983 145.329 85.9734 169.397C84.3485 193.466 95.9064 213.846 111.789 214.918C127.671 215.991 141.863 197.349 143.488 173.28Z" fill="#330C0C"/>
<path opacity="0.5385" d="M142.471 173.211C144.039 149.989 132.89 130.324 117.569 129.29C102.248 128.255 88.557 146.243 86.9892 169.466C85.4214 192.689 96.5704 212.353 111.891 213.387C127.212 214.422 140.903 196.434 142.471 173.211Z" fill="#310D0D"/>
<path opacity="0.5769" d="M141.455 173.143C142.965 150.773 132.224 131.83 117.465 130.834C102.706 129.837 89.5163 147.164 88.006 169.534C86.4958 191.904 97.2364 210.847 111.996 211.843C126.755 212.84 139.945 195.513 141.455 173.143Z" fill="#2F0E0E"/>
<path opacity="0.6154" d="M140.439 173.074C141.891 151.557 131.559 133.336 117.361 132.378C103.163 131.419 90.4756 148.085 89.0229 169.603C87.5702 191.12 97.9024 209.341 112.1 210.299C126.299 211.258 138.986 194.592 140.439 173.074Z" fill="#2D0F0F"/>
<path opacity="0.6538" d="M139.422 173.006C140.817 152.334 130.894 134.83 117.257 133.909C103.62 132.988 91.4343 149 90.0387 169.672C88.6431 190.343 98.5664 207.848 112.203 208.768C125.84 209.689 138.026 193.677 139.422 173.006Z" fill="#2B1010"/>
<path opacity="0.6923" d="M138.405 172.937C139.743 153.118 130.229 136.336 117.153 135.453C104.078 134.57 92.3936 149.921 91.0555 169.74C89.7175 189.559 99.2325 206.341 112.308 207.224C125.383 208.107 137.067 192.756 138.405 172.937Z" fill="#291111"/>
<path opacity="0.7308" d="M137.389 172.868C138.67 153.902 129.563 137.842 117.049 136.997C104.535 136.152 93.3528 150.843 92.0724 169.809C90.7919 188.775 99.8984 204.835 112.412 205.68C124.926 206.525 136.109 191.835 137.389 172.868Z" fill="#271212"/>
<path opacity="0.7692" d="M136.372 172.8C137.596 154.679 128.898 139.335 116.945 138.528C104.993 137.721 94.3115 151.757 93.0881 169.877C91.8648 187.998 100.562 203.342 112.515 204.149C124.468 204.956 135.149 190.92 136.372 172.8Z" fill="#251212"/>
<path opacity="0.8077" d="M135.368 172.732C136.534 155.464 128.239 140.842 116.841 140.072C105.442 139.303 95.2571 152.677 94.0913 169.945C92.9255 187.213 101.221 201.835 112.619 202.605C124.017 203.374 134.202 190 135.368 172.732Z" fill="#231313"/>
<path opacity="0.8462" d="M134.353 172.663C135.462 156.241 127.575 142.335 116.738 141.603C105.902 140.872 96.2178 153.591 95.1091 170.014C94.0003 186.436 101.887 200.342 112.723 201.074C123.56 201.805 133.244 189.085 134.353 172.663Z" fill="#211414"/>
<path opacity="0.8846" d="M133.335 172.595C134.386 157.025 126.908 143.841 116.633 143.147C106.357 142.454 97.1751 154.513 96.124 170.082C95.0728 185.652 102.551 198.836 112.826 199.53C123.102 200.223 132.284 188.164 133.335 172.595Z" fill="#1F1515"/>
<path opacity="0.9231" d="M132.319 172.526C133.312 157.809 126.243 145.347 116.529 144.691C106.815 144.035 98.1344 155.434 97.1408 170.151C96.1472 184.868 103.217 197.33 112.931 197.986C122.645 198.641 131.325 187.243 132.319 172.526Z" fill="#1D1616"/>
<path opacity="0.9615" d="M131.303 172.457C132.24 158.586 125.579 146.84 116.427 146.222C107.274 145.604 99.095 156.348 98.1585 170.22C97.2221 184.091 103.883 195.837 113.035 196.454C122.188 197.072 130.367 186.328 131.303 172.457Z" fill="#1B1717"/>
<path d="M130.285 172.389C131.164 159.37 124.912 148.347 116.321 147.767C107.729 147.187 100.052 157.27 99.1734 170.288C98.2945 183.307 104.547 194.331 113.138 194.911C121.729 195.491 129.406 185.407 130.285 172.389Z" fill="#191818"/>
</g>
<path d="M207.01 209.605H99.7891C97.3646 209.605 95.4043 207.645 95.4043 205.22V58.7676C95.4043 56.343 97.3646 54.3828 99.7891 54.3828H185.241L211.382 79.6599V205.22C211.395 207.645 209.422 209.605 207.01 209.605Z" fill="url(#paint2_linear_411_1332)"/>
<path d="M211.396 79.6599L185.242 54.3828V79.6599H211.396Z" fill="#CCCACA"/>
<path d="M165.446 73.4695H113.989C113.318 73.4695 112.764 72.9149 112.764 72.2443C112.764 71.5737 113.318 71.0192 113.989 71.0192H165.446C166.116 71.0192 166.671 71.5737 166.671 72.2443C166.671 72.9149 166.116 73.4695 165.446 73.4695Z" fill="#D1CFCF"/>
<path d="M177.787 80.885H113.975C113.305 80.885 112.75 80.3305 112.75 79.6599C112.75 78.9892 113.305 78.4347 113.975 78.4347H177.787C178.458 78.4347 179.012 78.9892 179.012 79.6599C179.012 80.3305 178.47 80.885 177.787 80.885Z" fill="#D1CFCF"/>
<path d="M177.787 88.2876H113.975C113.305 88.2876 112.75 87.733 112.75 87.0624C112.75 86.3918 113.305 85.8372 113.975 85.8372H177.787C178.458 85.8372 179.012 86.3918 179.012 87.0624C179.012 87.7459 178.47 88.2876 177.787 88.2876Z" fill="#D1CFCF"/>
<path d="M211.382 94.7617H95.4043V100.617H211.382V94.7617Z" fill="#D1CFCF"/>
<path d="M204.508 113.126H107.771V120.49H204.508V113.126Z" fill="#E2E2E2"/>
<path d="M204.508 126.719H107.771V134.083H204.508V126.719Z" fill="#E2E2E2"/>
<path d="M204.508 140.325H107.771V147.689H204.508V140.325Z" fill="#E2E2E2"/>
<path d="M204.508 153.918H107.771V161.282H204.508V153.918Z" fill="#E2E2E2"/>
<path d="M204.508 167.511H107.771V174.875H204.508V167.511Z" fill="#E2E2E2"/>
<path d="M204.508 181.117H107.771V188.48H204.508V181.117Z" fill="#E2E2E2"/>
<path d="M147.789 117.614H113.471C113.033 117.614 112.672 117.253 112.672 116.815C112.672 116.376 113.033 116.015 113.471 116.015H147.789C148.227 116.015 148.589 116.376 148.589 116.815C148.589 117.253 148.227 117.614 147.789 117.614Z" fill="#D1CFCF"/>
<path d="M147.789 124.269H113.471C113.033 124.269 112.672 123.908 112.672 123.469C112.672 123.031 113.033 122.67 113.471 122.67H147.789C148.227 122.67 148.589 123.031 148.589 123.469C148.589 123.908 148.227 124.269 147.789 124.269Z" fill="#D1CFCF"/>
<path d="M147.789 131.207H113.471C113.033 131.207 112.672 130.846 112.672 130.407C112.672 129.969 113.033 129.608 113.471 129.608H147.789C148.227 129.608 148.589 129.969 148.589 130.407C148.589 130.846 148.227 131.207 147.789 131.207Z" fill="#D1CFCF"/>
<path d="M147.789 138.003H113.471C113.033 138.003 112.672 137.642 112.672 137.204C112.672 136.765 113.033 136.404 113.471 136.404H147.789C148.227 136.404 148.589 136.765 148.589 137.204C148.589 137.642 148.227 138.003 147.789 138.003Z" fill="#D1CFCF"/>
<path d="M147.789 144.658H113.471C113.033 144.658 112.672 144.297 112.672 143.858C112.672 143.42 113.033 143.059 113.471 143.059H147.789C148.227 143.059 148.589 143.42 148.589 143.858C148.589 144.297 148.227 144.658 147.789 144.658Z" fill="#D1CFCF"/>
<path d="M147.789 151.609H113.471C113.033 151.609 112.672 151.248 112.672 150.81C112.672 150.371 113.033 150.01 113.471 150.01H147.789C148.227 150.01 148.589 150.371 148.589 150.81C148.589 151.248 148.227 151.609 147.789 151.609Z" fill="#D1CFCF"/>
<path d="M147.789 158.406H113.471C113.033 158.406 112.672 158.045 112.672 157.606C112.672 157.168 113.033 156.807 113.471 156.807H147.789C148.227 156.807 148.589 157.168 148.589 157.606C148.589 158.045 148.227 158.406 147.789 158.406Z" fill="#D1CFCF"/>
<path d="M147.789 165.06H113.471C113.033 165.06 112.672 164.699 112.672 164.261C112.672 163.822 113.033 163.461 113.471 163.461H147.789C148.227 163.461 148.589 163.822 148.589 164.261C148.589 164.699 148.227 165.06 147.789 165.06Z" fill="#D1CFCF"/>
<path d="M147.789 171.999H113.471C113.033 171.999 112.672 171.638 112.672 171.199C112.672 170.761 113.033 170.4 113.471 170.4H147.789C148.227 170.4 148.589 170.761 148.589 171.199C148.589 171.638 148.227 171.999 147.789 171.999Z" fill="#D1CFCF"/>
<path d="M199.467 117.614H165.149C164.711 117.614 164.35 117.253 164.35 116.815C164.35 116.376 164.711 116.015 165.149 116.015H199.467C199.905 116.015 200.266 116.376 200.266 116.815C200.266 117.253 199.905 117.614 199.467 117.614Z" fill="#BCBCBC"/>
<path d="M199.467 124.269H165.149C164.711 124.269 164.35 123.908 164.35 123.469C164.35 123.031 164.711 122.67 165.149 122.67H199.467C199.905 122.67 200.266 123.031 200.266 123.469C200.266 123.908 199.905 124.269 199.467 124.269Z" fill="#BCBCBC"/>
<path d="M199.467 131.207H165.149C164.711 131.207 164.35 130.846 164.35 130.407C164.35 129.969 164.711 129.608 165.149 129.608H199.467C199.905 129.608 200.266 129.969 200.266 130.407C200.266 130.846 199.905 131.207 199.467 131.207Z" fill="#BCBCBC"/>
<path d="M199.467 138.003H165.149C164.711 138.003 164.35 137.642 164.35 137.204C164.35 136.765 164.711 136.404 165.149 136.404H199.467C199.905 136.404 200.266 136.765 200.266 137.204C200.266 137.642 199.905 138.003 199.467 138.003Z" fill="#BCBCBC"/>
<path d="M199.467 144.658H165.149C164.711 144.658 164.35 144.297 164.35 143.858C164.35 143.42 164.711 143.059 165.149 143.059H199.467C199.905 143.059 200.266 143.42 200.266 143.858C200.266 144.297 199.905 144.658 199.467 144.658Z" fill="#BCBCBC"/>
<path d="M199.467 151.609H165.149C164.711 151.609 164.35 151.248 164.35 150.81C164.35 150.371 164.711 150.01 165.149 150.01H199.467C199.905 150.01 200.266 150.371 200.266 150.81C200.266 151.248 199.905 151.609 199.467 151.609Z" fill="#BCBCBC"/>
<path d="M199.467 158.406H165.149C164.711 158.406 164.35 158.045 164.35 157.606C164.35 157.168 164.711 156.807 165.149 156.807H199.467C199.905 156.807 200.266 157.168 200.266 157.606C200.266 158.045 199.905 158.406 199.467 158.406Z" fill="#BCBCBC"/>
<path d="M199.467 165.06H165.149C164.711 165.06 164.35 164.699 164.35 164.261C164.35 163.822 164.711 163.461 165.149 163.461H199.467C199.905 163.461 200.266 163.822 200.266 164.261C200.266 164.699 199.905 165.06 199.467 165.06Z" fill="#BCBCBC"/>
<path d="M199.467 171.999H165.149C164.711 171.999 164.35 171.638 164.35 171.199C164.35 170.761 164.711 170.4 165.149 170.4H199.467C199.905 170.4 200.266 170.761 200.266 171.199C200.266 171.638 199.905 171.999 199.467 171.999Z" fill="#BCBCBC"/>
<path d="M247.648 241.382H140.439C138.015 241.382 136.055 239.421 136.055 236.997V90.5314C136.055 88.1068 138.015 86.1465 140.439 86.1465H225.892L252.033 111.424V236.984C252.033 239.421 250.06 241.382 247.648 241.382Z" fill="url(#paint3_linear_411_1332)"/>
<path d="M252.033 111.437L225.879 86.1467V111.437H252.033Z" fill="#CCCACA"/>
<path d="M206.083 105.246H154.626C153.955 105.246 153.4 104.692 153.4 104.021C153.4 103.351 153.955 102.796 154.626 102.796H206.083C206.753 102.796 207.308 103.351 207.308 104.021C207.308 104.692 206.753 105.246 206.083 105.246Z" fill="#CCCACA"/>
<path d="M218.424 112.662H154.612C153.941 112.662 153.387 112.107 153.387 111.437C153.387 110.766 153.941 110.211 154.612 110.211H218.424C219.094 110.211 219.649 110.766 219.649 111.437C219.649 112.107 219.107 112.662 218.424 112.662Z" fill="#CCCACA"/>
<path d="M218.424 120.065H154.612C153.941 120.065 153.387 119.51 153.387 118.839C153.387 118.169 153.941 117.614 154.612 117.614H218.424C219.094 117.614 219.649 118.169 219.649 118.839C219.649 119.51 219.107 120.065 218.424 120.065Z" fill="#CCCACA"/>
<path d="M241.432 146.296H202.858C202.342 146.296 201.93 145.883 201.93 145.367V144.916C201.93 144.4 202.342 143.987 202.858 143.987H241.432C241.947 143.987 242.36 144.4 242.36 144.916V145.367C242.36 145.883 241.947 146.296 241.432 146.296Z" fill="#CCCACA"/>
<path d="M241.432 153.26H202.858C202.342 153.26 201.93 152.847 201.93 152.331V151.88C201.93 151.364 202.342 150.951 202.858 150.951H241.432C241.947 150.951 242.36 151.364 242.36 151.88V152.331C242.36 152.847 241.947 153.26 241.432 153.26Z" fill="#CCCACA"/>
<path d="M241.432 160.16H202.858C202.342 160.16 201.93 159.747 201.93 159.231V158.78C201.93 158.264 202.342 157.851 202.858 157.851H241.432C241.947 157.851 242.36 158.264 242.36 158.78V159.231C242.36 159.747 241.947 160.16 241.432 160.16Z" fill="#CCCACA"/>
<path d="M241.432 167.137H202.858C202.342 167.137 201.93 166.724 201.93 166.208V165.757C201.93 165.241 202.342 164.828 202.858 164.828H241.432C241.947 164.828 242.36 165.241 242.36 165.757V166.208C242.36 166.711 241.947 167.137 241.432 167.137Z" fill="#CCCACA"/>
<path d="M241.432 174.023H202.858C202.342 174.023 201.93 173.611 201.93 173.095V172.643C201.93 172.127 202.342 171.715 202.858 171.715H241.432C241.947 171.715 242.36 172.127 242.36 172.643V173.095C242.36 173.611 241.947 174.023 241.432 174.023Z" fill="#CCCACA"/>
<path d="M241.432 181H202.858C202.342 181 201.93 180.588 201.93 180.072V179.62C201.93 179.105 202.342 178.692 202.858 178.692H241.432C241.947 178.692 242.36 179.105 242.36 179.62V180.072C242.36 180.575 241.947 181 241.432 181Z" fill="#CCCACA"/>
<path d="M241.211 187.887H152.87C152.239 187.887 151.723 187.371 151.723 186.739C151.723 186.107 152.239 185.591 152.87 185.591H241.211C241.843 185.591 242.359 186.107 242.359 186.739C242.359 187.371 241.843 187.887 241.211 187.887Z" fill="#CCCACA"/>
<path d="M241.211 194.864H152.87C152.239 194.864 151.723 194.348 151.723 193.716C151.723 193.084 152.239 192.568 152.87 192.568H241.211C241.843 192.568 242.359 193.084 242.359 193.716C242.359 194.348 241.843 194.864 241.211 194.864Z" fill="#CCCACA"/>
<path d="M241.211 201.751H152.87C152.239 201.751 151.723 201.235 151.723 200.603C151.723 199.971 152.239 199.455 152.87 199.455H241.211C241.843 199.455 242.359 199.971 242.359 200.603C242.359 201.235 241.843 201.751 241.211 201.751Z" fill="#CCCACA"/>
<path d="M241.211 208.728H152.87C152.239 208.728 151.723 208.212 151.723 207.58C151.723 206.948 152.239 206.432 152.87 206.432H241.211C241.843 206.432 242.359 206.948 242.359 207.58C242.359 208.212 241.843 208.728 241.211 208.728Z" fill="#CCCACA"/>
<path d="M241.211 215.627H152.87C152.239 215.627 151.723 215.111 151.723 214.48C151.723 213.848 152.239 213.332 152.87 213.332H241.211C241.843 213.332 242.359 213.848 242.359 214.48C242.359 215.099 241.843 215.627 241.211 215.627Z" fill="#CCCACA"/>
<path d="M241.211 222.591H152.87C152.239 222.591 151.723 222.076 151.723 221.444C151.723 220.812 152.239 220.296 152.87 220.296H241.211C241.843 220.296 242.359 220.812 242.359 221.444C242.359 222.076 241.843 222.591 241.211 222.591Z" fill="#CCCACA"/>
<path d="M252.019 126.538H136.041V132.393H252.019V126.538Z" fill="#CCCACA"/>
<path d="M196.435 143.987H151.723V180.987H196.435V143.987Z" fill="white"/>
<path d="M193.316 177.878V147.107H154.833V177.878H193.316Z" fill="#2A4767"/>
<path d="M154.832 177.879L165.02 162.494L175.208 177.879H154.832Z" fill="#DDB762"/>
<path d="M193.315 177.879L180.044 153.75L168.373 177.879H193.315Z" fill="#DDB762"/>
<path d="M165.829 155.523C166.967 154.385 166.967 152.54 165.829 151.402C164.691 150.263 162.846 150.263 161.707 151.402C160.569 152.54 160.569 154.385 161.707 155.523C162.846 156.662 164.691 156.662 165.829 155.523Z" fill="#DDB762"/>
<path d="M254.585 258.676C236.014 255.852 226.149 240.298 220.332 228.846C217.701 223.649 216.309 217.575 216.309 211.255V173.456L217.366 173.417C239.974 172.514 253.734 154.253 253.863 154.072L254.753 152.873L257.216 153.802C257.358 153.982 269.532 172.514 292.153 173.417L293.21 173.456L295.674 174.746L293.21 211.255C293.21 217.562 291.818 223.649 289.187 228.846C283.37 240.298 273.505 255.852 254.934 258.676L254.766 258.702L254.585 258.676Z" fill="url(#paint4_linear_411_1332)"/>
<path d="M257.048 259.953C238.477 257.128 228.612 241.575 222.795 230.123C220.164 224.926 218.771 218.852 218.771 212.532V174.733L219.829 174.694C242.437 173.791 256.197 155.53 256.326 155.349L257.216 154.15L258.106 155.349C258.248 155.53 271.995 173.791 294.603 174.694L295.66 174.733V212.532C295.66 218.839 294.268 224.926 291.637 230.123C285.82 241.575 275.955 257.128 257.384 259.953L257.216 259.978L257.048 259.953Z" fill="url(#paint5_linear_411_1332)"/>
<path d="M257.215 156.007C257.215 156.007 243.313 174.862 219.867 175.803V212.532C219.867 218.555 221.17 224.5 223.775 229.62C228.392 238.725 238.025 255.942 257.215 258.857C276.392 255.942 286.026 238.725 290.656 229.62C293.261 224.5 294.564 218.555 294.564 212.532V175.803C271.118 174.862 257.215 156.007 257.215 156.007Z" fill="url(#paint6_linear_411_1332)"/>
<path d="M290.683 179.375V212.532C290.683 218.065 289.483 223.378 287.188 227.866C281.926 238.222 273.131 252.228 257.204 254.936C252.6 254.149 248.589 252.421 245.094 250.1C248.202 251.918 251.684 253.272 255.604 253.943C271.544 251.209 280.34 237.216 285.589 226.873C287.858 222.372 289.084 217.072 289.084 211.526V179.156C289.612 179.247 290.141 179.311 290.683 179.375Z" fill="url(#paint7_linear_411_1332)"/>
<path d="M289.084 179.156V211.526C289.084 217.072 287.872 222.372 285.589 226.873C280.508 236.868 272.125 250.267 257.204 253.633C256.675 253.75 256.146 253.866 255.605 253.956C251.684 253.285 248.202 251.931 245.094 250.113C236.479 244.438 230.947 235.243 227.22 227.879C224.937 223.378 223.725 218.078 223.725 212.545V179.376C240.09 177.48 251.542 167.82 256.894 162.249C259.512 164.828 263.252 168.078 268.037 170.98C268.089 171.019 268.14 171.044 268.192 171.07C273.698 174.655 280.714 177.918 289.084 179.156Z" fill="url(#paint8_linear_411_1332)"/>
<path d="M257.204 253.633C256.675 253.75 256.146 253.866 255.605 253.956C251.684 253.285 248.202 251.931 245.094 250.113C236.479 244.438 230.947 235.243 227.22 227.879C224.937 223.378 223.725 218.078 223.725 212.545V179.376C240.09 177.48 251.542 167.82 256.894 162.249L257.204 253.633Z" fill="url(#paint9_linear_411_1332)"/>
<path d="M242.656 204.936L257.1 223.327L278.547 207.064L274.085 200.964L257.216 213.358L247.376 200.964L242.656 204.936Z" fill="white"/>
<defs>
<linearGradient id="paint0_linear_411_1332" x1="152.596" y1="0.300171" x2="152.596" y2="184.3" gradientUnits="userSpaceOnUse">
<stop stop-color="#EBD9B2"/>
<stop offset="1" stop-color="#DDB762" stop-opacity="0"/>
</linearGradient>
<linearGradient id="paint1_linear_411_1332" x1="111.557" y1="252.64" x2="84.1278" y2="81.5304" gradientUnits="userSpaceOnUse">
<stop stop-color="#FAFAFA"/>
<stop offset="0.8119" stop-color="#E7E6E6"/>
</linearGradient>
<linearGradient id="paint2_linear_411_1332" x1="95.4078" y1="131.992" x2="211.389" y2="131.992" gradientUnits="userSpaceOnUse">
<stop stop-color="#FAFAFA"/>
<stop offset="0.8119" stop-color="#E7E6E6"/>
</linearGradient>
<linearGradient id="paint3_linear_411_1332" x1="136.047" y1="163.766" x2="252.028" y2="163.766" gradientUnits="userSpaceOnUse">
<stop stop-color="#FAFAFA"/>
<stop offset="0.8119" stop-color="#E7E6E6"/>
</linearGradient>
<linearGradient id="paint4_linear_411_1332" x1="244.773" y1="225.744" x2="260.784" y2="177.527" gradientUnits="userSpaceOnUse">
<stop stop-color="#FAFAFA"/>
<stop offset="0.8119" stop-color="#E7E6E6"/>
</linearGradient>
<linearGradient id="paint5_linear_411_1332" x1="275.879" y1="169.455" x2="239.3" y2="228.447" gradientUnits="userSpaceOnUse">
<stop stop-color="#FAFAFA"/>
<stop offset="0.8119" stop-color="#E7E6E6"/>
</linearGradient>
<linearGradient id="paint6_linear_411_1332" x1="266.495" y1="253.726" x2="251.596" y2="160.788" gradientUnits="userSpaceOnUse">
<stop stop-color="#FAFAFA"/>
<stop offset="0.8119" stop-color="#E7E6E6"/>
</linearGradient>
<linearGradient id="paint7_linear_411_1332" x1="245.096" y1="217.051" x2="290.688" y2="217.051" gradientUnits="userSpaceOnUse">
<stop stop-color="#FCB451"/>
<stop offset="1" stop-color="#DDB762"/>
</linearGradient>
<linearGradient id="paint8_linear_411_1332" x1="265.237" y1="252.41" x2="250.937" y2="163.206" gradientUnits="userSpaceOnUse">
<stop stop-color="#FF9462"/>
<stop offset="1" stop-color="#DDB762"/>
</linearGradient>
<linearGradient id="paint9_linear_411_1332" x1="224.924" y1="229.409" x2="253.592" y2="205.613" gradientUnits="userSpaceOnUse">
<stop stop-color="#FCB451"/>
<stop offset="0.9615" stop-color="#DEB761"/>
<stop offset="1" stop-color="#DDB762"/>
</linearGradient>
</defs>
</svg>
