<svg width="305" height="285" viewBox="0 0 305 285" fill="none" xmlns="http://www.w3.org/2000/svg">
<path d="M294.419 114.475C290.893 119.872 289.459 126.388 290.447 132.765C294.227 157.253 283.456 181.659 263.397 195.387C261.318 196.809 259.137 198.12 256.866 199.3H191.646C190.198 199.224 188.737 199.224 187.29 199.3H35.9801C33.8603 198.099 31.816 196.788 29.8539 195.387C5.3423 177.801 -6.02512 144.989 5.32172 114.606C8.90963 105.006 14.4458 96.6198 21.3472 89.78C27.3911 83.7891 31.7954 76.3419 34.1416 68.1354C34.1553 68.094 34.169 68.0457 34.1828 68.0043C44.7475 31.3204 82.8767 10.2004 119.339 20.8294C123.263 21.9752 127.002 23.4384 130.549 25.1846C139.439 29.5673 149.84 29.6156 158.778 25.3364C162.538 23.5419 166.531 22.0856 170.743 21.0227C180.025 18.6898 189.416 18.5518 198.328 20.3118C205.785 21.7888 213.482 21.2643 220.672 18.7865C220.836 18.7313 221.001 18.676 221.165 18.6139C254.472 7.41895 290.495 25.509 301.622 59.018C308.037 78.3917 304.758 98.6559 294.419 114.475Z" fill="url(#paint0_linear_411_1051)" fill-opacity="0.5"/>
<path d="M31.4404 131.753L16.0328 66.3894C15.6069 64.5606 16.9848 62.8194 18.8638 62.8194H124.65C127.03 62.8194 129.097 64.4604 129.648 66.7778L144.905 131.515C145.331 133.331 143.953 135.072 142.087 135.072H35.6242C33.6325 135.072 31.8913 133.694 31.4404 131.753Z" fill="url(#paint1_linear_411_1051)"/>
<path d="M128.258 98.4448C128.258 98.4448 114.304 77.8888 101.514 77.7635C92.207 77.6758 95.9524 93.572 86.8832 91.8934C77.814 90.2274 69.4464 69.7967 64.0725 69.5336C58.7112 69.2706 63.6967 90.3527 55.6171 88.9372C47.5375 87.5217 41.362 75.4461 33.2949 74.8073L38.7314 97.7182L128.258 98.4448Z" fill="#2A4767"/>
<path d="M121.081 69.5336L131.14 111.071L39.1328 109.531" stroke="#898989" stroke-width="0.461175" stroke-miterlimit="10"/>
<g opacity="0.51">
<path d="M128.985 104.771L36.9277 103.242" stroke="#898989" stroke-width="0.115294" stroke-miterlimit="10"/>
<path d="M128.058 100.361L35.9883 98.8456" stroke="#898989" stroke-width="0.115294" stroke-miterlimit="10"/>
<path d="M127.118 95.9646L35.0605 94.4489" stroke="#898989" stroke-width="0.115294" stroke-miterlimit="10"/>
<path d="M126.178 91.5677L34.1211 90.0395" stroke="#898989" stroke-width="0.115294" stroke-miterlimit="10"/>
<path d="M125.251 87.1709L33.1816 85.6427" stroke="#898989" stroke-width="0.115294" stroke-miterlimit="10"/>
<path d="M124.313 82.7616L32.2559 81.2459" stroke="#898989" stroke-width="0.115294" stroke-miterlimit="10"/>
<path d="M123.386 78.3648L31.3164 76.8491" stroke="#898989" stroke-width="0.115294" stroke-miterlimit="10"/>
<path d="M122.446 73.968L30.3887 72.4398" stroke="#898989" stroke-width="0.115294" stroke-miterlimit="10"/>
<path d="M121.506 69.5711L29.4492 68.0429" stroke="#898989" stroke-width="0.115294" stroke-miterlimit="10"/>
</g>
<g opacity="0.51">
<path d="M116.295 69.7092L126.304 111.059" stroke="#898989" stroke-width="0.115294" stroke-miterlimit="10"/>
<path d="M110.107 69.6215L120.104 110.971" stroke="#898989" stroke-width="0.115294" stroke-miterlimit="10"/>
<path d="M103.906 69.5212L113.915 110.884" stroke="#898989" stroke-width="0.115294" stroke-miterlimit="10"/>
<path d="M97.7188 69.4336L107.715 110.784" stroke="#898989" stroke-width="0.115294" stroke-miterlimit="10"/>
<path d="M91.5176 69.3458L101.526 110.696" stroke="#898989" stroke-width="0.115294" stroke-miterlimit="10"/>
<path d="M85.3301 69.2457L95.3387 110.608" stroke="#898989" stroke-width="0.115294" stroke-miterlimit="10"/>
<path d="M79.1426 69.158L89.1387 110.508" stroke="#898989" stroke-width="0.115294" stroke-miterlimit="10"/>
<path d="M72.9414 69.0703L82.9501 110.42" stroke="#898989" stroke-width="0.115294" stroke-miterlimit="10"/>
<path d="M66.7539 68.97L76.7626 110.332" stroke="#898989" stroke-width="0.115294" stroke-miterlimit="10"/>
<path d="M60.5645 68.8824L70.5606 110.232" stroke="#898989" stroke-width="0.115294" stroke-miterlimit="10"/>
<path d="M54.3652 68.7947L64.3739 110.145" stroke="#898989" stroke-width="0.115294" stroke-miterlimit="10"/>
<path d="M48.1758 68.6945L58.1719 110.057" stroke="#898989" stroke-width="0.115294" stroke-miterlimit="10"/>
<path d="M41.9766 68.6068L51.9852 109.957" stroke="#898989" stroke-width="0.115294" stroke-miterlimit="10"/>
<path d="M35.7871 68.5191L45.7958 109.869" stroke="#898989" stroke-width="0.115294" stroke-miterlimit="10"/>
<path d="M29.5996 68.4188L39.5957 109.781" stroke="#898989" stroke-width="0.115294" stroke-miterlimit="10"/>
</g>
<path d="M124.287 81.8221C124.287 81.8221 119.64 93.7724 104.069 86.4068C88.4864 79.0413 83.6136 70.6861 74.319 80.2313C65.0243 89.789 52.9989 83.3754 45.9715 76.9493C38.9442 70.5233 35.5996 84.3149 35.5996 84.3149L38.8565 98.0439L128.258 98.4573L124.287 81.8221Z" fill="#DDB762"/>
<path d="M130.777 115.694L98.7968 115.055C98.1329 115.042 97.7697 115.556 97.9576 116.207L97.9826 116.307C98.183 116.984 98.9096 117.548 99.586 117.573L131.616 118.374C132.305 118.387 132.681 117.848 132.443 117.172L132.355 116.909C132.142 116.245 131.428 115.706 130.777 115.694Z" fill="#A3A4A1"/>
<path d="M132.18 121.894L42.6406 120.216C41.9767 120.203 41.6134 120.717 41.8013 121.368L41.8264 121.468C42.0268 122.145 42.7533 122.709 43.4298 122.734L133.032 124.575C133.721 124.588 134.096 124.049 133.858 123.372L133.771 123.109C133.545 122.446 132.844 121.907 132.18 121.894Z" fill="#A3A4A1"/>
<path d="M133.582 128.095L77 127.331C76.3361 127.318 75.9728 127.832 76.1607 128.483L76.1857 128.583C76.3862 129.26 77.1127 129.824 77.7891 129.849L134.421 130.763C135.11 130.776 135.486 130.237 135.248 129.561L135.16 129.297C134.947 128.646 134.246 128.107 133.582 128.095Z" fill="#A3A4A1"/>
<path d="M40.8359 37.6036H153.111V35.2862H40.8359V37.6036Z" fill="url(#paint2_linear_411_1051)"/>
<path d="M94.2109 154.876H99.7226V47.1362H94.2109V154.876Z" fill="url(#paint3_linear_411_1051)"/>
<path d="M91.3438 51.0194H102.605V30.0501H91.3438V51.0194Z" fill="url(#paint4_linear_411_1051)"/>
<path d="M99.2091 30.0501L96.8165 0.500122L94.7246 30.0501H99.2091Z" fill="url(#paint5_linear_411_1051)"/>
<path d="M12.9639 101.839C17.5861 98.0689 27.6574 95.4384 39.3697 95.4384C51.0694 95.4384 61.1533 98.0564 65.7755 101.839H68.4061V105.848C68.4311 106.061 68.4562 106.261 68.4562 106.474C68.4562 106.687 68.4311 106.888 68.4061 107.101V107.113C67.5292 112.913 54.865 117.497 39.3697 117.497C23.8744 117.497 11.1976 112.9 10.3333 107.113H10.2832V101.839H12.9639Z" fill="url(#paint6_linear_411_1051)"/>
<path d="M39.358 115.243C55.422 115.243 68.4445 110.307 68.4445 104.219C68.4445 98.1313 55.422 93.196 39.358 93.196C23.2939 93.196 10.2715 98.1313 10.2715 104.219C10.2715 110.307 23.2939 115.243 39.358 115.243Z" fill="url(#paint7_linear_411_1051)"/>
<path d="M39.358 113.677C55.422 113.677 68.4445 108.742 68.4445 102.654C68.4445 96.5656 55.422 91.6303 39.358 91.6303C23.2939 91.6303 10.2715 96.5656 10.2715 102.654C10.2715 108.742 23.2939 113.677 39.358 113.677Z" fill="url(#paint8_linear_411_1051)"/>
<path d="M10.6347 104.382L40.811 37.4407L68.0937 102.804L68.8203 102.503L40.8486 35.4615L9.9082 104.057L10.6347 104.382Z" fill="url(#paint9_linear_411_1051)"/>
<path d="M41.2247 37.6036H40.4355V115.243H41.2247V37.6036Z" fill="url(#paint10_linear_411_1051)"/>
<path d="M36.8027 39.3448H44.9951V34.4595H36.8027V39.3448Z" fill="url(#paint11_linear_411_1051)"/>
<path d="M122.383 101.839C127.005 98.0689 137.077 95.4384 148.789 95.4384C160.489 95.4384 170.572 98.0564 175.195 101.839H177.838V105.848C177.863 106.061 177.888 106.261 177.888 106.474C177.888 106.687 177.863 106.888 177.838 107.101V107.113C176.961 112.913 164.297 117.497 148.801 117.497C133.306 117.497 120.629 112.9 119.765 107.113H119.715V101.839H122.383Z" fill="url(#paint12_linear_411_1051)"/>
<path d="M148.79 115.243C164.854 115.243 177.876 110.307 177.876 104.219C177.876 98.1313 164.854 93.196 148.79 93.196C132.726 93.196 119.703 98.1313 119.703 104.219C119.703 110.307 132.726 115.243 148.79 115.243Z" fill="url(#paint13_linear_411_1051)"/>
<path d="M148.79 113.677C164.854 113.677 177.876 108.742 177.876 102.654C177.876 96.5656 164.854 91.6303 148.79 91.6303C132.726 91.6303 119.703 96.5656 119.703 102.654C119.703 108.742 132.726 113.677 148.79 113.677Z" fill="url(#paint14_linear_411_1051)"/>
<path d="M120.054 104.382L150.243 37.4407L177.513 102.804L178.239 102.503L150.268 35.4615L119.34 104.057L120.054 104.382Z" fill="url(#paint15_linear_411_1051)"/>
<path d="M150.643 37.6036H149.854V115.243H150.643V37.6036Z" fill="url(#paint16_linear_411_1051)"/>
<path d="M146.221 39.3448H154.413V34.4595H146.221V39.3448Z" fill="url(#paint17_linear_411_1051)"/>
<path d="M248.225 193.095L237.427 184.702L236.951 188.898L248.225 197.103V193.095Z" fill="url(#paint18_linear_411_1051)"/>
<path d="M282.748 187.821L248.225 193.095L236.951 184.326L274.205 181.407L282.748 187.821Z" fill="url(#paint19_linear_411_1051)"/>
<path d="M280.87 133.03L288.311 138.091C289.826 139.118 290.678 140.872 290.54 142.701L286.87 187.358L266.076 173.09L280.87 133.03Z" fill="url(#paint20_linear_411_1051)"/>
<path d="M276.761 133.506L284.201 138.567C285.717 139.594 286.569 141.348 286.431 143.177L282.761 187.834L261.967 173.578L276.761 133.506Z" fill="url(#paint21_linear_411_1051)"/>
<path d="M283.011 184.702V187.821L248.225 193.095V197.103L286.004 190.903L286.869 187.345L283.011 184.702Z" fill="url(#paint22_linear_411_1051)"/>
<path d="M286.005 190.903L300.022 233.868L298.87 235.134L282.748 191.441L286.005 190.903Z" fill="url(#paint23_linear_411_1051)"/>
<path opacity="0.2" d="M217.083 214.54H80.482C77.4381 214.54 75.8221 216.945 77.8639 218.448L106.913 243.689C109.055 245.28 112.124 246.195 115.331 246.195H250.116C253.823 246.195 255.903 243.339 253.598 241.409L224.649 216.983C222.833 215.442 220.04 214.54 217.083 214.54Z" fill="url(#paint24_linear_411_1051)"/>
<path d="M234.821 233.956C234.821 233.956 235.397 235.234 230.988 235.297C226.566 235.359 226.504 233.668 226.04 234.633C225.577 235.597 225.577 237.514 224.474 238.09C223.372 238.666 214.641 238.729 213.714 239.606C212.787 240.482 213.251 243.151 213.251 243.151C213.251 243.151 234.358 242.8 235.122 242.048C235.861 241.284 234.821 233.956 234.821 233.956Z" fill="#2A3645"/>
<path d="M216.507 218.373C216.507 218.373 217.083 219.651 212.674 219.714C208.252 219.776 208.189 218.085 207.726 219.05C207.262 220.014 207.262 221.931 206.16 222.507C205.058 223.083 196.327 223.146 195.4 224.023C194.473 224.9 194.936 227.568 194.936 227.568C194.936 227.568 216.043 227.217 216.807 226.465C217.559 225.701 216.507 218.373 216.507 218.373Z" fill="#2A3645"/>
<path d="M212.949 225.15C212.949 225.15 214.766 235.572 229.86 236.223C244.954 236.862 242.236 231.063 242.236 231.063C242.236 231.063 243.99 195.262 244.478 191.404C244.954 187.546 248.337 189.8 262.466 188.51C276.609 187.22 277.724 176.622 275.632 170.848C273.552 165.06 273.866 153.824 277.724 144.379C281.582 134.947 281.507 131.039 281.507 131.039L277.235 122.495C277.235 122.495 252.508 124.162 247.522 127.331C247.147 127.569 246.883 127.819 246.746 128.07C245.568 130.337 245.668 143.127 245.43 153.21C245.293 159.361 245.03 164.497 244.278 165.624C242.311 168.58 223.597 173.578 220.127 178.025C216.695 182.485 212.949 225.15 212.949 225.15Z" fill="#DDB762"/>
<path d="M219.389 177.311C219.389 177.311 213.84 181.859 211.723 193.483C209.606 205.108 205.936 216.87 205.936 216.87C205.936 216.87 209.08 222.056 216.345 222.97C221.481 223.609 233.268 193.596 232.467 180.017C232.141 174.355 219.389 177.311 219.389 177.311Z" fill="#DDB762"/>
<path d="M213.953 105.723L226.154 107.201C229.736 107.464 232.292 110.783 231.628 114.316L224.563 152.058L198.871 149.904L213.953 105.723Z" fill="url(#paint25_linear_411_1051)"/>
<path d="M216.52 108.378L222.896 108.854C226.479 109.117 229.034 112.437 228.37 115.969L221.305 153.712L195.613 151.557L216.52 108.378Z" fill="url(#paint26_linear_411_1051)"/>
<path d="M175.019 222.92L177.574 230.311C177.574 230.311 170.033 233.931 168.543 232.904C167.052 231.877 168.543 230.624 168.543 230.624L167.879 224.186L175.019 222.92Z" fill="#FFB782"/>
<path d="M185.756 202.853L188.273 207.839C188.273 207.839 186.031 214.114 183.225 214.44C180.419 214.766 179.229 208.152 179.041 207.839C178.841 207.525 185.756 202.853 185.756 202.853Z" fill="#FFB782"/>
<path d="M187.057 207.601C187.057 207.601 185.316 212.085 183.024 212.273C180.732 212.461 178.815 211.534 179.078 213.926C179.354 216.306 177.976 217.86 176.61 219.325C175.232 220.791 173.128 221.718 176.61 221.981C180.093 222.257 181.746 222.069 184.402 218.774C187.057 215.48 193.02 211.634 191.454 209.342C189.901 207.049 188.523 205.947 187.057 207.601Z" fill="#2A3645"/>
<path d="M167.229 147.736C167.229 147.736 141.073 162.58 141.549 167.328C142.025 172.075 166.414 226.077 166.414 226.077C166.414 226.077 166.728 227.655 171.162 226.077C175.596 224.499 176.862 223.697 176.862 223.697L167.868 199.533L178.44 209.755C178.44 209.755 181.283 210.231 183.263 208.177C185.242 206.122 186.357 203.905 186.357 203.905L173.166 183.625C173.166 183.625 175.271 178.251 178.603 176.66C181.922 175.082 208.779 160.3 208.491 150.668C208.215 141.035 175.434 144.041 173.367 143.728C171.325 143.415 167.229 147.736 167.229 147.736Z" fill="url(#paint27_linear_411_1051)"/>
<path d="M197.429 84.2397C197.429 84.2397 186.569 82.5486 181.22 85.079C175.871 87.6093 172.226 110.207 172.639 120.779C173.065 131.352 178.765 146.146 178.765 146.146C178.765 146.146 183.337 149.102 191.655 146.146C199.972 143.189 205.747 94.4363 205.747 94.4363L197.429 84.2397Z" fill="url(#paint28_linear_411_1051)"/>
<path d="M196.453 79.3793L197.43 84.2396C197.43 84.2396 195.225 88.3232 188.548 88.4485C181.872 88.5738 182.26 85.1791 182.26 85.1791L183.237 82.2855L196.453 79.3793Z" fill="url(#paint29_linear_411_1051)"/>
<path d="M197.43 84.2397C197.43 84.2397 213.263 87.5091 215.982 93.4592C218.7 99.4093 214.416 128.771 212.85 131.377C211.284 133.982 209.092 133.982 209.092 133.982L211.184 149.553C211.184 149.553 203.981 151.745 198.232 150.705C192.482 149.666 189.851 149.678 189.851 149.678L191.755 126.166L184.916 121.907C184.916 121.907 185.668 120.241 186.845 117.209C188.023 114.178 187.922 113.339 187.922 113.339L192.795 116.245C192.795 116.245 193.422 99.1086 195.714 93.0583C198.006 86.983 197.43 84.2397 197.43 84.2397Z" fill="#2A4767"/>
<path d="M180.82 87.246C180.82 87.246 177.726 95.977 177.751 108.053C177.776 120.128 178.841 147.987 178.841 147.987C178.841 147.987 176.211 147.987 172.941 147.987C169.672 147.987 167.68 146.283 167.68 146.283L168.532 127.957C168.532 127.957 166.54 129.097 163.559 128.095C160.577 127.105 148.502 117.623 148.502 117.623C148.502 117.623 151.771 115.882 152.623 113.326C153.475 110.771 153.049 109.919 153.049 109.919C153.049 109.919 165.275 118.45 166.828 116.596C168.394 114.754 167.116 91.7556 171.513 88.4736C175.922 85.1917 181.459 84.2522 181.459 84.2522L180.82 87.246Z" fill="#2A4767"/>
<path d="M177.765 66.0387C177.765 66.0387 176.474 69.8593 176.825 70.9616C177.176 72.0639 177.627 72.6401 177.364 73.7174C177.101 74.7947 175.911 75.4085 177.84 80.1435C179.769 84.8785 178.754 87.4089 184.98 86.8577C191.206 86.294 196.442 79.9681 197.318 78.8533C198.195 77.7384 198.859 68.9198 194.037 66.1514C189.214 63.3705 177.765 66.0387 177.765 66.0387Z" fill="#FFB782"/>
<path d="M174.996 58.6605C174.996 58.6605 173.104 64.548 178.177 67.1785C183.238 69.8091 186.395 66.903 186.395 66.903C186.395 66.903 184.253 70.1849 186.157 71.4626C188.061 72.7403 187.159 78.0014 188.975 77.8135C189.764 77.7384 189.263 72.3394 191.556 72.2142C193.848 72.1014 194.637 74.9825 193.359 76.9617C192.069 78.9409 191.718 82.7114 193.572 82.6487C195.426 82.5861 200.524 80.0933 202.454 74.9199C204.383 69.7339 200.111 65.5 200.111 65.5C200.111 65.5 202.291 58.5979 194.286 57.7837C186.269 56.9694 179.255 59.9883 174.996 58.6605Z" fill="url(#paint30_linear_411_1051)"/>
<path d="M189.426 76.8992C189.426 76.8992 188.662 81.058 189.364 82.8367C189.915 84.2397 191.005 85.0539 188.8 85.8306C186.595 86.5947 182.662 88.3734 180.871 86.9454C179.079 85.5174 178.403 81.6843 178.403 81.6843C178.403 81.6843 177.852 80.9327 178.14 80.9327C178.441 80.9202 182.412 81.2584 183.89 81.8471C185.405 82.4484 186.307 82.511 186.683 80.4567C187.059 78.3898 187.698 75.5087 187.698 75.5087L189.426 76.8992Z" fill="url(#paint31_linear_411_1051)"/>
<path d="M187.91 114.266C187.91 114.266 185.53 110.245 184.014 109.343C182.486 108.441 181.321 107.539 181.321 107.539C181.321 107.539 179.931 108.303 181.797 109.693C183.664 111.084 179.743 109.831 178.453 109.343C177.162 108.854 172.302 109.881 170.26 110.382C168.219 110.871 167.73 111.71 171.964 111.497C176.198 111.284 176.336 111.422 176.336 111.422C176.336 111.422 175.133 118.149 179.242 119.251C183.338 120.366 185.555 120.98 185.555 120.98C185.555 120.98 187.998 115.994 187.91 114.266Z" fill="#FFB782"/>
<path d="M217.083 151.444H80.482C77.4381 151.444 75.8221 153.849 77.8639 155.352L106.913 180.593C109.055 182.184 112.124 183.099 115.331 183.099H250.116C253.823 183.099 255.903 180.243 253.598 178.314L224.649 153.887C222.833 152.346 220.04 151.444 217.083 151.444Z" fill="url(#paint32_linear_411_1051)"/>
<path d="M217.083 149.59H80.482C77.4381 149.59 75.8221 151.995 77.8639 153.499L106.913 178.739C109.055 180.33 112.124 181.245 115.331 181.245H250.116C253.823 181.245 255.903 178.389 253.598 176.46L224.649 152.033C222.833 150.492 220.04 149.59 217.083 149.59Z" fill="url(#paint33_linear_411_1051)"/>
<path d="M177.762 227.117C177.762 227.117 173.704 231.363 171.712 230.912C169.72 230.461 166.288 227.781 166.025 228.67C165.749 229.559 165.574 231.188 161.515 233.167C157.457 235.159 157.269 236.424 159.436 237.677C161.603 238.942 162.693 239.117 166.576 237.677C170.459 236.236 178.952 233.167 179.04 231.626C179.115 230.098 177.762 227.117 177.762 227.117Z" fill="#2A3645"/>
<path d="M112.213 131.465H143.617C144.018 131.465 144.343 131.139 144.343 130.738V86.0185C144.343 85.6176 144.018 85.2919 143.617 85.2919H112.213C111.812 85.2919 111.486 85.6176 111.486 86.0185V130.738C111.486 131.139 111.812 131.465 112.213 131.465Z" fill="url(#paint34_linear_411_1051)"/>
<path d="M142.275 129.36V87.3963C142.275 87.3838 142.263 87.3713 142.25 87.3713H113.589C113.577 87.3713 113.564 87.3838 113.564 87.3963V129.373C113.564 129.385 113.577 129.398 113.589 129.398H142.25C142.263 129.398 142.275 129.385 142.275 129.36Z" fill="white"/>
<path d="M134.935 102.679C133.582 105.284 130.864 107.063 127.732 107.063C123.248 107.063 119.615 103.43 119.615 98.9457C119.615 94.4612 123.248 90.8286 127.732 90.8286C130.213 90.8286 132.417 91.9309 133.908 93.6846L127.732 98.9457L134.935 102.679Z" fill="#2A4767"/>
<path d="M137.917 98.4823C137.917 99.2714 137.591 100.011 137.015 100.662L129.812 98.4823L135.988 95.4008C137.178 96.2275 137.917 97.3048 137.917 98.4823Z" fill="#DDB762"/>
<path d="M140.521 110.758H121.117C120.879 110.758 120.691 110.57 120.691 110.332V110.307C120.691 110.069 120.879 109.881 121.117 109.881H140.521C140.759 109.881 140.947 110.069 140.947 110.307V110.332C140.947 110.57 140.759 110.758 140.521 110.758Z" fill="#E9EBEC"/>
<path d="M140.509 112.988H116.733C116.495 112.988 116.295 112.787 116.295 112.549C116.295 112.311 116.495 112.111 116.733 112.111H140.509C140.747 112.111 140.947 112.311 140.947 112.549C140.947 112.787 140.747 112.988 140.509 112.988Z" fill="#E9EBEC"/>
<path d="M140.509 115.205H116.733C116.495 115.205 116.295 115.005 116.295 114.767C116.295 114.529 116.495 114.328 116.733 114.328H140.509C140.747 114.328 140.947 114.529 140.947 114.767C140.947 115.017 140.747 115.205 140.509 115.205Z" fill="#E9EBEC"/>
<path d="M136.989 117.435H116.733C116.495 117.435 116.295 117.234 116.295 116.996V116.984C116.295 116.746 116.495 116.545 116.733 116.545H136.989C137.227 116.545 137.427 116.746 137.427 116.984V116.996C137.415 117.234 137.227 117.435 136.989 117.435Z" fill="#E9EBEC"/>
<path d="M140.521 121.155H121.117C120.879 121.155 120.691 120.967 120.691 120.729V120.704C120.691 120.466 120.879 120.278 121.117 120.278H140.521C140.759 120.278 140.947 120.466 140.947 120.704V120.729C140.947 120.967 140.759 121.155 140.521 121.155Z" fill="#E9EBEC"/>
<path d="M140.509 123.385H116.733C116.495 123.385 116.295 123.184 116.295 122.946C116.295 122.708 116.495 122.508 116.733 122.508H140.509C140.747 122.508 140.947 122.708 140.947 122.946C140.947 123.184 140.747 123.385 140.509 123.385Z" fill="#E9EBEC"/>
<path d="M140.509 125.615H116.733C116.495 125.615 116.295 125.414 116.295 125.176C116.295 124.938 116.495 124.738 116.733 124.738H140.509C140.747 124.738 140.947 124.938 140.947 125.176C140.947 125.414 140.747 125.615 140.509 125.615Z" fill="#E9EBEC"/>
<path d="M136.989 127.844H116.733C116.495 127.844 116.295 127.644 116.295 127.406V127.393C116.295 127.155 116.495 126.955 116.733 126.955H136.989C137.227 126.955 137.427 127.155 137.427 127.393V127.406C137.415 127.644 137.227 127.844 136.989 127.844Z" fill="#E9EBEC"/>
<path d="M221.342 150.004C221.342 150.004 224.06 151.57 224.173 153.461C224.273 155.353 224.273 155.353 224.273 155.353C224.273 155.353 244.704 155.49 245.38 155.052C245.618 144.968 245.568 130.325 246.745 128.07C246.871 127.819 247.146 127.569 247.522 127.331C247.347 125.865 247.109 124.838 246.745 124.487C246.745 124.487 245.017 125.076 244.691 130.738C244.378 136.387 244.691 145.92 243.326 146.559C241.985 147.173 221.342 150.004 221.342 150.004Z" fill="#DDB762"/>
<path d="M149.278 117.147C147.299 118.099 144.343 115.13 144.343 115.13L143.804 106.148C143.804 106.148 142.314 105.61 139.821 104.658C137.316 103.706 138.03 101.388 138.03 101.388C138.03 101.388 138.33 101.564 141.249 102.403C144.168 103.242 146.548 102.528 148.502 105.622C150.468 108.716 153.086 111.51 153.086 111.51C153.086 111.51 153.375 115.168 149.278 117.147Z" fill="#FFB782"/>
<path d="M156.632 140.045L154.139 166.902L153.287 167.315L114.881 153.473L117.361 127.08C117.461 126.078 118.451 125.427 119.403 125.727L154.615 137.001C155.918 137.427 156.757 138.692 156.632 140.045Z" fill="url(#paint35_linear_411_1051)"/>
<path d="M155.766 140.471L153.274 167.328L114.016 153.887L116.508 127.493C116.609 126.491 117.598 125.84 118.55 126.141L153.762 137.414C155.065 137.84 155.904 139.106 155.766 140.471Z" fill="url(#paint36_linear_411_1051)"/>
<path d="M153.711 140.271C153.749 139.87 153.511 139.506 153.123 139.381L118.487 128.295L116.207 152.459L151.444 164.522L153.711 140.271Z" fill="#2A4767"/>
<path d="M114.017 154.676L98.7219 167.516C97.8325 168.267 98.0955 169.708 99.1979 170.084L135.111 182.422C135.637 182.598 136.214 182.497 136.627 182.134L153.275 168.155V167.328L114.017 154.676Z" fill="url(#paint37_linear_411_1051)"/>
<path d="M114.017 153.837L98.7219 166.689C97.8325 167.441 98.0955 168.881 99.1979 169.257L135.111 181.596C135.637 181.771 136.214 181.671 136.627 181.307L153.275 167.328L114.017 153.837Z" fill="url(#paint38_linear_411_1051)"/>
<path d="M144.006 166.2L143.054 167.002C142.979 167.065 143.004 167.177 143.092 167.203L145.985 168.192C146.023 168.205 146.073 168.192 146.111 168.167L147.201 167.253C147.313 167.165 147.276 166.977 147.138 166.939L144.633 166.075C144.407 166.012 144.182 166.05 144.006 166.2Z" fill="url(#paint39_linear_411_1051)"/>
<path d="M140.247 164.923L139.295 165.724C139.219 165.787 139.244 165.9 139.332 165.925L142.226 166.914C142.263 166.927 142.313 166.914 142.351 166.889L143.441 165.975C143.554 165.887 143.516 165.699 143.378 165.662L140.873 164.797C140.647 164.735 140.422 164.772 140.247 164.923Z" fill="url(#paint40_linear_411_1051)"/>
<path d="M136.489 163.645L135.537 164.447C135.462 164.509 135.487 164.622 135.574 164.647L138.468 165.637C138.505 165.649 138.556 165.637 138.593 165.612L139.683 164.697C139.796 164.61 139.758 164.422 139.62 164.384L137.115 163.52C136.89 163.457 136.664 163.507 136.489 163.645Z" fill="url(#paint41_linear_411_1051)"/>
<path d="M132.731 162.367L131.779 163.169C131.704 163.232 131.729 163.344 131.816 163.369L134.71 164.359C134.748 164.371 134.798 164.359 134.835 164.334L135.925 163.419C136.038 163.332 136 163.144 135.863 163.106L133.357 162.242C133.132 162.179 132.906 162.229 132.731 162.367Z" fill="url(#paint42_linear_411_1051)"/>
<path d="M128.973 161.09L128.021 161.891C127.946 161.954 127.971 162.067 128.059 162.092L130.952 163.081C130.99 163.094 131.04 163.081 131.078 163.056L132.167 162.142C132.28 162.054 132.242 161.866 132.105 161.829L129.599 160.964C129.374 160.914 129.148 160.952 128.973 161.09Z" fill="url(#paint43_linear_411_1051)"/>
<path d="M125.215 159.824L124.263 160.626C124.188 160.689 124.213 160.802 124.301 160.827L127.194 161.816C127.232 161.829 127.282 161.816 127.32 161.791L128.41 160.877C128.522 160.789 128.485 160.601 128.347 160.564L125.842 159.699C125.616 159.637 125.391 159.674 125.215 159.824Z" fill="url(#paint44_linear_411_1051)"/>
<path d="M121.457 158.547L120.505 159.348C120.43 159.411 120.455 159.524 120.543 159.549L123.437 160.538C123.474 160.551 123.524 160.538 123.562 160.513L124.652 159.599C124.764 159.511 124.727 159.323 124.589 159.286L122.084 158.421C121.858 158.359 121.633 158.396 121.457 158.547Z" fill="url(#paint45_linear_411_1051)"/>
<path d="M117.7 157.269L116.748 158.071C116.672 158.133 116.698 158.246 116.785 158.271L119.679 159.261C119.716 159.273 119.767 159.261 119.804 159.236L120.894 158.321C121.007 158.234 120.969 158.046 120.831 158.008L118.326 157.144C118.1 157.081 117.875 157.119 117.7 157.269Z" fill="url(#paint46_linear_411_1051)"/>
<path d="M113.942 155.991L112.99 156.793C112.915 156.856 112.94 156.968 113.027 156.993L115.921 157.983C115.959 157.996 116.009 157.983 116.046 157.958L117.136 157.044C117.249 156.956 117.211 156.768 117.073 156.73L114.568 155.866C114.343 155.803 114.117 155.854 113.942 155.991Z" fill="url(#paint47_linear_411_1051)"/>
<path d="M142.377 167.666L141.425 168.468C141.35 168.53 141.375 168.643 141.463 168.668L144.357 169.658C144.394 169.67 144.444 169.658 144.482 169.633L145.572 168.718C145.684 168.631 145.647 168.443 145.509 168.405L143.004 167.541C142.778 167.478 142.54 167.528 142.377 167.666Z" fill="url(#paint48_linear_411_1051)"/>
<path d="M138.618 166.388L137.666 167.19C137.59 167.253 137.615 167.365 137.703 167.39L140.597 168.38C140.634 168.393 140.684 168.38 140.722 168.355L141.812 167.441C141.925 167.353 141.887 167.165 141.749 167.127L139.244 166.263C139.018 166.213 138.78 166.251 138.618 166.388Z" fill="url(#paint49_linear_411_1051)"/>
<path d="M134.86 165.123L133.908 165.925C133.833 165.987 133.858 166.1 133.945 166.125L136.839 167.115C136.877 167.127 136.927 167.115 136.964 167.09L138.054 166.175C138.167 166.088 138.129 165.9 137.991 165.862L135.486 164.998C135.261 164.935 135.023 164.973 134.86 165.123Z" fill="url(#paint50_linear_411_1051)"/>
<path d="M131.102 163.845L130.15 164.647C130.075 164.71 130.1 164.822 130.188 164.848L133.081 165.837C133.119 165.85 133.169 165.837 133.206 165.812L134.296 164.898C134.409 164.81 134.371 164.622 134.234 164.584L131.728 163.72C131.503 163.658 131.265 163.695 131.102 163.845Z" fill="url(#paint51_linear_411_1051)"/>
<path d="M127.344 162.568L126.392 163.369C126.317 163.432 126.342 163.545 126.43 163.57L129.323 164.559C129.361 164.572 129.411 164.559 129.449 164.534L130.538 163.62C130.651 163.532 130.614 163.344 130.476 163.307L127.97 162.442C127.745 162.38 127.507 162.43 127.344 162.568Z" fill="url(#paint52_linear_411_1051)"/>
<path d="M123.586 161.29L122.634 162.092C122.559 162.154 122.584 162.267 122.672 162.292L125.566 163.282C125.603 163.294 125.653 163.282 125.691 163.257L126.781 162.342C126.893 162.255 126.856 162.067 126.718 162.029L124.213 161.165C123.987 161.102 123.749 161.152 123.586 161.29Z" fill="url(#paint53_linear_411_1051)"/>
<path d="M119.829 160.012L118.877 160.814C118.801 160.877 118.826 160.989 118.914 161.014L121.808 162.004C121.845 162.017 121.895 162.004 121.933 161.979L123.023 161.065C123.136 160.977 123.098 160.789 122.96 160.751L120.455 159.887C120.229 159.824 119.991 159.875 119.829 160.012Z" fill="url(#paint54_linear_411_1051)"/>
<path d="M116.071 158.735L115.119 159.536C115.044 159.599 115.069 159.712 115.156 159.737L118.05 160.726C118.088 160.739 118.138 160.726 118.175 160.701L119.265 159.787C119.378 159.699 119.34 159.511 119.202 159.474L116.697 158.609C116.472 158.559 116.234 158.597 116.071 158.735Z" fill="url(#paint55_linear_411_1051)"/>
<path d="M112.313 157.469L111.361 158.271C111.286 158.334 111.311 158.447 111.398 158.472L114.292 159.461C114.33 159.474 114.38 159.461 114.417 159.436L115.507 158.522C115.62 158.434 115.582 158.246 115.445 158.209L112.939 157.344C112.714 157.282 112.476 157.319 112.313 157.469Z" fill="url(#paint56_linear_411_1051)"/>
<path d="M140.737 169.144L139.785 169.946C139.71 170.009 139.735 170.121 139.822 170.146L142.716 171.136C142.754 171.148 142.804 171.136 142.841 171.111L143.931 170.196C144.044 170.109 144.006 169.921 143.868 169.883L141.363 169.019C141.138 168.956 140.912 168.994 140.737 169.144Z" fill="url(#paint57_linear_411_1051)"/>
<path d="M136.979 167.867L136.027 168.668C135.952 168.731 135.977 168.844 136.064 168.869L138.958 169.858C138.996 169.871 139.046 169.858 139.083 169.833L140.173 168.919C140.286 168.831 140.248 168.643 140.111 168.606L137.605 167.741C137.38 167.679 137.154 167.729 136.979 167.867Z" fill="url(#paint58_linear_411_1051)"/>
<path d="M133.219 166.589L132.267 167.391C132.192 167.453 132.217 167.566 132.305 167.591L135.198 168.581C135.236 168.593 135.286 168.581 135.324 168.556L136.413 167.641C136.526 167.553 136.489 167.366 136.351 167.328L133.845 166.464C133.62 166.401 133.395 166.451 133.219 166.589Z" fill="url(#paint59_linear_411_1051)"/>
<path d="M129.461 165.311L128.509 166.113C128.434 166.175 128.459 166.288 128.547 166.313L131.441 167.303C131.478 167.315 131.528 167.303 131.566 167.278L132.656 166.363C132.768 166.276 132.731 166.088 132.593 166.05L130.088 165.186C129.862 165.123 129.637 165.173 129.461 165.311Z" fill="url(#paint60_linear_411_1051)"/>
<path d="M125.704 164.033L124.752 164.835C124.676 164.898 124.701 165.01 124.789 165.036L127.683 166.025C127.72 166.038 127.77 166.025 127.808 166L128.898 165.086C129.011 164.998 128.973 164.81 128.835 164.772L126.33 163.908C126.104 163.858 125.879 163.896 125.704 164.033Z" fill="url(#paint61_linear_411_1051)"/>
<path d="M121.946 162.768L120.994 163.57C120.919 163.633 120.944 163.745 121.031 163.77L123.925 164.76C123.962 164.773 124.013 164.76 124.05 164.735L125.14 163.82C125.253 163.733 125.215 163.545 125.077 163.507L122.572 162.643C122.347 162.58 122.121 162.618 121.946 162.768Z" fill="url(#paint62_linear_411_1051)"/>
<path d="M118.188 161.491L117.236 162.292C117.161 162.355 117.186 162.468 117.273 162.493L120.167 163.482C120.205 163.495 120.255 163.482 120.292 163.457L121.382 162.543C121.495 162.455 121.457 162.267 121.32 162.23L118.814 161.365C118.589 161.303 118.363 161.34 118.188 161.491Z" fill="url(#paint63_linear_411_1051)"/>
<path d="M114.43 160.213L113.478 161.015C113.403 161.077 113.428 161.19 113.516 161.215L116.409 162.205C116.447 162.217 116.497 162.205 116.535 162.18L117.624 161.265C117.737 161.177 117.7 160.989 117.562 160.952L115.056 160.088C114.831 160.025 114.605 160.075 114.43 160.213Z" fill="url(#paint64_linear_411_1051)"/>
<path d="M110.672 158.935L109.72 159.737C109.645 159.799 109.67 159.912 109.758 159.937L112.651 160.927C112.689 160.939 112.739 160.927 112.777 160.902L113.867 159.987C113.979 159.9 113.942 159.712 113.804 159.674L111.299 158.81C111.073 158.747 110.848 158.797 110.672 158.935Z" fill="url(#paint65_linear_411_1051)"/>
<path d="M139.108 170.61L138.156 171.412C138.081 171.474 138.106 171.587 138.193 171.612L141.087 172.602C141.125 172.614 141.175 172.602 141.212 172.577L142.302 171.662C142.415 171.574 142.377 171.387 142.239 171.349L139.734 170.485C139.509 170.435 139.271 170.472 139.108 170.61Z" fill="url(#paint66_linear_411_1051)"/>
<path d="M135.348 169.332L134.396 170.134C134.321 170.197 134.346 170.309 134.434 170.334L137.327 171.324C137.365 171.336 137.415 171.324 137.453 171.299L138.542 170.384C138.655 170.297 138.617 170.109 138.48 170.071L135.974 169.207C135.749 169.157 135.511 169.194 135.348 169.332Z" fill="url(#paint67_linear_411_1051)"/>
<path d="M131.59 168.067L130.638 168.869C130.563 168.931 130.588 169.044 130.676 169.069L133.569 170.059C133.607 170.071 133.657 170.059 133.695 170.034L134.785 169.119C134.897 169.031 134.86 168.844 134.722 168.806L132.217 167.942C131.991 167.879 131.753 167.917 131.59 168.067Z" fill="url(#paint68_linear_411_1051)"/>
<path d="M127.832 166.789L126.88 167.591C126.805 167.654 126.83 167.766 126.918 167.791L129.812 168.781C129.849 168.794 129.899 168.781 129.937 168.756L131.027 167.841C131.139 167.754 131.102 167.566 130.964 167.528L128.459 166.664C128.233 166.601 127.995 166.639 127.832 166.789Z" fill="url(#paint69_linear_411_1051)"/>
<path d="M124.075 165.512L123.123 166.313C123.047 166.376 123.073 166.489 123.16 166.514L126.054 167.503C126.091 167.516 126.142 167.503 126.179 167.478L127.269 166.564C127.382 166.476 127.344 166.288 127.206 166.251L124.701 165.386C124.475 165.324 124.237 165.374 124.075 165.512Z" fill="url(#paint70_linear_411_1051)"/>
<path d="M120.317 164.234L119.365 165.036C119.29 165.098 119.315 165.211 119.402 165.236L122.296 166.226C122.334 166.238 122.384 166.226 122.421 166.201L123.511 165.286C123.624 165.198 123.586 165.011 123.448 164.973L120.943 164.109C120.718 164.046 120.48 164.096 120.317 164.234Z" fill="url(#paint71_linear_411_1051)"/>
<path d="M116.559 162.956L115.607 163.758C115.532 163.82 115.557 163.933 115.645 163.958L118.538 164.948C118.576 164.96 118.626 164.948 118.663 164.923L119.753 164.008C119.866 163.921 119.828 163.733 119.691 163.695L117.185 162.831C116.96 162.781 116.722 162.818 116.559 162.956Z" fill="url(#paint72_linear_411_1051)"/>
<path d="M112.801 161.691L111.849 162.493C111.774 162.555 111.799 162.668 111.887 162.693L114.78 163.683C114.818 163.695 114.868 163.683 114.906 163.658L115.995 162.743C116.108 162.656 116.071 162.468 115.933 162.43L113.428 161.566C113.202 161.503 112.964 161.541 112.801 161.691Z" fill="url(#paint73_linear_411_1051)"/>
<path d="M109.043 160.413L108.091 161.215C108.016 161.278 108.041 161.39 108.129 161.415L111.023 162.405C111.06 162.417 111.11 162.405 111.148 162.38L112.238 161.465C112.35 161.378 112.313 161.19 112.175 161.152L109.67 160.288C109.444 160.225 109.206 160.263 109.043 160.413Z" fill="url(#paint74_linear_411_1051)"/>
<path d="M137.467 172.088L136.515 172.89C136.44 172.952 136.465 173.065 136.553 173.09L139.446 174.08C139.484 174.092 139.534 174.08 139.572 174.055L140.661 173.14C140.774 173.052 140.737 172.865 140.599 172.827L138.094 171.963C137.868 171.9 137.643 171.95 137.467 172.088Z" fill="url(#paint75_linear_411_1051)"/>
<path d="M133.707 170.81L132.755 171.612C132.68 171.675 132.705 171.787 132.793 171.812L135.687 172.802C135.724 172.814 135.774 172.802 135.812 172.777L136.902 171.862C137.014 171.775 136.977 171.587 136.839 171.549L134.334 170.685C134.108 170.622 133.883 170.672 133.707 170.81Z" fill="url(#paint76_linear_411_1051)"/>
<path d="M129.95 169.532L128.998 170.334C128.922 170.397 128.948 170.51 129.035 170.535L131.929 171.524C131.966 171.537 132.017 171.524 132.054 171.499L133.144 170.585C133.257 170.497 133.219 170.309 133.081 170.272L130.576 169.407C130.35 169.345 130.125 169.395 129.95 169.532Z" fill="url(#paint77_linear_411_1051)"/>
<path d="M126.192 168.255L125.24 169.056C125.165 169.119 125.19 169.232 125.277 169.257L128.171 170.246C128.209 170.259 128.259 170.246 128.296 170.221L129.386 169.307C129.499 169.219 129.461 169.031 129.323 168.994L126.818 168.129C126.593 168.079 126.367 168.117 126.192 168.255Z" fill="url(#paint78_linear_411_1051)"/>
<path d="M122.434 166.99L121.482 167.791C121.407 167.854 121.432 167.967 121.52 167.992L124.413 168.981C124.451 168.994 124.501 168.981 124.538 168.956L125.628 168.042C125.741 167.954 125.703 167.766 125.566 167.729L123.06 166.864C122.835 166.802 122.609 166.839 122.434 166.99Z" fill="url(#paint79_linear_411_1051)"/>
<path d="M118.676 165.712L117.724 166.514C117.649 166.576 117.674 166.689 117.762 166.714L120.655 167.704C120.693 167.716 120.743 167.704 120.781 167.679L121.87 166.764C121.983 166.676 121.946 166.489 121.808 166.451L119.303 165.587C119.077 165.524 118.852 165.562 118.676 165.712Z" fill="url(#paint80_linear_411_1051)"/>
<path d="M114.918 164.434L113.966 165.236C113.891 165.298 113.916 165.411 114.004 165.436L116.898 166.426C116.935 166.438 116.985 166.426 117.023 166.401L118.113 165.486C118.225 165.399 118.188 165.211 118.05 165.173L115.545 164.309C115.319 164.246 115.094 164.296 114.918 164.434Z" fill="url(#paint81_linear_411_1051)"/>
<path d="M111.161 163.156L110.209 163.958C110.133 164.021 110.158 164.134 110.246 164.159L113.14 165.148C113.177 165.161 113.227 165.148 113.265 165.123L114.355 164.209C114.468 164.121 114.43 163.933 114.292 163.896L111.787 163.031C111.561 162.969 111.336 163.019 111.161 163.156Z" fill="url(#paint82_linear_411_1051)"/>
<path d="M107.403 161.879L106.451 162.68C106.376 162.743 106.401 162.856 106.488 162.881L109.382 163.871C109.42 163.883 109.47 163.87 109.507 163.845L110.597 162.931C110.71 162.843 110.672 162.655 110.534 162.618L108.029 161.754C107.804 161.691 107.578 161.741 107.403 161.879Z" fill="url(#paint83_linear_411_1051)"/>
<path d="M113.165 257.13C113.165 257.13 113.29 261.715 111.223 262.391C109.156 263.08 103.181 260.675 103.319 259.761C103.469 258.834 103.995 254.826 103.995 254.826L113.165 257.13Z" fill="#FFB782"/>
<path d="M103.482 258.846C103.482 258.846 105.837 261.79 109.858 261.151C113.879 260.512 112.651 258.032 113.177 257.13C113.703 256.228 114.944 257.531 117.712 257.619C120.48 257.707 120.731 258.583 123.086 259.373C125.441 260.162 126.743 261.264 122.76 262.429C118.777 263.594 111.148 266.939 108.705 266.362C106.25 265.774 102.505 262.918 102.505 262.918C102.505 262.918 101.377 258.483 103.482 258.846Z" fill="#2A3645"/>
<path d="M117.636 222.069L113.603 256.604C113.603 256.604 111.26 260.062 107.528 258.408C103.782 256.767 103.344 256.078 103.344 256.078L104.045 219.476L117.636 222.069Z" fill="#19222B"/>
<path d="M119.728 228.507L107.365 224.987L83.3262 232.679L88.5497 239.18L119.728 228.507Z" fill="url(#paint84_linear_411_1051)"/>
<path d="M135.624 266.488C135.624 266.488 137.165 269.306 137.102 269.932C137.039 270.571 130.475 273.853 128.734 273.778C126.993 273.703 125.991 272.776 125.653 272.3C125.314 271.836 125.314 266.475 125.314 266.475H135.624V266.488Z" fill="#FFB782"/>
<path d="M88.1859 124.124C88.1859 124.124 88.6744 127.819 87.6222 129.398C86.57 130.976 86.7579 133.068 86.7454 134.158C86.7328 135.248 87.6347 135.523 85.9437 139.882C84.2526 144.229 84.3653 146.559 82.9624 146.409C81.5594 146.258 78.9915 145.357 78.8286 145.97C78.6783 146.572 78.6908 147.286 78.6908 147.286C78.6908 147.286 67.5047 146.446 67.179 145.344C66.8533 144.242 67.4921 139.156 67.4295 136.4C67.3669 133.644 70.248 120.892 76.0853 121.068C81.9227 121.23 88.1859 124.124 88.1859 124.124Z" fill="#FFB782"/>
<path d="M91.3806 122.621C90.5413 124.75 87.2719 124.55 86.5203 127.03C85.7813 129.498 85.3679 133.281 84.8793 133.394C84.3908 133.506 84.7666 129.285 83.1507 129.485C81.5348 129.686 82.4367 140.622 80.2821 142.137C78.1276 143.665 68.2066 142.839 66.8287 141.411C65.4508 139.983 58.5362 133.106 60.4151 126.705C62.2941 120.291 65.6512 118.738 65.6512 118.738C65.6512 118.738 66.2274 113.376 71.8518 112.951C77.4762 112.512 85.2301 117.448 88.9129 117.673C92.6082 117.886 91.7814 121.606 91.3806 122.621Z" fill="url(#paint85_linear_411_1051)"/>
<path d="M59.7275 215.768C59.7275 215.768 57.2097 225.864 61.4186 227.681C65.6275 229.497 73.3939 228.658 77.1018 229.998C80.8096 231.351 88.2253 233.706 94.6389 231.689C101.04 229.66 119.567 224.925 119.567 224.925L123.976 267.941C123.976 267.941 126.995 271.147 131.467 269.456C135.939 267.765 136.289 266.425 136.289 266.425C136.289 266.425 135.55 202.527 128.586 201.851C121.621 201.175 118.74 202.415 118.74 202.415C118.74 202.415 119.604 194.936 108.982 197.63C98.3592 200.323 75.9744 205.346 75.9744 205.346L59.7275 215.768Z" fill="url(#paint86_linear_411_1051)"/>
<path d="M78.5171 146.446C78.5171 146.446 78.6799 147.674 80.6341 148.162C82.5757 148.651 93.7618 150.455 95.4779 153.023C97.1941 155.603 105.674 182.635 107.503 182.823C109.332 183.024 126.694 174.343 126.694 174.343C126.694 174.343 129.425 174.719 130.59 176.685C131.767 178.652 131.504 181.082 131.504 181.082C131.504 181.082 111.061 195.387 104.635 193.759C98.1962 192.13 94.075 186.155 94.075 186.155L93.8244 204.394C93.8119 205.484 93.4737 206.548 92.8223 207.438C90.5175 210.644 84.0538 217.847 72.8426 217.371C58.4622 216.757 54.7919 207.137 54.7919 207.137L54.1531 184.364C54.1531 184.364 50.1195 184.665 49.844 180.168C49.5558 175.683 50.9212 149.991 54.4537 148.613C57.9862 147.235 63.3475 148.075 65.4269 146.521C67.5063 144.968 67.5063 144.968 67.5063 144.968L78.5171 146.446Z" fill="#DDB762"/>
<path d="M124.851 272.525C124.851 272.525 130.075 273.803 132.618 271.924C135.161 270.045 135.699 268.304 136.902 268.78C138.104 269.243 144.468 267.377 145.745 267.377C147.023 267.377 151.971 270.722 151.107 272.062C150.23 273.402 132.555 281.569 130.075 281.169C127.595 280.768 123.912 279.227 123.711 278.488C123.511 277.749 123.586 272.287 124.851 272.525Z" fill="#2A3645"/>
<path d="M88.8878 241.76L119.039 231.175L119.565 228.507L88.3867 239.18L88.8878 241.76Z" fill="url(#paint87_linear_411_1051)"/>
<path d="M91.5699 239.042L81.0727 193.859C80.4589 191.228 78.2793 189.262 75.6112 188.924L43.2552 184.79C41.0255 184.502 36.8292 188.247 37.3302 190.427L49.3807 230.374C49.8567 232.403 51.5353 233.919 53.5896 234.182L88.5635 240.42L91.5699 239.042Z" fill="url(#paint88_linear_411_1051)"/>
<path d="M88.8883 241.76L78.3911 196.577C77.7773 193.947 75.5977 191.98 72.9295 191.642L40.5736 187.508C38.3439 187.22 36.515 189.249 37.0286 191.441L46.7116 233.105C47.1876 235.134 48.8661 236.65 50.9205 236.913L88.8883 241.76Z" fill="url(#paint89_linear_411_1051)"/>
<path d="M128.496 174.919C128.496 174.919 128.158 173.228 129.774 172.075C131.39 170.923 132.204 170.247 132.204 170.247C132.204 170.247 133.419 170.885 132.492 171.837C131.565 172.802 130.663 174.18 131.678 173.842C132.68 173.503 133.632 170.873 135.824 170.635C138.029 170.384 143.19 170.823 142.689 172.714C142.188 174.606 138.217 173.341 137.315 175.483C136.413 177.625 136 178.702 134.997 178.978C133.995 179.241 131.578 180.33 131.578 180.33C131.578 180.33 130.939 175.846 128.496 174.919Z" fill="#FFB782"/>
<path d="M90.3544 241.021L87.4232 284.3H86.4336L88.4002 240.771L90.3544 241.021Z" fill="url(#paint90_linear_411_1051)"/>
<path d="M51.1325 235.384L48.1888 278.663H47.1992L49.1659 235.134L51.1325 235.384Z" fill="url(#paint91_linear_411_1051)"/>
<path opacity="0.2" d="M94.0737 186.155C94.0737 186.155 88.7624 176.234 87.7728 169.445C86.7832 162.656 87.397 161.503 87.397 161.503C87.397 161.503 85.1673 167.566 87.3845 175.583C89.6017 183.6 90.0652 194.736 90.2406 198.093C90.4159 201.438 90.4034 210.319 90.4034 210.319C90.4034 210.319 93.6478 208.102 93.748 205.233C93.8482 202.377 94.0737 186.155 94.0737 186.155Z" fill="#08131E"/>
<path opacity="0.2" d="M54.153 184.376L54.1279 161.992L52.3867 178.289L54.153 184.376Z" fill="#08131E"/>
<path opacity="0.3" d="M118.739 202.415L93.248 210.319L117.687 198.807C117.675 198.807 119.316 201.049 118.739 202.415Z" fill="#08131E"/>
<path d="M255.214 89.1501C255.214 89.1501 255.063 93.1836 259.598 95.3758C264.133 97.5679 265.222 98.8832 265.222 98.8832C265.222 98.8832 266.475 108.015 262.592 109.656C258.721 111.297 254.587 106.612 254.587 106.612C254.587 106.612 253.109 114.692 250.128 118.437C247.147 122.182 245.443 125.239 247.422 130.3C249.401 135.36 251.155 154.626 251.155 154.626C251.155 154.626 261.051 143.189 266.049 135.699C271.047 128.208 274.066 124.938 277.749 127.193C281.432 129.448 280.893 136.413 280.893 136.413C280.893 136.413 283.073 127.143 279.302 122.345C275.532 117.548 274.78 110.896 279.528 106.073C285.027 100.487 282.246 89.9769 276.233 86.3191C267.189 80.7949 258.383 83.3002 255.214 89.1501Z" fill="#2A4767"/>
<path d="M256.216 92.432C256.216 92.432 253.786 97.0919 253.811 98.2318C253.836 99.3717 254.187 102.954 254.324 104.758C254.462 106.562 254.111 108.979 255.201 109.493C256.303 110.007 260.588 111.209 263.544 109.481C266.513 107.764 265.924 100.061 265.523 98.8581C265.122 97.6681 258.671 95.0375 256.216 92.432Z" fill="#FFB782"/>
<path opacity="0.6" d="M171.512 183.099C171.512 183.099 164.372 186.168 164.134 185.817C163.896 185.466 157.457 183.099 157.457 183.099C157.457 183.099 163.319 188.635 164.484 191.329C165.662 194.022 167.879 199.546 167.879 199.546L171.524 201.876L166.727 186.894L171.512 183.099Z" fill="#08131E"/>
<path opacity="0.3" d="M208.503 96.7537C207.939 96.8288 206.361 99.5596 205.76 103.856C205.159 108.153 204.194 119.878 204.52 121.306C204.833 122.746 207.012 126.066 207.012 126.066C207.012 126.066 203.881 122.809 200.887 120.98C197.893 119.151 192.795 116.232 192.795 116.232L202.678 120.266C202.678 120.266 203.793 105.359 204.833 101.376C205.86 97.38 208.503 96.7537 208.503 96.7537Z" fill="#08131E"/>
<path opacity="0.3" d="M209.079 133.995L191.742 126.166C191.742 126.166 206.924 134.195 207.576 136.187C208.227 138.179 209.079 149.603 209.079 149.603L211.171 149.565L209.079 133.995Z" fill="#08131E"/>
<path opacity="0.3" d="M168.732 100.787L168.545 127.945L165.764 128.496L167.242 115.343L168.732 100.787Z" fill="#08131E"/>
<path d="M222.633 152.797L183.65 153.411L196.941 169.783H239.13L222.633 152.797Z" fill="white"/>
<path d="M272.702 128.446C276.046 127.393 278.952 132.304 276.685 141.285C274.418 150.267 268.418 168.242 265.987 169.219C263.557 170.196 231.652 166.99 231.652 166.99C231.652 166.99 234.233 165.186 234.884 163.069C235.536 160.952 234.884 159.586 234.884 159.586C234.884 159.586 257.895 163.006 259.348 160.852C260.801 158.685 265.699 130.65 272.702 128.446Z" fill="#DDB762"/>
<path d="M235.787 161.741C235.787 161.741 231.578 157.707 227.632 157.495C223.686 157.282 222.809 157.495 222.809 157.495C222.809 157.495 223.01 158.722 226.054 158.885C229.11 159.048 229.799 159.01 225.665 159.574C221.532 160.138 217.686 159.511 219.853 161.741C222.02 163.971 224.976 164.171 228.521 164.76C232.066 165.349 234.346 165.662 234.346 165.662C234.346 165.662 236.451 164.246 235.787 161.741Z" fill="#FFB782"/>
<path d="M250.116 183.099L251.356 243.539H250.116L247.436 183.099H250.116Z" fill="url(#paint92_linear_411_1051)"/>
<path opacity="0.4" d="M158.035 166.639C158.035 166.639 168.069 177.474 185.518 176.222C202.968 174.969 175.472 162.054 175.472 162.054L158.035 166.639Z" fill="url(#paint93_linear_411_1051)"/>
<path d="M179.993 165.299C179.993 165.249 179.981 165.199 179.968 165.148H179.993V163.896H179.392C177.801 161.766 173.304 160.213 168.168 160.213C163.032 160.213 158.886 161.766 157.771 163.896H157.471V165.048V165.161C157.471 165.211 157.471 165.261 157.483 165.311C157.796 168.13 163.095 170.41 169.308 170.41C175.534 170.397 180.319 168.117 179.993 165.299Z" fill="url(#paint94_linear_411_1051)"/>
<path d="M179.993 163.896C180.307 166.714 175.521 168.994 169.308 168.994C163.095 168.994 157.796 166.714 157.483 163.896C157.17 161.077 161.955 158.797 168.168 158.797C174.394 158.797 179.68 161.077 179.993 163.896Z" fill="url(#paint95_linear_411_1051)"/>
<path d="M176.875 163.896C177.101 165.925 173.656 167.579 169.159 167.579C164.675 167.579 160.854 165.925 160.616 163.896C160.39 161.867 163.835 160.213 168.332 160.213C172.829 160.213 176.65 161.854 176.875 163.896Z" fill="url(#paint96_linear_411_1051)"/>
<path opacity="0.53" d="M179.993 163.896C179.918 163.182 179.517 162.505 178.866 161.892C179.429 162.468 179.78 163.094 179.855 163.758C180.169 166.577 175.383 168.856 169.17 168.856C164.523 168.856 160.402 167.579 158.473 165.762C160.327 167.654 164.548 168.994 169.296 168.994C175.534 168.982 180.319 166.702 179.993 163.896Z" fill="white"/>
<path d="M178.929 162.881C178.929 162.831 178.917 162.793 178.904 162.743H178.929V161.603H178.391C176.95 159.674 172.879 158.271 168.232 158.271C163.584 158.271 159.839 159.674 158.824 161.603H158.549V162.643V162.743C158.549 162.793 158.549 162.831 158.561 162.881C158.849 165.424 163.635 167.491 169.259 167.491C174.883 167.491 179.218 165.437 178.929 162.881Z" fill="url(#paint97_linear_411_1051)"/>
<path d="M178.93 161.604C179.218 164.146 174.884 166.213 169.272 166.213C163.66 166.213 158.862 164.146 158.574 161.604C158.286 159.061 162.62 156.994 168.232 156.994C173.856 156.994 178.642 159.061 178.93 161.604Z" fill="url(#paint98_linear_411_1051)"/>
<path opacity="0.53" d="M169.271 166.075C163.646 166.075 158.861 164.008 158.573 161.466C158.573 161.415 158.561 161.353 158.561 161.303C158.561 161.403 158.561 161.503 158.573 161.616C158.861 164.159 163.646 166.226 169.271 166.226C174.77 166.226 179.029 164.246 178.941 161.779C178.853 164.171 174.657 166.075 169.271 166.075Z" fill="white"/>
<path d="M207.527 151.52C207.502 151.52 207.465 151.52 207.44 151.532V151.52H178.754V156.23H207.44V156.217C207.465 156.217 207.502 156.23 207.527 156.23C208.316 156.23 208.955 155.177 208.955 153.875C208.943 152.572 208.316 151.52 207.527 151.52Z" fill="url(#paint99_linear_411_1051)"/>
<path d="M180.232 161.04C180.232 161.015 180.219 160.977 180.219 160.952H180.232V158.923H179.869C178.917 157.658 176.236 156.731 173.167 156.731C170.111 156.731 167.63 157.658 166.966 158.923H166.791V160.89V160.952C166.791 160.977 166.791 161.015 166.791 161.04C166.979 162.718 170.136 164.084 173.843 164.084C177.564 164.084 180.42 162.718 180.232 161.04Z" fill="url(#paint100_linear_411_1051)"/>
<path d="M180.232 158.923C180.42 160.601 177.564 161.967 173.856 161.967C170.148 161.967 166.992 160.601 166.804 158.923C166.616 157.244 169.472 155.879 173.18 155.879C176.875 155.879 180.044 157.244 180.232 158.923Z" fill="url(#paint101_linear_411_1051)"/>
<path opacity="0.53" d="M173.855 161.867C170.147 161.867 166.991 160.501 166.803 158.823C166.803 158.785 166.803 158.748 166.803 158.71C166.803 158.773 166.803 158.848 166.803 158.91C166.991 160.589 170.147 161.954 173.855 161.954C177.488 161.954 180.294 160.652 180.231 159.023C180.181 160.614 177.413 161.867 173.855 161.867Z" fill="white"/>
<path d="M173.792 161.353C170.711 161.353 168.08 160.225 167.93 158.822C167.93 158.797 167.93 158.772 167.93 158.747V147.937H167.942C168.105 149.327 170.723 150.467 173.805 150.467C176.698 150.467 178.966 149.465 179.103 148.2V158.747H179.091C179.103 158.772 179.103 158.797 179.103 158.822C179.254 160.225 176.874 161.353 173.792 161.353Z" fill="url(#paint102_linear_411_1051)"/>
<path d="M173.793 153.875C176.687 153.875 178.954 152.872 179.092 151.607V150.417C178.954 151.695 176.687 152.685 173.793 152.685C170.711 152.685 168.081 151.557 167.93 150.154H167.918V151.344H167.93C168.081 152.735 170.711 153.875 173.793 153.875Z" fill="url(#paint103_linear_411_1051)"/>
<path d="M173.793 159.286C176.687 159.286 178.954 158.284 179.092 157.019V155.829C178.954 157.106 176.687 158.096 173.793 158.096C170.711 158.096 168.081 156.969 167.93 155.566H167.918V156.756H167.93C168.081 158.146 170.711 159.286 173.793 159.286Z" fill="url(#paint104_linear_411_1051)"/>
<path d="M179.091 147.937V148.187C178.953 149.465 176.686 150.455 173.792 150.455C170.711 150.455 168.08 149.327 167.93 147.924H168.067C168.619 146.872 170.686 146.096 173.228 146.096C175.771 146.096 178.014 146.872 178.803 147.924H179.091V147.937Z" fill="url(#paint105_linear_411_1051)"/>
<path d="M179.091 148.2C178.953 149.478 176.686 150.467 173.792 150.467C170.711 150.467 168.08 149.34 167.93 147.937C167.767 146.534 170.147 145.407 173.228 145.407C176.31 145.407 178.941 146.534 179.091 147.937C179.103 148.025 179.103 148.112 179.091 148.2Z" fill="url(#paint106_linear_411_1051)"/>
<path opacity="0.53" d="M173.792 150.392C170.711 150.392 168.08 149.265 167.93 147.862C167.93 147.837 167.93 147.799 167.93 147.774C167.93 147.824 167.93 147.887 167.93 147.949C168.08 149.352 170.711 150.48 173.792 150.48C176.811 150.48 179.141 149.39 179.103 148.037C179.053 149.352 176.748 150.392 173.792 150.392Z" fill="white"/>
<path d="M180.232 148.576C180.232 148.551 180.219 148.513 180.219 148.488H180.232V146.459H179.869C178.917 145.194 176.236 144.267 173.167 144.267C170.111 144.267 167.63 145.194 166.966 146.459H166.791V148.426V148.488C166.791 148.513 166.791 148.551 166.791 148.576C166.979 150.255 170.136 151.62 173.843 151.62C177.564 151.62 180.42 150.255 180.232 148.576Z" fill="url(#paint107_linear_411_1051)"/>
<path d="M180.232 146.459C180.42 148.137 177.564 149.503 173.856 149.503C170.148 149.503 166.992 148.137 166.804 146.459C166.616 144.78 169.472 143.415 173.18 143.415C176.875 143.415 180.044 144.78 180.232 146.459Z" fill="url(#paint108_linear_411_1051)"/>
<path opacity="0.53" d="M173.855 149.403C170.147 149.403 166.991 148.037 166.803 146.359C166.803 146.321 166.803 146.284 166.803 146.246C166.803 146.309 166.803 146.384 166.803 146.447C166.991 148.125 170.147 149.49 173.855 149.49C177.488 149.49 180.294 148.188 180.231 146.559C180.181 148.15 177.413 149.403 173.855 149.403Z" fill="white"/>
<path d="M185.506 151.52C185.481 151.52 185.443 151.52 185.418 151.532V151.52H184.115C184.904 151.52 185.543 152.572 185.543 153.875C185.543 155.177 184.904 156.23 184.115 156.23H185.418V156.217C185.443 156.217 185.481 156.23 185.506 156.23C186.295 156.23 186.934 155.177 186.934 153.875C186.934 152.572 186.295 151.52 185.506 151.52Z" fill="url(#paint109_linear_411_1051)"/>
<path d="M184.016 156.23H184.103C184.078 156.23 184.053 156.217 184.016 156.23Z" fill="url(#paint110_linear_411_1051)"/>
<path d="M184.016 151.52C184.041 151.52 184.078 151.507 184.103 151.507L184.016 151.52Z" fill="url(#paint111_linear_411_1051)"/>
<path d="M195.037 151.52C195.012 151.52 194.974 151.52 194.949 151.532V151.52H193.646C194.436 151.52 195.074 152.572 195.074 153.875C195.074 155.177 194.436 156.23 193.646 156.23H194.949V156.217C194.974 156.217 195.012 156.23 195.037 156.23C195.826 156.23 196.465 155.177 196.465 153.875C196.452 152.572 195.826 151.52 195.037 151.52Z" fill="url(#paint112_linear_411_1051)"/>
<path d="M193.547 156.23H193.635C193.61 156.23 193.572 156.217 193.547 156.23Z" fill="url(#paint113_linear_411_1051)"/>
<path d="M193.547 151.52C193.572 151.52 193.61 151.507 193.635 151.507L193.547 151.52Z" fill="url(#paint114_linear_411_1051)"/>
<path opacity="0.1" d="M277.449 136.387C277.449 136.387 269.696 168.142 265.975 169.219C262.255 170.297 243.703 168.117 243.703 168.117C243.703 168.117 263.608 172.1 266.727 171.311C269.846 170.522 275.871 148.663 276.986 143.528C278.113 138.392 277.449 136.387 277.449 136.387Z" fill="#08131E"/>
<path opacity="0.1" d="M268.518 133.506C268.518 133.506 260.902 155.465 260.175 158.497C259.436 161.528 261.215 164.509 261.215 164.509C261.215 164.509 258.81 161.015 256.818 161.278C254.826 161.553 235.41 159.649 235.41 159.649C235.41 159.649 257.181 160.676 258.309 159.749C259.436 158.835 265.824 137.051 268.518 133.506Z" fill="#08131E"/>
<path opacity="0.1" d="M246.158 131.039L245.394 155.052L231.652 155.365C231.652 155.365 244.241 153.511 244.241 152.046C244.241 150.58 243.415 147.448 243.415 147.448L244.63 148.839L246.158 131.039Z" fill="#08131E"/>
<defs>
<linearGradient id="paint0_linear_411_1051" x1="152.908" y1="15.3002" x2="152.908" y2="199.3" gradientUnits="userSpaceOnUse">
<stop stop-color="#EBD9B2"/>
<stop offset="1" stop-color="#DDB762" stop-opacity="0"/>
</linearGradient>
<linearGradient id="paint1_linear_411_1051" x1="144.984" y1="98.944" x2="15.9546" y2="98.944" gradientUnits="userSpaceOnUse">
<stop stop-color="#C9CED3"/>
<stop offset="1" stop-color="#ECECEA"/>
</linearGradient>
<linearGradient id="paint2_linear_411_1051" x1="153.112" y1="36.4486" x2="40.8301" y2="36.4486" gradientUnits="userSpaceOnUse">
<stop stop-color="#D18A43"/>
<stop offset="0.2459" stop-color="#FFDF7B"/>
<stop offset="1" stop-color="#8C5231"/>
</linearGradient>
<linearGradient id="paint3_linear_411_1051" x1="99.7252" y1="101.007" x2="94.216" y2="101.007" gradientUnits="userSpaceOnUse">
<stop stop-color="#D18A43"/>
<stop offset="0.2459" stop-color="#FFDF7B"/>
<stop offset="1" stop-color="#8C5231"/>
</linearGradient>
<linearGradient id="paint4_linear_411_1051" x1="102.601" y1="40.5332" x2="91.3434" y2="40.5332" gradientUnits="userSpaceOnUse">
<stop stop-color="#D18A43"/>
<stop offset="0.2459" stop-color="#FFDF7B"/>
<stop offset="1" stop-color="#8C5231"/>
</linearGradient>
<linearGradient id="paint5_linear_411_1051" x1="99.2135" y1="15.2751" x2="94.7279" y2="15.2751" gradientUnits="userSpaceOnUse">
<stop stop-color="#D18A43"/>
<stop offset="0.2459" stop-color="#FFDF7B"/>
<stop offset="1" stop-color="#8C5231"/>
</linearGradient>
<linearGradient id="paint6_linear_411_1051" x1="39.3612" y1="95.1646" x2="39.3612" y2="119.543" gradientUnits="userSpaceOnUse">
<stop stop-color="#D18A43"/>
<stop offset="0.2459" stop-color="#FFDF7B"/>
<stop offset="1" stop-color="#8C5231"/>
</linearGradient>
<linearGradient id="paint7_linear_411_1051" x1="39.362" y1="92.9044" x2="39.362" y2="117.283" gradientUnits="userSpaceOnUse">
<stop stop-color="#D18A43"/>
<stop offset="0.2459" stop-color="#FFDF7B"/>
<stop offset="1" stop-color="#8C5231"/>
</linearGradient>
<linearGradient id="paint8_linear_411_1051" x1="39.362" y1="91.3442" x2="39.362" y2="115.722" gradientUnits="userSpaceOnUse">
<stop stop-color="#EA9D55"/>
<stop offset="0.2838" stop-color="#EAC686"/>
<stop offset="1" stop-color="#FDF0DE"/>
</linearGradient>
<linearGradient id="paint9_linear_411_1051" x1="68.8158" y1="69.919" x2="9.91279" y2="69.919" gradientUnits="userSpaceOnUse">
<stop stop-color="#EA9D55"/>
<stop offset="0.2838" stop-color="#EAC686"/>
<stop offset="1" stop-color="#FDF0DE"/>
</linearGradient>
<linearGradient id="paint10_linear_411_1051" x1="41.224" y1="76.4245" x2="40.4374" y2="76.4245" gradientUnits="userSpaceOnUse">
<stop stop-color="#EA9D55"/>
<stop offset="0.2838" stop-color="#EAC686"/>
<stop offset="1" stop-color="#FDF0DE"/>
</linearGradient>
<linearGradient id="paint11_linear_411_1051" x1="40.8956" y1="34.4002" x2="40.8956" y2="39.7932" gradientUnits="userSpaceOnUse">
<stop stop-color="#D18A43"/>
<stop offset="0.2459" stop-color="#FFDF7B"/>
<stop offset="1" stop-color="#8C5231"/>
</linearGradient>
<linearGradient id="paint12_linear_411_1051" x1="148.783" y1="95.1646" x2="148.783" y2="119.543" gradientUnits="userSpaceOnUse">
<stop stop-color="#D18A43"/>
<stop offset="0.2459" stop-color="#FFDF7B"/>
<stop offset="1" stop-color="#8C5231"/>
</linearGradient>
<linearGradient id="paint13_linear_411_1051" x1="148.784" y1="92.9044" x2="148.784" y2="117.283" gradientUnits="userSpaceOnUse">
<stop stop-color="#D18A43"/>
<stop offset="0.2459" stop-color="#FFDF7B"/>
<stop offset="1" stop-color="#8C5231"/>
</linearGradient>
<linearGradient id="paint14_linear_411_1051" x1="148.784" y1="91.3442" x2="148.784" y2="115.722" gradientUnits="userSpaceOnUse">
<stop stop-color="#EA9D55"/>
<stop offset="0.2838" stop-color="#EAC686"/>
<stop offset="1" stop-color="#FDF0DE"/>
</linearGradient>
<linearGradient id="paint15_linear_411_1051" x1="178.237" y1="69.919" x2="119.334" y2="69.919" gradientUnits="userSpaceOnUse">
<stop stop-color="#EA9D55"/>
<stop offset="0.2838" stop-color="#EAC686"/>
<stop offset="1" stop-color="#FDF0DE"/>
</linearGradient>
<linearGradient id="paint16_linear_411_1051" x1="150.645" y1="76.4245" x2="149.858" y2="76.4245" gradientUnits="userSpaceOnUse">
<stop stop-color="#EA9D55"/>
<stop offset="0.2838" stop-color="#EAC686"/>
<stop offset="1" stop-color="#FDF0DE"/>
</linearGradient>
<linearGradient id="paint17_linear_411_1051" x1="150.316" y1="34.4002" x2="150.316" y2="39.7932" gradientUnits="userSpaceOnUse">
<stop stop-color="#D18A43"/>
<stop offset="0.2459" stop-color="#FFDF7B"/>
<stop offset="1" stop-color="#8C5231"/>
</linearGradient>
<linearGradient id="paint18_linear_411_1051" x1="242.591" y1="184.152" x2="242.591" y2="196.042" gradientUnits="userSpaceOnUse">
<stop stop-color="#2A3645"/>
<stop offset="1" stop-color="#656E74"/>
</linearGradient>
<linearGradient id="paint19_linear_411_1051" x1="268.849" y1="174.182" x2="254.289" y2="193.436" gradientUnits="userSpaceOnUse">
<stop stop-color="#DDDFDC"/>
<stop offset="1" stop-color="#8C9290"/>
</linearGradient>
<linearGradient id="paint20_linear_411_1051" x1="298.609" y1="140.697" x2="274.553" y2="172.507" gradientUnits="userSpaceOnUse">
<stop stop-color="#2A3645"/>
<stop offset="1" stop-color="#656E74"/>
</linearGradient>
<linearGradient id="paint21_linear_411_1051" x1="294.496" y1="141.174" x2="270.439" y2="172.984" gradientUnits="userSpaceOnUse">
<stop stop-color="#DDDFDC"/>
<stop offset="1" stop-color="#8C9290"/>
</linearGradient>
<linearGradient id="paint22_linear_411_1051" x1="278.407" y1="177.067" x2="260.32" y2="200.984" gradientUnits="userSpaceOnUse">
<stop stop-color="#2A3645"/>
<stop offset="1" stop-color="#656E74"/>
</linearGradient>
<linearGradient id="paint23_linear_411_1051" x1="300.017" y1="213.02" x2="282.754" y2="213.02" gradientUnits="userSpaceOnUse">
<stop stop-color="#C9CED3"/>
<stop offset="1" stop-color="#ECECEA"/>
</linearGradient>
<linearGradient id="paint24_linear_411_1051" x1="254.564" y1="230.369" x2="76.9506" y2="230.369" gradientUnits="userSpaceOnUse">
<stop stop-color="#0D1102"/>
<stop offset="1" stop-color="#2A3645"/>
</linearGradient>
<linearGradient id="paint25_linear_411_1051" x1="212.636" y1="148.099" x2="226.218" y2="108.697" gradientUnits="userSpaceOnUse">
<stop stop-color="#2A3645"/>
<stop offset="1" stop-color="#656E74"/>
</linearGradient>
<linearGradient id="paint26_linear_411_1051" x1="209.445" y1="149.773" x2="223.027" y2="110.37" gradientUnits="userSpaceOnUse">
<stop stop-color="#C9CED3"/>
<stop offset="1" stop-color="#ECECEA"/>
</linearGradient>
<linearGradient id="paint27_linear_411_1051" x1="159.814" y1="194.199" x2="189.988" y2="147.752" gradientUnits="userSpaceOnUse">
<stop stop-color="#2A3645"/>
<stop offset="1" stop-color="#19222B"/>
</linearGradient>
<linearGradient id="paint28_linear_411_1051" x1="205.755" y1="115.577" x2="172.607" y2="115.577" gradientUnits="userSpaceOnUse">
<stop stop-color="#C9CED3"/>
<stop offset="1" stop-color="#ECECEA"/>
</linearGradient>
<linearGradient id="paint29_linear_411_1051" x1="197.425" y1="83.9206" x2="182.248" y2="83.9206" gradientUnits="userSpaceOnUse">
<stop stop-color="#C67D46"/>
<stop offset="1" stop-color="#D69F5F"/>
</linearGradient>
<linearGradient id="paint30_linear_411_1051" x1="202.934" y1="70.147" x2="174.646" y2="70.147" gradientUnits="userSpaceOnUse">
<stop stop-color="#2A3645"/>
<stop offset="1" stop-color="#19222B"/>
</linearGradient>
<linearGradient id="paint31_linear_411_1051" x1="190.115" y1="81.4728" x2="178.047" y2="81.4728" gradientUnits="userSpaceOnUse">
<stop stop-color="#2A3645"/>
<stop offset="1" stop-color="#19222B"/>
</linearGradient>
<linearGradient id="paint32_linear_411_1051" x1="254.564" y1="167.277" x2="76.9506" y2="167.277" gradientUnits="userSpaceOnUse">
<stop stop-color="#D18A43"/>
<stop offset="1" stop-color="#8C5231"/>
</linearGradient>
<linearGradient id="paint33_linear_411_1051" x1="254.564" y1="165.423" x2="76.9506" y2="165.423" gradientUnits="userSpaceOnUse">
<stop stop-color="#EA9D55"/>
<stop offset="0.2838" stop-color="#EAC686"/>
<stop offset="1" stop-color="#FDF0DE"/>
</linearGradient>
<linearGradient id="paint34_linear_411_1051" x1="146.98" y1="80.1077" x2="107.672" y2="138.392" gradientUnits="userSpaceOnUse">
<stop stop-color="#A3A4A1"/>
<stop offset="0.2838" stop-color="#E5E5E5"/>
<stop offset="1" stop-color="#A3A4A1"/>
</linearGradient>
<linearGradient id="paint35_linear_411_1051" x1="122.31" y1="125.235" x2="145.708" y2="161.708" gradientUnits="userSpaceOnUse">
<stop stop-color="#C9CED3"/>
<stop offset="1" stop-color="#677476"/>
</linearGradient>
<linearGradient id="paint36_linear_411_1051" x1="155.785" y1="146.697" x2="114.017" y2="146.697" gradientUnits="userSpaceOnUse">
<stop stop-color="#2A3645"/>
<stop offset="1" stop-color="#19222B"/>
</linearGradient>
<linearGradient id="paint37_linear_411_1051" x1="114.799" y1="153.742" x2="132.003" y2="176.566" gradientUnits="userSpaceOnUse">
<stop stop-color="#C9CED3"/>
<stop offset="1" stop-color="#677476"/>
</linearGradient>
<linearGradient id="paint38_linear_411_1051" x1="153.281" y1="167.755" x2="98.184" y2="167.755" gradientUnits="userSpaceOnUse">
<stop stop-color="#C9CED3"/>
<stop offset="1" stop-color="#677476"/>
</linearGradient>
<linearGradient id="paint39_linear_411_1051" x1="116.844" y1="148.382" x2="146.238" y2="167.82" gradientUnits="userSpaceOnUse">
<stop stop-color="#2A3645"/>
<stop offset="1" stop-color="#19222B"/>
</linearGradient>
<linearGradient id="paint40_linear_411_1051" x1="116.286" y1="149.224" x2="145.679" y2="168.662" gradientUnits="userSpaceOnUse">
<stop stop-color="#2A3645"/>
<stop offset="1" stop-color="#19222B"/>
</linearGradient>
<linearGradient id="paint41_linear_411_1051" x1="115.729" y1="150.066" x2="145.123" y2="169.503" gradientUnits="userSpaceOnUse">
<stop stop-color="#2A3645"/>
<stop offset="1" stop-color="#19222B"/>
</linearGradient>
<linearGradient id="paint42_linear_411_1051" x1="115.173" y1="150.907" x2="144.567" y2="170.345" gradientUnits="userSpaceOnUse">
<stop stop-color="#2A3645"/>
<stop offset="1" stop-color="#19222B"/>
</linearGradient>
<linearGradient id="paint43_linear_411_1051" x1="114.616" y1="151.749" x2="144.01" y2="171.187" gradientUnits="userSpaceOnUse">
<stop stop-color="#2A3645"/>
<stop offset="1" stop-color="#19222B"/>
</linearGradient>
<linearGradient id="paint44_linear_411_1051" x1="114.06" y1="152.591" x2="143.454" y2="172.028" gradientUnits="userSpaceOnUse">
<stop stop-color="#2A3645"/>
<stop offset="1" stop-color="#19222B"/>
</linearGradient>
<linearGradient id="paint45_linear_411_1051" x1="113.504" y1="153.432" x2="142.897" y2="172.87" gradientUnits="userSpaceOnUse">
<stop stop-color="#2A3645"/>
<stop offset="1" stop-color="#19222B"/>
</linearGradient>
<linearGradient id="paint46_linear_411_1051" x1="112.947" y1="154.274" x2="142.341" y2="173.712" gradientUnits="userSpaceOnUse">
<stop stop-color="#2A3645"/>
<stop offset="1" stop-color="#19222B"/>
</linearGradient>
<linearGradient id="paint47_linear_411_1051" x1="112.391" y1="155.116" x2="141.784" y2="174.553" gradientUnits="userSpaceOnUse">
<stop stop-color="#2A3645"/>
<stop offset="1" stop-color="#19222B"/>
</linearGradient>
<linearGradient id="paint48_linear_411_1051" x1="115.669" y1="150.159" x2="145.063" y2="169.596" gradientUnits="userSpaceOnUse">
<stop stop-color="#2A3645"/>
<stop offset="1" stop-color="#19222B"/>
</linearGradient>
<linearGradient id="paint49_linear_411_1051" x1="115.111" y1="151" x2="144.504" y2="170.438" gradientUnits="userSpaceOnUse">
<stop stop-color="#2A3645"/>
<stop offset="1" stop-color="#19222B"/>
</linearGradient>
<linearGradient id="paint50_linear_411_1051" x1="114.554" y1="151.842" x2="143.948" y2="171.28" gradientUnits="userSpaceOnUse">
<stop stop-color="#2A3645"/>
<stop offset="1" stop-color="#19222B"/>
</linearGradient>
<linearGradient id="paint51_linear_411_1051" x1="113.998" y1="152.684" x2="143.391" y2="172.122" gradientUnits="userSpaceOnUse">
<stop stop-color="#2A3645"/>
<stop offset="1" stop-color="#19222B"/>
</linearGradient>
<linearGradient id="paint52_linear_411_1051" x1="113.441" y1="153.526" x2="142.835" y2="172.963" gradientUnits="userSpaceOnUse">
<stop stop-color="#2A3645"/>
<stop offset="1" stop-color="#19222B"/>
</linearGradient>
<linearGradient id="paint53_linear_411_1051" x1="112.885" y1="154.367" x2="142.278" y2="173.805" gradientUnits="userSpaceOnUse">
<stop stop-color="#2A3645"/>
<stop offset="1" stop-color="#19222B"/>
</linearGradient>
<linearGradient id="paint54_linear_411_1051" x1="112.328" y1="155.209" x2="141.722" y2="174.647" gradientUnits="userSpaceOnUse">
<stop stop-color="#2A3645"/>
<stop offset="1" stop-color="#19222B"/>
</linearGradient>
<linearGradient id="paint55_linear_411_1051" x1="111.772" y1="156.051" x2="141.165" y2="175.488" gradientUnits="userSpaceOnUse">
<stop stop-color="#2A3645"/>
<stop offset="1" stop-color="#19222B"/>
</linearGradient>
<linearGradient id="paint56_linear_411_1051" x1="111.215" y1="156.892" x2="140.609" y2="176.33" gradientUnits="userSpaceOnUse">
<stop stop-color="#2A3645"/>
<stop offset="1" stop-color="#19222B"/>
</linearGradient>
<linearGradient id="paint57_linear_411_1051" x1="114.495" y1="151.935" x2="143.888" y2="171.373" gradientUnits="userSpaceOnUse">
<stop stop-color="#2A3645"/>
<stop offset="1" stop-color="#19222B"/>
</linearGradient>
<linearGradient id="paint58_linear_411_1051" x1="113.938" y1="152.777" x2="143.332" y2="172.215" gradientUnits="userSpaceOnUse">
<stop stop-color="#2A3645"/>
<stop offset="1" stop-color="#19222B"/>
</linearGradient>
<linearGradient id="paint59_linear_411_1051" x1="113.38" y1="153.619" x2="142.773" y2="173.056" gradientUnits="userSpaceOnUse">
<stop stop-color="#2A3645"/>
<stop offset="1" stop-color="#19222B"/>
</linearGradient>
<linearGradient id="paint60_linear_411_1051" x1="112.823" y1="154.46" x2="142.217" y2="173.898" gradientUnits="userSpaceOnUse">
<stop stop-color="#2A3645"/>
<stop offset="1" stop-color="#19222B"/>
</linearGradient>
<linearGradient id="paint61_linear_411_1051" x1="112.267" y1="155.302" x2="141.66" y2="174.74" gradientUnits="userSpaceOnUse">
<stop stop-color="#2A3645"/>
<stop offset="1" stop-color="#19222B"/>
</linearGradient>
<linearGradient id="paint62_linear_411_1051" x1="111.71" y1="156.144" x2="141.104" y2="175.582" gradientUnits="userSpaceOnUse">
<stop stop-color="#2A3645"/>
<stop offset="1" stop-color="#19222B"/>
</linearGradient>
<linearGradient id="paint63_linear_411_1051" x1="111.154" y1="156.986" x2="140.547" y2="176.423" gradientUnits="userSpaceOnUse">
<stop stop-color="#2A3645"/>
<stop offset="1" stop-color="#19222B"/>
</linearGradient>
<linearGradient id="paint64_linear_411_1051" x1="110.597" y1="157.827" x2="139.991" y2="177.265" gradientUnits="userSpaceOnUse">
<stop stop-color="#2A3645"/>
<stop offset="1" stop-color="#19222B"/>
</linearGradient>
<linearGradient id="paint65_linear_411_1051" x1="110.041" y1="158.669" x2="139.434" y2="178.106" gradientUnits="userSpaceOnUse">
<stop stop-color="#2A3645"/>
<stop offset="1" stop-color="#19222B"/>
</linearGradient>
<linearGradient id="paint66_linear_411_1051" x1="113.319" y1="153.712" x2="142.713" y2="173.15" gradientUnits="userSpaceOnUse">
<stop stop-color="#2A3645"/>
<stop offset="1" stop-color="#19222B"/>
</linearGradient>
<linearGradient id="paint67_linear_411_1051" x1="112.761" y1="154.554" x2="142.155" y2="173.991" gradientUnits="userSpaceOnUse">
<stop stop-color="#2A3645"/>
<stop offset="1" stop-color="#19222B"/>
</linearGradient>
<linearGradient id="paint68_linear_411_1051" x1="112.204" y1="155.395" x2="141.598" y2="174.833" gradientUnits="userSpaceOnUse">
<stop stop-color="#2A3645"/>
<stop offset="1" stop-color="#19222B"/>
</linearGradient>
<linearGradient id="paint69_linear_411_1051" x1="111.648" y1="156.237" x2="141.042" y2="175.675" gradientUnits="userSpaceOnUse">
<stop stop-color="#2A3645"/>
<stop offset="1" stop-color="#19222B"/>
</linearGradient>
<linearGradient id="paint70_linear_411_1051" x1="111.092" y1="157.079" x2="140.485" y2="176.516" gradientUnits="userSpaceOnUse">
<stop stop-color="#2A3645"/>
<stop offset="1" stop-color="#19222B"/>
</linearGradient>
<linearGradient id="paint71_linear_411_1051" x1="110.535" y1="157.92" x2="139.929" y2="177.358" gradientUnits="userSpaceOnUse">
<stop stop-color="#2A3645"/>
<stop offset="1" stop-color="#19222B"/>
</linearGradient>
<linearGradient id="paint72_linear_411_1051" x1="109.979" y1="158.762" x2="139.372" y2="178.2" gradientUnits="userSpaceOnUse">
<stop stop-color="#2A3645"/>
<stop offset="1" stop-color="#19222B"/>
</linearGradient>
<linearGradient id="paint73_linear_411_1051" x1="109.422" y1="159.604" x2="138.816" y2="179.041" gradientUnits="userSpaceOnUse">
<stop stop-color="#2A3645"/>
<stop offset="1" stop-color="#19222B"/>
</linearGradient>
<linearGradient id="paint74_linear_411_1051" x1="108.866" y1="160.445" x2="138.259" y2="179.883" gradientUnits="userSpaceOnUse">
<stop stop-color="#2A3645"/>
<stop offset="1" stop-color="#19222B"/>
</linearGradient>
<linearGradient id="paint75_linear_411_1051" x1="112.145" y1="155.488" x2="141.539" y2="174.926" gradientUnits="userSpaceOnUse">
<stop stop-color="#2A3645"/>
<stop offset="1" stop-color="#19222B"/>
</linearGradient>
<linearGradient id="paint76_linear_411_1051" x1="111.586" y1="156.33" x2="140.98" y2="175.768" gradientUnits="userSpaceOnUse">
<stop stop-color="#2A3645"/>
<stop offset="1" stop-color="#19222B"/>
</linearGradient>
<linearGradient id="paint77_linear_411_1051" x1="111.03" y1="157.172" x2="140.424" y2="176.609" gradientUnits="userSpaceOnUse">
<stop stop-color="#2A3645"/>
<stop offset="1" stop-color="#19222B"/>
</linearGradient>
<linearGradient id="paint78_linear_411_1051" x1="110.474" y1="158.013" x2="139.867" y2="177.451" gradientUnits="userSpaceOnUse">
<stop stop-color="#2A3645"/>
<stop offset="1" stop-color="#19222B"/>
</linearGradient>
<linearGradient id="paint79_linear_411_1051" x1="109.917" y1="158.855" x2="139.311" y2="178.293" gradientUnits="userSpaceOnUse">
<stop stop-color="#2A3645"/>
<stop offset="1" stop-color="#19222B"/>
</linearGradient>
<linearGradient id="paint80_linear_411_1051" x1="109.361" y1="159.697" x2="138.754" y2="179.134" gradientUnits="userSpaceOnUse">
<stop stop-color="#2A3645"/>
<stop offset="1" stop-color="#19222B"/>
</linearGradient>
<linearGradient id="paint81_linear_411_1051" x1="108.804" y1="160.538" x2="138.198" y2="179.976" gradientUnits="userSpaceOnUse">
<stop stop-color="#2A3645"/>
<stop offset="1" stop-color="#19222B"/>
</linearGradient>
<linearGradient id="paint82_linear_411_1051" x1="108.248" y1="161.38" x2="137.641" y2="180.818" gradientUnits="userSpaceOnUse">
<stop stop-color="#2A3645"/>
<stop offset="1" stop-color="#19222B"/>
</linearGradient>
<linearGradient id="paint83_linear_411_1051" x1="107.691" y1="162.222" x2="137.085" y2="181.66" gradientUnits="userSpaceOnUse">
<stop stop-color="#2A3645"/>
<stop offset="1" stop-color="#19222B"/>
</linearGradient>
<linearGradient id="paint84_linear_411_1051" x1="100.486" y1="237.648" x2="102.262" y2="225.684" gradientUnits="userSpaceOnUse">
<stop stop-color="#C9CED3"/>
<stop offset="1" stop-color="#ECECEA"/>
</linearGradient>
<linearGradient id="paint85_linear_411_1051" x1="90.7906" y1="129.8" x2="60.3113" y2="126.533" gradientUnits="userSpaceOnUse">
<stop stop-color="#2A3645"/>
<stop offset="1" stop-color="#19222B"/>
</linearGradient>
<linearGradient id="paint86_linear_411_1051" x1="136.292" y1="233.493" x2="58.9848" y2="233.493" gradientUnits="userSpaceOnUse">
<stop stop-color="#2A3645"/>
<stop offset="1" stop-color="#19222B"/>
</linearGradient>
<linearGradient id="paint87_linear_411_1051" x1="103.003" y1="240.402" x2="104.865" y2="227.859" gradientUnits="userSpaceOnUse">
<stop stop-color="#2A3645"/>
<stop offset="1" stop-color="#656E74"/>
</linearGradient>
<linearGradient id="paint88_linear_411_1051" x1="91.5741" y1="212.602" x2="37.2975" y2="212.602" gradientUnits="userSpaceOnUse">
<stop stop-color="#2A3645"/>
<stop offset="1" stop-color="#656E74"/>
</linearGradient>
<linearGradient id="paint89_linear_411_1051" x1="88.8848" y1="214.623" x2="36.9364" y2="214.623" gradientUnits="userSpaceOnUse">
<stop stop-color="#C9CED3"/>
<stop offset="1" stop-color="#ECECEA"/>
</linearGradient>
<linearGradient id="paint90_linear_411_1051" x1="90.3569" y1="262.535" x2="86.4324" y2="262.535" gradientUnits="userSpaceOnUse">
<stop stop-color="#C9CED3"/>
<stop offset="1" stop-color="#ECECEA"/>
</linearGradient>
<linearGradient id="paint91_linear_411_1051" x1="51.1292" y1="256.902" x2="47.2047" y2="256.902" gradientUnits="userSpaceOnUse">
<stop stop-color="#C9CED3"/>
<stop offset="1" stop-color="#ECECEA"/>
</linearGradient>
<linearGradient id="paint92_linear_411_1051" x1="249.399" y1="180.413" x2="249.399" y2="238.375" gradientUnits="userSpaceOnUse">
<stop stop-color="#EA9D55"/>
<stop offset="0.2838" stop-color="#EAC686"/>
<stop offset="1" stop-color="#F7CE91"/>
</linearGradient>
<linearGradient id="paint93_linear_411_1051" x1="158.04" y1="169.185" x2="191.321" y2="169.185" gradientUnits="userSpaceOnUse">
<stop stop-color="#0D1102"/>
<stop offset="1" stop-color="#2A3645"/>
</linearGradient>
<linearGradient id="paint94_linear_411_1051" x1="157.482" y1="165.304" x2="180.014" y2="165.304" gradientUnits="userSpaceOnUse">
<stop stop-color="#D18A43"/>
<stop offset="1" stop-color="#8C5231"/>
</linearGradient>
<linearGradient id="paint95_linear_411_1051" x1="157.482" y1="163.891" x2="180.014" y2="163.891" gradientUnits="userSpaceOnUse">
<stop stop-color="#D18A43"/>
<stop offset="0.1432" stop-color="#FFDD7D"/>
<stop offset="0.2784" stop-color="white"/>
<stop offset="0.4243" stop-color="#ECC374"/>
<stop offset="0.5541" stop-color="#DDAD6D"/>
<stop offset="1" stop-color="#D69F5F"/>
</linearGradient>
<linearGradient id="paint96_linear_411_1051" x1="160.624" y1="163.891" x2="176.673" y2="162.093" gradientUnits="userSpaceOnUse">
<stop stop-color="#D18A43"/>
<stop offset="1" stop-color="#8C5231"/>
</linearGradient>
<linearGradient id="paint97_linear_411_1051" x1="158.555" y1="162.887" x2="178.943" y2="162.887" gradientUnits="userSpaceOnUse">
<stop stop-color="#D18A43"/>
<stop offset="1" stop-color="#8C5231"/>
</linearGradient>
<linearGradient id="paint98_linear_411_1051" x1="176.494" y1="156.817" x2="156.612" y2="169.117" gradientUnits="userSpaceOnUse">
<stop stop-color="#D18A43"/>
<stop offset="0.1432" stop-color="#FFDD7D"/>
<stop offset="0.2784" stop-color="white"/>
<stop offset="0.4243" stop-color="#ECC374"/>
<stop offset="0.5541" stop-color="#DDAD6D"/>
<stop offset="1" stop-color="#D69F5F"/>
</linearGradient>
<linearGradient id="paint99_linear_411_1051" x1="193.848" y1="151.464" x2="193.848" y2="156.363" gradientUnits="userSpaceOnUse">
<stop stop-color="#D18A43"/>
<stop offset="0.2459" stop-color="#FFDF7B"/>
<stop offset="1" stop-color="#8C5231"/>
</linearGradient>
<linearGradient id="paint100_linear_411_1051" x1="194.219" y1="182.991" x2="197.293" y2="186.372" gradientUnits="userSpaceOnUse">
<stop stop-color="#D18A43"/>
<stop offset="0.2459" stop-color="#FFDF7B"/>
<stop offset="1" stop-color="#8C5231"/>
</linearGradient>
<linearGradient id="paint101_linear_411_1051" x1="178.62" y1="155.758" x2="165.508" y2="163.87" gradientUnits="userSpaceOnUse">
<stop stop-color="#D18A43"/>
<stop offset="0.1432" stop-color="#FFDD7D"/>
<stop offset="0.2784" stop-color="white"/>
<stop offset="0.4243" stop-color="#ECC374"/>
<stop offset="0.5541" stop-color="#DDAD6D"/>
<stop offset="1" stop-color="#D69F5F"/>
</linearGradient>
<linearGradient id="paint102_linear_411_1051" x1="167.921" y1="154.647" x2="179.101" y2="154.647" gradientUnits="userSpaceOnUse">
<stop stop-color="#D18A43"/>
<stop offset="0.2459" stop-color="#FFDF7B"/>
<stop offset="1" stop-color="#8C5231"/>
</linearGradient>
<linearGradient id="paint103_linear_411_1051" x1="167.922" y1="152.01" x2="179.095" y2="152.01" gradientUnits="userSpaceOnUse">
<stop stop-color="#D18A43"/>
<stop offset="0.1432" stop-color="#FFDD7D"/>
<stop offset="0.2784" stop-color="white"/>
<stop offset="0.4243" stop-color="#ECC374"/>
<stop offset="0.5541" stop-color="#DDAD6D"/>
<stop offset="1" stop-color="#D69F5F"/>
</linearGradient>
<linearGradient id="paint104_linear_411_1051" x1="167.922" y1="157.421" x2="179.095" y2="157.421" gradientUnits="userSpaceOnUse">
<stop stop-color="#D18A43"/>
<stop offset="0.1432" stop-color="#FFDD7D"/>
<stop offset="0.2784" stop-color="white"/>
<stop offset="0.4243" stop-color="#ECC374"/>
<stop offset="0.5541" stop-color="#DDAD6D"/>
<stop offset="1" stop-color="#D69F5F"/>
</linearGradient>
<linearGradient id="paint105_linear_411_1051" x1="167.927" y1="148.291" x2="179.094" y2="148.291" gradientUnits="userSpaceOnUse">
<stop stop-color="#D18A43"/>
<stop offset="0.2459" stop-color="#FFDF7B"/>
<stop offset="1" stop-color="#8C5231"/>
</linearGradient>
<linearGradient id="paint106_linear_411_1051" x1="177.758" y1="145.312" x2="166.854" y2="152.058" gradientUnits="userSpaceOnUse">
<stop stop-color="#D18A43"/>
<stop offset="0.1432" stop-color="#FFDD7D"/>
<stop offset="0.2784" stop-color="white"/>
<stop offset="0.4243" stop-color="#ECC374"/>
<stop offset="0.5541" stop-color="#DDAD6D"/>
<stop offset="1" stop-color="#D69F5F"/>
</linearGradient>
<linearGradient id="paint107_linear_411_1051" x1="166.789" y1="147.94" x2="180.235" y2="147.94" gradientUnits="userSpaceOnUse">
<stop stop-color="#D18A43"/>
<stop offset="0.2459" stop-color="#FFDF7B"/>
<stop offset="1" stop-color="#8C5231"/>
</linearGradient>
<linearGradient id="paint108_linear_411_1051" x1="178.62" y1="143.297" x2="165.508" y2="151.409" gradientUnits="userSpaceOnUse">
<stop stop-color="#D18A43"/>
<stop offset="0.3486" stop-color="#FFDD7D"/>
<stop offset="0.6135" stop-color="white"/>
<stop offset="1" stop-color="#D69F5F"/>
</linearGradient>
<linearGradient id="paint109_linear_411_1051" x1="185.521" y1="151.464" x2="185.521" y2="156.363" gradientUnits="userSpaceOnUse">
<stop stop-color="#D18A43"/>
<stop offset="0.1432" stop-color="#FFDD7D"/>
<stop offset="0.2784" stop-color="white"/>
<stop offset="0.4243" stop-color="#ECC374"/>
<stop offset="0.5541" stop-color="#DDAD6D"/>
<stop offset="1" stop-color="#D69F5F"/>
</linearGradient>
<linearGradient id="paint110_linear_411_1051" x1="184.065" y1="156.22" x2="184.065" y2="156.228" gradientUnits="userSpaceOnUse">
<stop stop-color="#D18A43"/>
<stop offset="0.1432" stop-color="#FFDD7D"/>
<stop offset="0.2784" stop-color="white"/>
<stop offset="0.4243" stop-color="#ECC374"/>
<stop offset="0.5541" stop-color="#DDAD6D"/>
<stop offset="1" stop-color="#D69F5F"/>
</linearGradient>
<linearGradient id="paint111_linear_411_1051" x1="184.065" y1="151.518" x2="184.065" y2="151.526" gradientUnits="userSpaceOnUse">
<stop stop-color="#D18A43"/>
<stop offset="0.1432" stop-color="#FFDD7D"/>
<stop offset="0.2784" stop-color="white"/>
<stop offset="0.4243" stop-color="#ECC374"/>
<stop offset="0.5541" stop-color="#DDAD6D"/>
<stop offset="1" stop-color="#D69F5F"/>
</linearGradient>
<linearGradient id="paint112_linear_411_1051" x1="195.046" y1="151.464" x2="195.046" y2="156.363" gradientUnits="userSpaceOnUse">
<stop stop-color="#D18A43"/>
<stop offset="0.1432" stop-color="#FFDD7D"/>
<stop offset="0.2784" stop-color="white"/>
<stop offset="0.4243" stop-color="#ECC374"/>
<stop offset="0.5541" stop-color="#DDAD6D"/>
<stop offset="1" stop-color="#D69F5F"/>
</linearGradient>
<linearGradient id="paint113_linear_411_1051" x1="193.59" y1="156.22" x2="193.59" y2="156.228" gradientUnits="userSpaceOnUse">
<stop stop-color="#D18A43"/>
<stop offset="0.1432" stop-color="#FFDD7D"/>
<stop offset="0.2784" stop-color="white"/>
<stop offset="0.4243" stop-color="#ECC374"/>
<stop offset="0.5541" stop-color="#DDAD6D"/>
<stop offset="1" stop-color="#D69F5F"/>
</linearGradient>
<linearGradient id="paint114_linear_411_1051" x1="193.59" y1="151.518" x2="193.59" y2="151.526" gradientUnits="userSpaceOnUse">
<stop stop-color="#D18A43"/>
<stop offset="0.1432" stop-color="#FFDD7D"/>
<stop offset="0.2784" stop-color="white"/>
<stop offset="0.4243" stop-color="#ECC374"/>
<stop offset="0.5541" stop-color="#DDAD6D"/>
<stop offset="1" stop-color="#D69F5F"/>
</linearGradient>
</defs>
</svg>
