<svg width="305" height="185" viewBox="0 0 305 185" fill="none" xmlns="http://www.w3.org/2000/svg">
<path d="M294.265 100.041C290.739 105.439 289.305 111.954 290.293 118.332C294.073 142.82 283.302 167.225 263.243 180.953C261.164 182.375 258.983 183.686 256.712 184.866H191.492C190.044 184.79 188.583 184.79 187.135 184.866H35.8258C33.706 183.665 31.6617 182.354 29.6996 180.953C5.18801 163.367 -6.17941 130.555 5.16743 100.172C8.75533 90.5718 14.2915 82.186 21.1929 75.3461C27.2368 69.3552 31.6411 61.908 33.9873 53.7016C34.001 53.6602 34.0147 53.6119 34.0285 53.5705C44.5932 16.8866 82.7224 -4.2334 119.185 6.39561C123.109 7.54133 126.848 9.00455 130.394 10.7507C139.285 15.1335 149.685 15.1818 158.624 10.9026C162.384 9.10808 166.376 7.65176 170.588 6.58886C179.87 4.256 189.262 4.11796 198.173 5.87796C205.631 7.35498 213.328 6.83043 220.517 4.35263C220.682 4.29741 220.847 4.2422 221.011 4.18008C254.318 -7.01489 290.341 11.0751 301.468 44.5841C307.882 63.9579 304.603 84.222 294.265 100.041Z" fill="url(#paint0_linear_411_698)" fill-opacity="0.5"/>
<path d="M241.578 88.8199C204.202 98.803 183.57 84.6068 188.255 82.1078C197.174 77.3583 195.629 65.5238 195.728 50.4837C195.734 49.6136 197.867 31.7866 198.168 30.995C201.25 22.7717 205.203 16.9101 218.205 16.9101C231.482 16.9101 234.197 23.4129 237.358 31.6623C237.659 32.4605 240.603 53.1005 240.643 53.9771C240.859 58.8509 240.636 74.6041 248.024 82.0882C250.419 84.5152 258.808 84.2208 241.578 88.8199Z" fill="#C6C4C5"/>
<path d="M256.779 154.672C255.785 154.613 254.941 154.521 254.319 154.456C253.632 154.391 253.22 154.358 253.207 154.463L254.561 174.318L254.738 176.862H180.207L180.324 174.318L181.247 154.593C181.247 154.574 181.234 154.554 181.221 154.535C181.064 154.378 180.266 154.24 179.101 153.972C174.579 152.925 164.554 149.844 165.032 135.478C165.385 124.84 165.922 115.466 167.604 107.465C167.722 106.889 167.852 106.32 167.983 105.757C168.023 105.581 168.068 105.411 168.108 105.234C168.212 104.809 168.317 104.39 168.435 103.971C168.533 103.618 168.631 103.258 168.729 102.912C168.834 102.558 168.939 102.212 169.043 101.871L169.05 101.858C169.115 101.649 169.181 101.44 169.253 101.23C169.318 101.027 169.384 100.831 169.449 100.635V100.628C171.491 94.662 174.52 89.677 179.101 85.7453C180.933 84.1687 183.014 82.7621 185.376 81.5322C185.985 81.2117 186.613 80.9107 187.254 80.6164C192.927 78.0323 200.093 76.3313 209.155 75.579C212.944 75.265 217.073 75.1145 221.562 75.1341C223.911 75.1407 226.142 75.2061 228.263 75.3239C228.263 75.3239 228.269 75.3239 228.276 75.3239C236.769 75.7949 243.542 77.6397 248.973 79.7332C251.963 80.8846 254.541 82.2715 256.779 83.8743C262.898 88.264 266.438 93.7789 268.682 101.171C268.852 101.727 269.016 102.297 269.166 102.872C269.422 103.808 269.657 104.763 269.873 105.738C269.997 106.307 270.122 106.876 270.24 107.458C271.817 115.256 272.523 124.245 273.511 134.156C275.494 153.985 263.12 155.038 256.779 154.672Z" fill="white"/>
<path d="M198.908 124.86C198.908 124.86 196.218 118.933 193.843 117.749C191.468 116.565 184.263 112.116 182.398 112.81C180.802 113.405 181.836 114.982 181.836 114.982C181.836 114.982 176.771 112.81 175.96 114.386C175.194 115.884 177.707 117.252 177.707 117.252C177.707 117.252 176.555 116.826 176.005 118.272C175.456 119.724 179.833 122.093 179.833 122.093C179.833 122.093 178.413 122.112 178.08 122.688C177.236 124.173 182.333 126.312 182.333 126.312L198.908 124.86Z" fill="#D8A77D"/>
<path d="M214.161 143.262L213.402 152.127L198.908 148.633L214.161 143.262Z" fill="#D8A77D"/>
<path d="M181.501 126.338L181.469 125.835L231.455 122.688L231.481 123.192L181.501 126.338Z" fill="#C6C4C5"/>
<path d="M186.063 153.566L185.906 153.088L234.322 135.811L234.473 136.289L186.063 153.566Z" fill="#C6C4C5"/>
<path d="M213.394 152.27L213.371 152.767L253.321 154.642L253.345 154.145L213.394 152.27Z" fill="#C6C4C5"/>
<path d="M231.26 122.937C231.26 122.937 239.812 123.329 243.522 123.604C248.044 123.938 251.885 124.775 252.474 124.598C252.854 126.456 253.2 132.508 253.2 132.508C253.2 132.508 251.571 133.79 238.876 135.445C236.181 135.798 234.348 136.047 234.348 136.047L231.26 122.937Z" fill="#D8A77D"/>
<path d="M192.849 121.537C192.836 121.524 191.743 120.451 190.231 119.24C188.733 118.037 182.15 115.21 182.078 115.184L182.242 114.772C182.517 114.89 188.949 117.651 190.487 118.887C192.018 120.11 193.13 121.203 193.137 121.216L192.849 121.537Z" fill="#A1542E"/>
<path d="M190.067 123.466C190.048 123.447 187.875 121.314 186.521 120.49C185.166 119.665 177.733 117.487 177.654 117.467L177.766 117.035C178.073 117.127 185.33 119.247 186.73 120.104C188.124 120.954 190.264 123.054 190.355 123.139L190.067 123.466Z" fill="#A1542E"/>
<path d="M186.646 125.252C186.633 125.239 185.174 124.088 184.448 123.473C183.885 122.995 181.156 122.4 180.148 122.21L180.227 121.772C180.606 121.844 183.963 122.492 184.716 123.126C185.436 123.735 186.895 124.886 186.908 124.892L186.646 125.252Z" fill="#A1542E"/>
<path d="M252.992 132.658L251.428 114.451L251.905 114.406L253.469 132.612L252.992 132.658Z" fill="#C6C4C5"/>
<path d="M227.419 75.3499V59.7603H208.619V75.1078C208.613 75.1471 208.6 75.1863 208.6 75.2256C208.606 87.7601 227.674 86.7657 227.419 75.3499Z" fill="#D8A77D"/>
<path d="M237.174 44.2165C237.174 57.1566 230.153 72.8771 218.25 72.8705C205.621 72.8574 199.326 57.1631 199.326 44.2165C199.326 31.2699 207.8 20.783 218.25 20.783C228.7 20.783 237.174 31.2764 237.174 44.2165Z" fill="#D8A77D"/>
<path d="M218.245 72.8051C215.425 72.8182 212.912 71.765 211.302 70.8752C209.562 69.9136 208.495 68.965 208.449 68.9257L208.737 68.6052C208.75 68.6117 209.817 69.5668 211.518 70.5023C213.082 71.3659 215.516 72.3865 218.238 72.3734L218.245 72.8051Z" fill="#A1542E"/>
<path d="M202.736 54.8973C204.813 54.2162 205.618 50.9811 204.532 47.6716C203.446 44.3621 200.882 42.2313 198.805 42.9125C196.727 43.5936 195.923 46.8287 197.009 50.1382C198.094 53.4477 200.658 55.5785 202.736 54.8973Z" fill="#D8A77D"/>
<path d="M239.842 50.0551C240.928 46.7456 240.124 43.5105 238.046 42.8294C235.969 42.1483 233.405 44.279 232.319 47.5885C231.234 50.8981 232.038 54.1332 234.115 54.8143C236.193 55.4954 238.757 53.3647 239.842 50.0551Z" fill="#D8A77D"/>
<path d="M220.259 59.2043C219.37 59.2043 218.578 59.1454 218.525 59.1389L218.565 58.5043C218.584 58.5043 220.351 58.6417 221.549 58.5109C221.621 58.3342 221.764 57.3529 220.39 52.2174C219.618 49.3193 218.741 46.5193 218.728 46.4932L219.232 46.2708C219.239 46.2969 220.109 49.0707 220.888 51.9623C222.491 57.9417 222.131 58.6155 221.993 58.8707C221.908 59.0277 221.784 59.1258 221.64 59.1389C221.215 59.1847 220.724 59.2043 220.259 59.2043Z" fill="#240D0D"/>
<path d="M216.104 37.7268C215.881 37.6876 215.672 37.6418 215.462 37.596L215.299 38.0147C215.528 38.067 215.763 38.1128 216.012 38.1586C217.884 38.4988 220.684 38.7147 223.446 37.7792L223.302 37.3539C220.638 38.2698 217.916 38.0605 216.104 37.7268Z" fill="#A1542E"/>
<path d="M215.195 40.6838C214.92 40.6315 214.659 40.5726 214.403 40.5137L214.076 40.939C214.358 41.0044 214.645 41.0633 214.953 41.1287C217.276 41.5866 220.849 41.9595 224.657 41.1548L224.585 40.7165C220.914 41.4885 217.453 41.1221 215.195 40.6838Z" fill="#A1542E"/>
<path d="M217.387 64.5425C217.113 64.4771 216.844 64.3855 216.589 64.2678C214.953 63.4893 214.318 61.7229 214.299 61.651L214.79 61.5332L214.593 61.5921L214.94 61.5332C214.947 61.5463 215.287 62.9005 216.759 63.5939C217.839 64.1042 219.174 64.0977 220.725 63.4696L220.882 64.1042C219.579 64.6276 218.408 64.778 217.387 64.5425Z" fill="#240D0D"/>
<path d="M230.763 45.9762C230.704 45.95 226.66 44.7725 223.48 45.4725L223.133 44.3211C224.945 43.922 225.174 44.0005 227.497 44.1575C229.199 44.2753 230.71 44.8641 230.769 44.8902L230.763 45.9762Z" fill="#240D0D"/>
<path d="M205.675 46.1006C205.733 46.0744 209.745 44.7922 212.945 45.4006L213.265 44.2361C211.439 43.8894 211.217 43.9745 208.901 44.1904C207.206 44.3474 205.707 44.9819 205.648 45.0081L205.675 46.1006Z" fill="#240D0D"/>
<path d="M200.492 52.0407C200.401 51.9818 198.261 50.5099 198.169 48.4818C198.117 47.3762 198.68 46.3295 199.845 45.3809L200.139 45.7407C199.099 46.5977 198.588 47.5136 198.634 48.4622C198.719 50.2613 200.734 51.6482 200.754 51.6612L200.492 52.0407Z" fill="#C4775C"/>
<path d="M236.148 51.8445C236.24 51.7856 238.38 50.3136 238.471 48.2856C238.524 47.18 237.961 46.1333 236.796 45.1847L236.502 45.5445C237.542 46.4015 238.053 47.3174 238.007 48.266C237.922 50.065 235.906 51.4519 235.887 51.465L236.148 51.8445Z" fill="#C4775C"/>
<path d="M203.09 46.6894V47.1473C203.869 47.3501 204.582 47.6903 205.177 48.0371L205.275 47.6118C204.647 47.252 203.901 46.8987 203.09 46.6894Z" fill="#A1542E"/>
<path d="M203.012 49.5416L203.162 49.9407C203.902 49.5286 204.628 49.2734 205.263 49.1295L205.204 48.6846C204.543 48.8416 203.784 49.1033 203.012 49.5416Z" fill="#A1542E"/>
<path d="M233.309 46.8921V47.35C232.53 47.5528 231.817 47.893 231.221 48.2397L231.123 47.8145C231.745 47.4482 232.491 47.1014 233.309 46.8921Z" fill="#A1542E"/>
<path d="M233.386 49.7446L233.235 50.1436C232.496 49.7315 231.769 49.4763 231.135 49.3324L231.194 48.8876C231.848 49.0446 232.607 49.3063 233.386 49.7446Z" fill="#A1542E"/>
<path d="M238.562 37.8969C238.562 37.2885 238.386 36.7193 238.085 36.2417C237.764 35.7315 237.679 35.1034 237.862 34.5277C237.96 34.2268 238.006 33.9128 238.006 33.5791C238.006 32.853 237.758 32.1922 237.345 31.6623C236.959 31.1651 236.783 30.5371 236.841 29.9156C236.848 29.8175 236.855 29.7128 236.855 29.6147C236.855 28.4633 236.233 27.4624 235.31 26.9194C234.918 26.6904 234.676 26.2717 234.676 25.8138C234.676 25.8007 234.676 25.7876 234.676 25.768C234.676 24.4596 233.871 23.3344 232.726 22.8699C232.124 22.6278 231.6 22.2157 231.247 21.6661C230.691 20.8026 229.722 20.2334 228.616 20.2334C228.583 20.2334 228.551 20.2334 228.512 20.2334C227.903 20.2531 227.334 19.939 226.993 19.4353C226.431 18.611 225.482 18.0746 224.415 18.0746C224.363 18.0746 224.317 18.0746 224.265 18.0811C223.676 18.1073 223.107 17.8914 222.662 17.4923C222.105 16.9951 221.379 16.6942 220.574 16.6942C219.854 16.6942 219.193 16.9363 218.663 17.3484C218.251 17.669 217.721 17.7933 217.204 17.7082C217.034 17.6821 216.864 17.669 216.687 17.669C216.236 17.669 215.804 17.7671 215.411 17.9372C214.672 18.2708 213.847 18.3755 213.062 18.1793C212.82 18.1204 212.558 18.0877 212.297 18.0877C211.282 18.0877 210.379 18.5718 209.81 19.3241C209.385 19.8867 208.711 20.1942 208.004 20.1942C207.997 20.1942 207.997 20.1942 207.991 20.1942C206.532 20.1942 205.308 21.1951 204.961 22.5428C204.942 22.6082 204.883 22.654 204.811 22.654C204.785 22.654 204.758 22.654 204.732 22.654C203.365 22.654 202.206 23.5306 201.781 24.754C201.611 25.2446 201.277 25.6502 200.845 25.9381C200.008 26.5007 199.458 27.4493 199.458 28.5353C199.458 28.6465 199.465 28.7577 199.478 28.8689C199.524 29.3203 199.406 29.7652 199.131 30.125C198.719 30.6549 198.477 31.3156 198.477 32.0352C198.477 32.5259 198.588 32.9904 198.791 33.4025C199.013 33.8539 199.013 34.3838 198.791 34.8352C198.588 35.2474 198.477 35.7118 198.477 36.2025C198.477 36.6277 198.562 37.0399 198.719 37.4128C198.908 37.8707 198.928 38.381 198.771 38.8455C198.666 39.1595 198.607 39.4997 198.607 39.8464C198.607 40.3894 198.745 40.8931 198.987 41.338C199.249 41.8155 199.275 42.3781 199.105 42.895C199.007 43.2024 201.205 44.2295 202.076 46.9968C202.128 46.9968 202.174 47.023 202.206 47.0622L202.259 47.1342C202.259 47.1342 202.259 47.1276 202.259 47.108C202.265 47.0361 202.377 47.0426 202.39 46.9772C202.92 44.2295 204.883 42.2996 204.366 41.737C204.32 41.6847 204.313 41.6127 204.353 41.5539C204.654 41.0959 204.837 40.5595 204.863 39.9772C204.87 39.8987 204.929 39.8398 205.007 39.8333C206.669 39.7613 207.997 38.3875 207.997 36.7128C207.997 36.7062 207.997 36.6997 207.997 36.6931C208.109 36.7062 208.22 36.7128 208.338 36.7128C209.038 36.7128 209.686 36.4838 210.209 36.0913C210.68 35.738 211.335 35.7249 211.819 36.052C212.316 36.3922 212.925 36.5885 213.573 36.5885C214.148 36.5885 214.692 36.4315 215.15 36.1632C215.627 35.8819 216.21 35.8296 216.74 36.0062C217.433 36.2352 218.186 36.4249 219.056 36.4969C219.835 36.5623 220.509 36.4642 221.124 36.281C221.516 36.1632 221.942 36.1959 222.308 36.3791C222.727 36.5885 223.205 36.7128 223.709 36.7128C224.068 36.7128 224.415 36.6539 224.736 36.5361C225.429 36.2941 226.195 36.4838 226.719 37.0006C227.281 37.5567 228.053 37.8969 228.911 37.8969C228.943 37.8969 228.983 37.8969 229.015 37.8969C229.421 37.8838 229.755 38.2109 229.735 38.6165C229.735 38.6557 229.735 38.695 229.735 38.7342C229.735 39.6698 230.147 40.5071 230.795 41.0828C231.279 41.5081 231.567 42.1165 231.554 42.7641C231.554 42.7837 231.554 42.8099 231.554 42.8295C231.554 43.9417 232.13 44.9099 233 45.466C233.766 45.9566 234.296 46.7417 234.466 47.6314C234.558 48.0959 234.636 48.4818 234.695 48.7697C234.728 48.9202 234.937 48.9332 234.983 48.7893L235.264 47.9585C235.651 46.8136 236.272 45.7669 237.057 44.8445C237.522 44.3015 237.803 43.595 237.803 42.823C237.803 42.4305 237.731 42.0576 237.601 41.7109C237.352 41.0567 237.483 40.3305 237.908 39.7744C238.327 39.2641 238.562 38.6099 238.562 37.8969Z" fill="#240D0D"/>
<path d="M212.336 36.0063L223.258 36.0129C225.581 36.0129 234.938 37.2166 234.938 48.4296C234.938 59.6426 233.616 90.2069 237.424 93.7788C239.584 81.0088 248.28 79.5761 248.28 79.5761C248.28 79.5761 244.112 64.7912 243.157 45.381C242.208 26.1344 230.403 15.7915 220.418 15.7915H216.688C206.696 15.7915 192.994 25.6176 192.752 41.6324C192.49 59.2108 190.645 79.1378 190.645 79.1378C190.645 79.1378 198.883 79.0724 200.872 92.3461C205.315 80.878 201.023 58.9884 201.147 49.4763C201.297 38.1259 210.04 36.0063 212.336 36.0063Z" fill="white"/>
<path d="M240.734 32.768C239.34 34.639 198.561 35.8689 194.36 32.768C193.68 32.2642 194.367 30.0988 195.152 30.2885C204.044 32.4474 231.423 31.5511 239.916 30.2885C240.728 30.1708 241.251 32.0745 240.734 32.768Z" fill="#302423"/>
<path d="M239.479 30.5634C238.164 32.3297 199.674 33.4877 195.709 30.5634C195.068 30.0924 195.716 28.0447 196.462 28.2213C204.85 30.2559 230.697 29.412 238.713 28.2213C239.472 28.1101 239.963 29.9092 239.479 30.5634Z" fill="#302423"/>
<path d="M234.007 46.4604C233.922 45.9697 233.778 45.4987 233.595 45.0538C233.32 44.3996 232.954 43.8043 232.502 43.2744C232.214 42.9342 231.887 42.6202 231.534 42.3455C230.382 41.4361 228.929 40.8931 227.346 40.8931C223.721 40.8931 220.757 43.7454 220.586 47.3239H215.64C215.463 43.7389 212.505 40.8931 208.88 40.8931C207.061 40.8931 205.405 41.6128 204.188 42.7838C203.645 43.3006 203.194 43.909 202.847 44.5828C202.67 44.923 202.526 45.2763 202.415 45.6426C202.317 45.9632 202.238 46.2968 202.186 46.637C202.173 46.6959 202.166 46.7548 202.16 46.8136C202.153 46.866 202.147 46.9249 202.14 46.9772C202.134 47.0295 202.134 47.0753 202.127 47.1277C202.114 47.2978 202.107 47.4744 202.107 47.651C202.107 47.8277 202.114 47.9978 202.127 48.1744C202.134 48.2791 202.147 48.3837 202.16 48.4884C202.166 48.5473 202.173 48.6062 202.186 48.665C202.336 49.6856 202.716 50.6276 203.272 51.4454C203.645 51.9949 204.103 52.4921 204.62 52.9108C205.785 53.8529 207.264 54.422 208.88 54.422C212.505 54.422 215.463 51.5697 215.64 47.9912H220.586C220.763 51.5762 223.721 54.422 227.346 54.422C228.674 54.422 229.911 54.0426 230.958 53.3818C231.377 53.1136 231.769 52.8061 232.116 52.4594C233.353 51.2295 234.119 49.5351 234.119 47.6576C234.112 47.252 234.079 46.8529 234.007 46.4604ZM214.913 47.8015C214.9 48.3837 214.808 48.9398 214.638 49.4697C214.625 49.5155 214.606 49.5613 214.593 49.6071C214.148 50.922 213.258 52.0342 212.113 52.7603C211.674 53.0416 211.19 53.2641 210.679 53.4276C210.11 53.6108 209.502 53.7024 208.873 53.7024C207.323 53.7024 205.909 53.1201 204.843 52.165C204.254 51.6351 203.769 50.994 203.423 50.2744C203.364 50.1501 203.305 50.0192 203.259 49.8949C203.207 49.7641 203.161 49.6267 203.115 49.4893C202.932 48.9136 202.834 48.2987 202.834 47.6641C202.834 47.3763 202.853 47.0884 202.893 46.8136C202.971 46.2641 203.122 45.7342 203.338 45.237C203.711 44.3866 204.273 43.6473 204.967 43.052C205.098 42.9408 205.229 42.8361 205.366 42.738C206.354 42.0314 207.565 41.6193 208.873 41.6193C208.945 41.6193 209.017 41.6193 209.089 41.6258C209.744 41.6455 210.372 41.7763 210.961 41.9922C213.225 42.8296 214.854 44.9819 214.907 47.5267C214.887 47.5725 214.874 47.6183 214.874 47.6641C214.887 47.7099 214.9 47.7557 214.913 47.8015ZM233.163 49.3062C233.137 49.3977 233.111 49.4893 233.078 49.5809C233.032 49.7183 232.98 49.8491 232.928 49.98C232.751 50.4052 232.528 50.8043 232.26 51.1772C232.155 51.3211 232.044 51.465 231.926 51.6024C231.567 52.0211 231.148 52.3874 230.683 52.6949C230.631 52.7276 230.585 52.7603 230.533 52.793C230.14 53.0351 229.715 53.2379 229.27 53.3884C228.668 53.5912 228.02 53.7024 227.346 53.7024C224.009 53.7024 221.3 50.994 221.3 47.6576C221.3 45.7669 222.17 44.0791 223.531 42.9735C223.662 42.8688 223.793 42.7641 223.937 42.6726C224.774 42.0969 225.769 41.7305 226.849 41.6389C227.012 41.6258 227.182 41.6193 227.352 41.6193C228.151 41.6193 228.91 41.7698 229.603 42.0511C230.356 42.352 231.03 42.8034 231.599 43.3595C231.606 43.366 231.619 43.3791 231.625 43.3856C231.763 43.5165 231.887 43.6604 232.005 43.8043C232.221 44.0595 232.411 44.3408 232.581 44.6286C232.731 44.8838 232.862 45.152 232.973 45.4333C233.026 45.5576 233.072 45.6884 233.111 45.8193C233.294 46.395 233.399 47.0165 233.399 47.6576C233.386 48.2333 233.307 48.7828 233.163 49.3062Z" fill="#240D0D"/>
<path d="M209.889 51.1773C210.745 51.1773 211.44 50.1229 211.44 48.8222C211.44 47.5215 210.745 46.467 209.889 46.467C209.032 46.467 208.338 47.5215 208.338 48.8222C208.338 50.1229 209.032 51.1773 209.889 51.1773Z" fill="#240D0D"/>
<path d="M226.332 51.1773C227.189 51.1773 227.883 50.1229 227.883 48.8222C227.883 47.5215 227.189 46.467 226.332 46.467C225.476 46.467 224.781 47.5215 224.781 48.8222C224.781 50.1229 225.476 51.1773 226.332 51.1773Z" fill="#240D0D"/>
<path d="M208.271 73.8192L216.17 77.0313L217.969 82.7098L219.69 77.2603L227.739 73.6622V83.1939L218.113 90.5602L208.271 83.0957V73.8192Z" fill="white"/>
<path d="M200.727 93.4124L200.55 92.3918C199.451 86.0461 196.814 82.9386 194.792 81.4536C192.626 79.8573 190.715 79.7396 190.695 79.7396L190.728 79.0985C190.813 79.105 192.848 79.2293 195.165 80.9368C196.519 81.9312 197.684 83.2592 198.639 84.8882C199.673 86.6545 200.458 88.7807 200.975 91.2208C203.05 85.6339 202.794 76.8873 202.788 76.7957L203.429 76.7761C203.442 77.1882 203.724 86.8638 201.152 92.4703L200.727 93.4124Z" fill="#C6C4C5"/>
<path d="M237.502 94.8516L237.071 93.9096C234.499 88.3031 234.682 77.2863 234.689 76.8153L235.33 76.8284C235.33 76.9331 235.16 86.9227 237.254 92.6535C237.777 90.2003 238.602 88.0087 239.708 86.1246C240.722 84.3975 241.978 82.919 243.437 81.7414C245.931 79.7265 248.136 79.2751 248.227 79.2555L248.352 79.8835L248.293 79.5695L248.358 79.8835C248.339 79.8901 246.192 80.3284 243.817 82.2583C241.625 84.0377 238.785 87.4919 237.692 93.8245L237.502 94.8516Z" fill="#C6C4C5"/>
<path d="M218.015 104.992L217.629 83.5209L218.336 83.5602L218.722 105.031L218.015 104.992Z" fill="#C6C4C5"/>
<path d="M295.636 178.21C295.636 178.72 295.427 179.185 295.093 179.525C294.759 179.859 294.294 180.068 293.784 180.068H8.45212C7.42478 180.068 6.59375 179.237 6.59375 178.21C6.59375 177.7 6.80314 177.235 7.13686 176.895C7.47059 176.562 7.93518 176.352 8.45212 176.352H293.784C294.805 176.352 295.636 177.183 295.636 178.21Z" fill="#2A4767"/>
<path d="M176.014 173.244H33.8095C30.3087 173.244 27.4688 170.732 27.4688 167.638V86.4189C27.4688 83.3245 30.3087 80.8124 33.8095 80.8124H176.014C179.515 80.8124 182.355 83.3245 182.355 86.4189V167.638C182.348 170.739 179.515 173.244 176.014 173.244Z" fill="#3A3C3D"/>
<path d="M187.563 181.468H20.3685C19.5898 181.468 18.9551 180.833 18.9551 180.055V178.262C18.9551 177.484 19.5898 176.849 20.3685 176.849H187.563C188.342 176.849 188.976 177.484 188.976 178.262V180.055C188.976 180.833 188.348 181.468 187.563 181.468Z" fill="#3A3C3D"/>
<path d="M172.402 164.158H37.4217C34.0976 164.158 31.4082 162.031 31.4082 159.402V90.5469C31.4082 87.9235 34.1042 85.7908 37.4217 85.7908H172.402C175.726 85.7908 178.416 87.917 178.416 90.5469V159.408C178.416 162.031 175.72 164.158 172.402 164.158Z" fill="white"/>
<path d="M186.137 179.159H21.795C20.2245 179.159 18.9551 178.57 18.9551 177.844L27.3636 166.323H182.295L188.976 177.844C188.976 178.57 187.707 179.159 186.137 179.159Z" fill="#EAE9E8"/>
<path d="M38.9457 171.714H30.125V173.859H38.9457V171.714Z" fill="#BABBC0"/>
<path d="M49.6059 171.714H40.7852V173.859H49.6059V171.714Z" fill="#BABBC0"/>
<path d="M60.1723 171.714H51.3516V173.859H60.1723V171.714Z" fill="#BABBC0"/>
<path d="M70.7406 171.714H61.9199V173.859H70.7406V171.714Z" fill="#BABBC0"/>
<path d="M42.0922 169.287H33.2715V170.876H42.0922V169.287Z" fill="#BABBC0"/>
<path d="M52.7524 169.287H43.9316V170.876H52.7524V169.287Z" fill="#BABBC0"/>
<path d="M63.3207 169.287H54.5V170.876H63.3207V169.287Z" fill="#BABBC0"/>
<path d="M73.8891 169.287H65.0684V170.876H73.8891V169.287Z" fill="#BABBC0"/>
<path d="M84.0766 169.287H75.2559V170.876H84.0766V169.287Z" fill="#BABBC0"/>
<path d="M94.7367 169.287H85.916V170.876H94.7367V169.287Z" fill="#BABBC0"/>
<path d="M105.297 169.287H96.4766V170.876H105.297V169.287Z" fill="#BABBC0"/>
<path d="M115.866 169.287H107.045V170.876H115.866V169.287Z" fill="#BABBC0"/>
<path d="M126.053 169.287H117.232V170.876H126.053V169.287Z" fill="#BABBC0"/>
<path d="M136.713 169.287H127.893V170.876H136.713V169.287Z" fill="#BABBC0"/>
<path d="M147.282 169.287H138.461V170.876H147.282V169.287Z" fill="#BABBC0"/>
<path d="M157.848 169.287H149.027V170.876H157.848V169.287Z" fill="#BABBC0"/>
<path d="M168.038 169.287H159.217V170.876H168.038V169.287Z" fill="#BABBC0"/>
<path d="M178.696 169.287H169.875V170.876H178.696V169.287Z" fill="#BABBC0"/>
<path d="M46.9223 167.141H38.1016V168.731H46.9223V167.141Z" fill="#BABBC0"/>
<path d="M57.5824 167.141H48.7617V168.731H57.5824V167.141Z" fill="#BABBC0"/>
<path d="M68.1488 167.141H59.3281V168.731H68.1488V167.141Z" fill="#BABBC0"/>
<path d="M78.7172 167.141H69.8965V168.731H78.7172V167.141Z" fill="#BABBC0"/>
<path d="M88.9067 167.141H80.0859V168.731H88.9067V167.141Z" fill="#BABBC0"/>
<path d="M99.5649 167.141H90.7441V168.731H99.5649V167.141Z" fill="#BABBC0"/>
<path d="M110.133 167.141H101.312V168.731H110.133V167.141Z" fill="#BABBC0"/>
<path d="M120.702 167.141H111.881V168.731H120.702V167.141Z" fill="#BABBC0"/>
<path d="M130.889 167.141H122.068V168.731H130.889V167.141Z" fill="#BABBC0"/>
<path d="M141.549 167.141H132.729V168.731H141.549V167.141Z" fill="#BABBC0"/>
<path d="M152.118 167.141H143.297V168.731H152.118V167.141Z" fill="#BABBC0"/>
<path d="M162.684 167.141H153.863V168.731H162.684V167.141Z" fill="#BABBC0"/>
<path d="M172.873 167.141H164.053V168.731H172.873V167.141Z" fill="#BABBC0"/>
<path d="M136.719 171.714H127.898V173.859H136.719V171.714Z" fill="#BABBC0"/>
<path d="M147.379 171.714H138.559V173.859H147.379V171.714Z" fill="#BABBC0"/>
<path d="M160.256 172.505H151.436V173.859H160.256V172.505Z" fill="#BABBC0"/>
<path d="M170.825 171.714H162.004V173.859H170.825V171.714Z" fill="#BABBC0"/>
<path d="M181.549 172.505H172.729V173.859H181.549V172.505Z" fill="#BABBC0"/>
<path d="M125.328 171.714H72.4883V173.859H125.328V171.714Z" fill="#BABBC0"/>
<path d="M127.715 178.465H79.4369C79.2209 178.465 79.0508 178.288 79.0508 178.079V175.619C79.0508 175.403 79.2275 175.233 79.4369 175.233H127.715C127.931 175.233 128.101 175.41 128.101 175.619V178.079C128.101 178.288 127.925 178.465 127.715 178.465Z" fill="#BABBC0"/>
<path d="M79.5076 118.37H43.7208C41.7185 118.37 40.0957 116.748 40.0957 114.746V92.778C40.0957 90.7761 41.7185 89.1537 43.7208 89.1537H79.5076C81.5099 89.1537 83.1327 90.7761 83.1327 92.778V114.746C83.1327 116.754 81.5099 118.37 79.5076 118.37Z" fill="#EAE9E8"/>
<path d="M116.264 110.958H92.9554C92.0655 110.958 91.3457 110.238 91.3457 109.349V91.8554C91.3457 90.9657 92.0655 90.246 92.9554 90.246H116.264C117.154 90.246 117.873 90.9657 117.873 91.8554V109.349C117.88 110.238 117.154 110.958 116.264 110.958Z" fill="#EAE9E8"/>
<path d="M116.264 135.791H92.9554C92.0655 135.791 91.3457 135.072 91.3457 134.182V116.689C91.3457 115.799 92.0655 115.079 92.9554 115.079H116.264C117.154 115.079 117.873 115.799 117.873 116.689V134.182C117.88 135.072 117.154 135.791 116.264 135.791Z" fill="#EAE9E8"/>
<path d="M116.264 160.625H92.9554C92.0655 160.625 91.3457 159.905 91.3457 159.016V141.522C91.3457 140.633 92.0655 139.913 92.9554 139.913H116.264C117.154 139.913 117.873 140.633 117.873 141.522V159.016C117.88 159.905 117.154 160.625 116.264 160.625Z" fill="#EAE9E8"/>
<path d="M82.4072 125.174H40.0115C39.6123 125.174 39.2852 124.847 39.2852 124.448V124.193C39.2852 123.794 39.6123 123.466 40.0115 123.466H82.4072C82.8064 123.466 83.1336 123.794 83.1336 124.193V124.448C83.1336 124.853 82.8064 125.174 82.4072 125.174Z" fill="#CECECE"/>
<path d="M82.4072 128.039H40.0115C39.6123 128.039 39.2852 127.712 39.2852 127.313V127.058C39.2852 126.659 39.6123 126.332 40.0115 126.332H82.4072C82.8064 126.332 83.1336 126.659 83.1336 127.058V127.313C83.1336 127.712 82.8064 128.039 82.4072 128.039Z" fill="#CECECE"/>
<path d="M82.4072 130.898H40.0115C39.6123 130.898 39.2852 130.571 39.2852 130.172V129.917C39.2852 129.518 39.6123 129.19 40.0115 129.19H82.4072C82.8064 129.19 83.1336 129.518 83.1336 129.917V130.172C83.1336 130.571 82.8064 130.898 82.4072 130.898Z" fill="#CECECE"/>
<path d="M82.4072 133.763H40.0115C39.6123 133.763 39.2852 133.436 39.2852 133.037V132.782C39.2852 132.383 39.6123 132.056 40.0115 132.056H82.4072C82.8064 132.056 83.1336 132.383 83.1336 132.782V133.037C83.1336 133.436 82.8064 133.763 82.4072 133.763Z" fill="#CECECE"/>
<path d="M82.4072 140.325H40.0115C39.6123 140.325 39.2852 139.998 39.2852 139.599V139.344C39.2852 138.945 39.6123 138.618 40.0115 138.618H82.4072C82.8064 138.618 83.1336 138.945 83.1336 139.344V139.599C83.1336 139.998 82.8064 140.325 82.4072 140.325Z" fill="#CECECE"/>
<path d="M82.4072 143.184H40.0115C39.6123 143.184 39.2852 142.857 39.2852 142.458V142.203C39.2852 141.804 39.6123 141.477 40.0115 141.477H82.4072C82.8064 141.477 83.1336 141.804 83.1336 142.203V142.458C83.1336 142.857 82.8064 143.184 82.4072 143.184Z" fill="#CECECE"/>
<path d="M82.4072 146.049H40.0115C39.6123 146.049 39.2852 145.722 39.2852 145.323V145.068C39.2852 144.669 39.6123 144.342 40.0115 144.342H82.4072C82.8064 144.342 83.1336 144.669 83.1336 145.068V145.323C83.1336 145.722 82.8064 146.049 82.4072 146.049Z" fill="#CECECE"/>
<path d="M82.4072 152.761H40.0115C39.6123 152.761 39.2852 152.434 39.2852 152.035V151.78C39.2852 151.381 39.6123 151.054 40.0115 151.054H82.4072C82.8064 151.054 83.1336 151.381 83.1336 151.78V152.035C83.1336 152.434 82.8064 152.761 82.4072 152.761Z" fill="#CECECE"/>
<path d="M82.4072 155.62H40.0115C39.6123 155.62 39.2852 155.293 39.2852 154.894V154.639C39.2852 154.24 39.6123 153.913 40.0115 153.913H82.4072C82.8064 153.913 83.1336 154.24 83.1336 154.639V154.894C83.1336 155.3 82.8064 155.62 82.4072 155.62Z" fill="#CECECE"/>
<path d="M82.4072 158.486H40.0115C39.6123 158.486 39.2852 158.159 39.2852 157.759V157.504C39.2852 157.105 39.6123 156.778 40.0115 156.778H82.4072C82.8064 156.778 83.1336 157.105 83.1336 157.504V157.759C83.1336 158.159 82.8064 158.486 82.4072 158.486Z" fill="#CECECE"/>
<path d="M82.4072 161.345H40.0115C39.6123 161.345 39.2852 161.018 39.2852 160.619V160.363C39.2852 159.964 39.6123 159.637 40.0115 159.637H82.4072C82.8064 159.637 83.1336 159.964 83.1336 160.363V160.619C83.1336 161.018 82.8064 161.345 82.4072 161.345Z" fill="#CECECE"/>
<path d="M170.589 93.5693H122.461C122.062 93.5693 121.734 93.2422 121.734 92.8432V92.588C121.734 92.189 122.062 91.8619 122.461 91.8619H170.589C170.988 91.8619 171.315 92.189 171.315 92.588V92.8432C171.315 93.2422 170.994 93.5693 170.589 93.5693Z" fill="#CECECE"/>
<path d="M170.589 96.4282H122.461C122.062 96.4282 121.734 96.1011 121.734 95.702V95.4469C121.734 95.0478 122.062 94.7207 122.461 94.7207H170.589C170.988 94.7207 171.315 95.0478 171.315 95.4469V95.702C171.315 96.1076 170.994 96.4282 170.589 96.4282Z" fill="#CECECE"/>
<path d="M170.589 99.2937H122.461C122.062 99.2937 121.734 98.9665 121.734 98.5675V98.3124C121.734 97.9133 122.062 97.5862 122.461 97.5862H170.589C170.988 97.5862 171.315 97.9133 171.315 98.3124V98.5675C171.315 98.9665 170.994 99.2937 170.589 99.2937Z" fill="#CECECE"/>
<path d="M170.589 102.152H122.461C122.062 102.152 121.734 101.825 121.734 101.426V101.171C121.734 100.772 122.062 100.445 122.461 100.445H170.589C170.988 100.445 171.315 100.772 171.315 101.171V101.426C171.315 101.832 170.994 102.152 170.589 102.152Z" fill="#CECECE"/>
<path d="M170.589 105.018H122.461C122.062 105.018 121.734 104.691 121.734 104.292V104.037C121.734 103.638 122.062 103.31 122.461 103.31H170.589C170.988 103.31 171.315 103.638 171.315 104.037V104.292C171.315 104.691 170.994 105.018 170.589 105.018Z" fill="#CECECE"/>
<path d="M143.917 107.877H122.461C122.062 107.877 121.734 107.55 121.734 107.151V106.895C121.734 106.496 122.062 106.169 122.461 106.169H143.917C144.316 106.169 144.643 106.496 144.643 106.895V107.151C144.643 107.55 144.316 107.877 143.917 107.877Z" fill="#CECECE"/>
<path d="M170.589 119.168H122.461C122.062 119.168 121.734 118.841 121.734 118.442V118.187C121.734 117.788 122.062 117.461 122.461 117.461H170.589C170.988 117.461 171.315 117.788 171.315 118.187V118.442C171.315 118.848 170.994 119.168 170.589 119.168Z" fill="#CECECE"/>
<path d="M170.589 122.034H122.461C122.062 122.034 121.734 121.707 121.734 121.308V121.052C121.734 120.653 122.062 120.326 122.461 120.326H170.589C170.988 120.326 171.315 120.653 171.315 121.052V121.308C171.315 121.707 170.994 122.034 170.589 122.034Z" fill="#CECECE"/>
<path d="M170.589 124.893H122.461C122.062 124.893 121.734 124.565 121.734 124.166V123.911C121.734 123.512 122.062 123.185 122.461 123.185H170.589C170.988 123.185 171.315 123.512 171.315 123.911V124.166C171.315 124.565 170.994 124.893 170.589 124.893Z" fill="#CECECE"/>
<path d="M170.589 127.758H122.461C122.062 127.758 121.734 127.431 121.734 127.032V126.777C121.734 126.378 122.062 126.051 122.461 126.051H170.589C170.988 126.051 171.315 126.378 171.315 126.777V127.032C171.315 127.431 170.994 127.758 170.589 127.758Z" fill="#CECECE"/>
<path d="M154.06 130.748H122.461C122.062 130.748 121.734 130.42 121.734 130.021V129.766C121.734 129.367 122.062 129.04 122.461 129.04H154.06C154.459 129.04 154.786 129.367 154.786 129.766V130.021C154.786 130.427 154.465 130.748 154.06 130.748Z" fill="#CECECE"/>
<path d="M170.589 142.334H122.461C122.062 142.334 121.734 142.007 121.734 141.607V141.352C121.734 140.953 122.062 140.626 122.461 140.626H170.589C170.988 140.626 171.315 140.953 171.315 141.352V141.607C171.315 142.007 170.994 142.334 170.589 142.334Z" fill="#CECECE"/>
<path d="M170.589 145.192H122.461C122.062 145.192 121.734 144.865 121.734 144.466V144.211C121.734 143.812 122.062 143.485 122.461 143.485H170.589C170.988 143.485 171.315 143.812 171.315 144.211V144.466C171.315 144.865 170.994 145.192 170.589 145.192Z" fill="#CECECE"/>
<path d="M170.589 148.058H122.461C122.062 148.058 121.734 147.731 121.734 147.332V147.076C121.734 146.677 122.062 146.35 122.461 146.35H170.589C170.988 146.35 171.315 146.677 171.315 147.076V147.332C171.315 147.731 170.994 148.058 170.589 148.058Z" fill="#CECECE"/>
<path d="M170.589 150.917H122.461C122.062 150.917 121.734 150.59 121.734 150.191V149.935C121.734 149.536 122.062 149.209 122.461 149.209H170.589C170.988 149.209 171.315 149.536 171.315 149.935V150.191C171.315 150.59 170.994 150.917 170.589 150.917Z" fill="#CECECE"/>
<path d="M170.589 153.776H122.461C122.062 153.776 121.734 153.448 121.734 153.049V152.794C121.734 152.395 122.062 152.068 122.461 152.068H170.589C170.988 152.068 171.315 152.395 171.315 152.794V153.049C171.315 153.455 170.994 153.776 170.589 153.776Z" fill="#CECECE"/>
<path d="M155.564 156.641H122.467C122.067 156.641 121.74 156.314 121.74 155.915V155.66C121.74 155.261 122.067 154.934 122.467 154.934H155.564C155.963 154.934 156.29 155.261 156.29 155.66V155.915C156.29 156.314 155.963 156.641 155.564 156.641Z" fill="#CECECE"/>
<path d="M112.776 107.066H97.1759C96.1682 107.066 95.3438 106.248 95.3438 105.234V97.5013C95.3438 96.4938 96.1617 95.6695 97.1759 95.6695H112.776C113.784 95.6695 114.608 96.4872 114.608 97.5013V105.234C114.608 106.248 113.784 107.066 112.776 107.066Z" fill="#2A4767"/>
<path d="M112.762 97.1804H96.9336V99.3131H112.762V97.1804Z" fill="white"/>
<path d="M98.6161 101.61H97.1896C96.9606 101.61 96.7773 101.426 96.7773 101.197V100.282C96.7773 100.053 96.9606 99.8694 97.1896 99.8694H98.6161C98.8451 99.8694 99.0283 100.053 99.0283 100.282V101.197C99.0283 101.426 98.8451 101.61 98.6161 101.61Z" fill="white"/>
<path d="M101.364 101.61H99.9376C99.7086 101.61 99.5254 101.426 99.5254 101.197V100.282C99.5254 100.053 99.7086 99.8694 99.9376 99.8694H101.364C101.593 99.8694 101.776 100.053 101.776 100.282V101.197C101.776 101.426 101.587 101.61 101.364 101.61Z" fill="white"/>
<path d="M104.106 101.61H102.68C102.451 101.61 102.268 101.426 102.268 101.197V100.282C102.268 100.053 102.451 99.8694 102.68 99.8694H104.106C104.335 99.8694 104.519 100.053 104.519 100.282V101.197C104.519 101.426 104.335 101.61 104.106 101.61Z" fill="white"/>
<path d="M106.854 101.61H105.428C105.199 101.61 105.016 101.426 105.016 101.197V100.282C105.016 100.053 105.199 99.8694 105.428 99.8694H106.854C107.083 99.8694 107.267 100.053 107.267 100.282V101.197C107.267 101.426 107.083 101.61 106.854 101.61Z" fill="white"/>
<path d="M109.602 101.61H108.176C107.947 101.61 107.764 101.426 107.764 101.197V100.282C107.764 100.053 107.947 99.8694 108.176 99.8694H109.602C109.831 99.8694 110.015 100.053 110.015 100.282V101.197C110.015 101.426 109.825 101.61 109.602 101.61Z" fill="white"/>
<path d="M112.345 101.61H110.918C110.689 101.61 110.506 101.426 110.506 101.197V100.282C110.506 100.053 110.689 99.8694 110.918 99.8694H112.345C112.574 99.8694 112.757 100.053 112.757 100.282V101.197C112.757 101.426 112.574 101.61 112.345 101.61Z" fill="white"/>
<path d="M98.6161 103.782H97.1896C96.9606 103.782 96.7773 103.598 96.7773 103.369V102.454C96.7773 102.225 96.9606 102.041 97.1896 102.041H98.6161C98.8451 102.041 99.0283 102.225 99.0283 102.454V103.369C99.0283 103.598 98.8451 103.782 98.6161 103.782Z" fill="white"/>
<path d="M101.364 103.782H99.9376C99.7086 103.782 99.5254 103.598 99.5254 103.369V102.454C99.5254 102.225 99.7086 102.041 99.9376 102.041H101.364C101.593 102.041 101.776 102.225 101.776 102.454V103.369C101.776 103.598 101.587 103.782 101.364 103.782Z" fill="white"/>
<path d="M104.106 103.782H102.68C102.451 103.782 102.268 103.598 102.268 103.369V102.454C102.268 102.225 102.451 102.041 102.68 102.041H104.106C104.335 102.041 104.519 102.225 104.519 102.454V103.369C104.519 103.598 104.335 103.782 104.106 103.782Z" fill="white"/>
<path d="M106.854 103.782H105.428C105.199 103.782 105.016 103.598 105.016 103.369V102.454C105.016 102.225 105.199 102.041 105.428 102.041H106.854C107.083 102.041 107.267 102.225 107.267 102.454V103.369C107.267 103.598 107.083 103.782 106.854 103.782Z" fill="white"/>
<path d="M109.602 103.782H108.176C107.947 103.782 107.764 103.598 107.764 103.369V102.454C107.764 102.225 107.947 102.041 108.176 102.041H109.602C109.831 102.041 110.015 102.225 110.015 102.454V103.369C110.015 103.598 109.825 103.782 109.602 103.782Z" fill="white"/>
<path d="M112.345 103.782H110.918C110.689 103.782 110.506 103.598 110.506 103.369V102.454C110.506 102.225 110.689 102.041 110.918 102.041H112.345C112.574 102.041 112.757 102.225 112.757 102.454V103.369C112.757 103.598 112.574 103.782 112.345 103.782Z" fill="white"/>
<path d="M98.6161 105.953H97.1896C96.9606 105.953 96.7773 105.77 96.7773 105.541V104.625C96.7773 104.396 96.9606 104.213 97.1896 104.213H98.6161C98.8451 104.213 99.0283 104.396 99.0283 104.625V105.541C99.0283 105.77 98.8451 105.953 98.6161 105.953Z" fill="white"/>
<path d="M101.364 105.953H99.9376C99.7086 105.953 99.5254 105.77 99.5254 105.541V104.625C99.5254 104.396 99.7086 104.213 99.9376 104.213H101.364C101.593 104.213 101.776 104.396 101.776 104.625V105.541C101.776 105.77 101.587 105.953 101.364 105.953Z" fill="white"/>
<path d="M104.106 105.953H102.68C102.451 105.953 102.268 105.77 102.268 105.541V104.625C102.268 104.396 102.451 104.213 102.68 104.213H104.106C104.335 104.213 104.519 104.396 104.519 104.625V105.541C104.519 105.77 104.335 105.953 104.106 105.953Z" fill="white"/>
<path d="M106.854 105.953H105.428C105.199 105.953 105.016 105.77 105.016 105.541V104.625C105.016 104.396 105.199 104.213 105.428 104.213H106.854C107.083 104.213 107.267 104.396 107.267 104.625V105.541C107.267 105.77 107.083 105.953 106.854 105.953Z" fill="white"/>
<path d="M112.345 105.953H108.17C107.941 105.953 107.758 105.77 107.758 105.541V104.625C107.758 104.396 107.941 104.213 108.17 104.213H112.345C112.574 104.213 112.757 104.396 112.757 104.625V105.541C112.757 105.77 112.574 105.953 112.345 105.953Z" fill="white"/>
<path d="M98.3086 126.79L99.3425 126.031H100.075L100.749 125.534L101.751 125.318L102.784 124.742H103.818L104.185 125.534L105.264 125.318L106.082 124.742L107.149 124.474L107.967 124.742L108.333 124.474L109.675 123.852L110.624 124.297L112.227 123.362L112.803 124.297V129.282H98.3086" fill="#2A4767"/>
<path d="M96.2731 118.239H96.2012V131.245H96.2731V118.239Z" fill="#2A4767"/>
<path d="M114.609 130.1H95.1875V130.172H114.609V130.1Z" fill="#2A4767"/>
<path d="M113.868 146.128H96.0234V154.037H113.868V146.128Z" fill="#2A4767"/>
<path d="M113.646 146.318H96.2402V153.854H113.646V146.318Z" fill="white"/>
<path d="M114.174 146.435H96.3301V154.345H114.174V146.435Z" fill="#2A4767"/>
<path d="M113.953 146.618H96.5469V154.155H113.953V146.618Z" fill="white"/>
<path d="M114.483 146.743H96.6387V154.652H114.483V146.743Z" fill="#2A4767"/>
<path d="M114.261 146.926H96.8555V154.462H114.261V146.926Z" fill="white"/>
<path d="M114.79 147.05H96.9453V154.96H114.79V147.05Z" fill="#2A4767"/>
<path d="M114.568 147.234H97.1621V154.77H114.568V147.234Z" fill="white"/>
<path d="M115.104 147.312H97.2598V155.221H115.104V147.312Z" fill="#2A4767"/>
<path d="M114.882 147.502H97.4766V155.038H114.882V147.502Z" fill="white"/>
<path d="M106.185 148.451C105.033 148.451 104.098 149.713 104.098 151.27C104.098 152.827 105.033 154.09 106.185 154.09C107.337 154.09 108.272 152.827 108.272 151.27C108.266 149.713 107.33 148.451 106.185 148.451Z" fill="#2A4767"/>
<path d="M112.12 147.796H100.198C100.198 149.137 99.1181 150.23 97.7832 150.256V152.284C99.1181 152.31 100.198 153.396 100.198 154.744H112.12C112.12 153.383 113.219 152.284 114.581 152.284V150.263C113.219 150.256 112.12 149.157 112.12 147.796ZM106.185 154.332C104.903 154.332 103.856 152.958 103.856 151.27C103.856 149.582 104.896 148.208 106.185 148.208C107.474 148.208 108.515 149.582 108.515 151.27C108.508 152.958 107.468 154.332 106.185 154.332Z" fill="#2A4767"/>
<path d="M105.976 153.73V153.128C105.629 153.121 105.276 153.017 105.066 152.866L105.21 152.467C105.42 152.605 105.734 152.722 106.068 152.722C106.493 152.722 106.781 152.474 106.781 152.134C106.781 151.806 106.545 151.597 106.1 151.421C105.485 151.178 105.112 150.897 105.112 150.374C105.112 149.877 105.466 149.497 106.015 149.406V148.804H106.395V149.386C106.748 149.399 106.997 149.497 107.173 149.595L107.023 149.994C106.899 149.922 106.65 149.785 106.264 149.785C105.799 149.785 105.629 150.06 105.629 150.308C105.629 150.616 105.852 150.773 106.375 150.995C106.997 151.25 107.304 151.551 107.304 152.088C107.304 152.565 106.977 153.01 106.355 153.108V153.73H105.976Z" fill="white"/>
<path d="M74.9549 97.0694H48.3553C47.9692 97.0694 47.8645 96.546 48.2179 96.3956L60.3954 91.3059C61.2003 90.9723 62.1098 90.9723 62.9147 91.3059L75.0923 96.3956C75.4456 96.5395 75.3409 97.0694 74.9549 97.0694Z" fill="#2A4767"/>
<path d="M47.791 111.226C47.791 110.952 48.0135 110.736 48.2818 110.736H75.0319C75.3067 110.736 75.5226 110.958 75.5226 111.226C75.5226 111.501 75.3001 111.717 75.0319 111.717H48.2818C48.007 111.724 47.791 111.501 47.791 111.226Z" fill="#2A4767"/>
<path d="M45.7559 112.816C45.7559 112.541 45.9783 112.325 46.2466 112.325H77.0603C77.3351 112.325 77.551 112.548 77.551 112.816C77.551 113.091 77.3285 113.307 77.0603 113.307H46.2466C45.9718 113.313 45.7559 113.091 45.7559 112.816Z" fill="#2A4767"/>
<path d="M44.4219 114.752C44.4219 114.478 44.6444 114.262 44.9126 114.262H79.7244C79.9992 114.262 80.2152 114.484 80.2152 114.752C80.2152 115.027 79.9927 115.243 79.7244 115.243H44.9126C44.6378 115.25 44.4219 115.027 44.4219 114.752Z" fill="#2A4767"/>
<path d="M56.3309 98.2143V97.7498H52.6992V98.2143H52.817C53.1834 98.2143 53.4779 98.5087 53.4779 98.875V110.101C53.4779 110.467 53.1834 110.762 52.817 110.762H52.6992V111.226H56.3309V110.762H56.2131C55.8467 110.762 55.5522 110.467 55.5522 110.101V98.875C55.5522 98.5087 55.8467 98.2143 56.2131 98.2143H56.3309Z" fill="#2A4767"/>
<path d="M61.1414 98.2143V97.7498H57.5098V98.2143H57.6276C57.994 98.2143 58.2885 98.5087 58.2885 98.875V110.101C58.2885 110.467 57.994 110.762 57.6276 110.762H57.5098V111.226H61.1414V110.762H61.0237C60.6572 110.762 60.3628 110.467 60.3628 110.101V98.875C60.3628 98.5087 60.6572 98.2143 61.0237 98.2143H61.1414Z" fill="#2A4767"/>
<path d="M65.95 98.2143V97.7498H62.3184V98.2143H62.4361C62.8026 98.2143 63.097 98.5087 63.097 98.875V110.101C63.097 110.467 62.8026 110.762 62.4361 110.762H62.3184V111.226H65.95V110.762H65.8323C65.4658 110.762 65.1714 110.467 65.1714 110.101V98.875C65.1714 98.5087 65.4658 98.2143 65.8323 98.2143H65.95Z" fill="#2A4767"/>
<path d="M70.7606 98.2143V97.7498H67.1289V98.2143H67.2467C67.6131 98.2143 67.9076 98.5087 67.9076 98.875V110.101C67.9076 110.467 67.6131 110.762 67.2467 110.762H67.1289V111.226H70.7606V110.762H70.6428C70.2764 110.762 69.9819 110.467 69.9819 110.101V98.875C69.9819 98.5087 70.2764 98.2143 70.6428 98.2143H70.7606Z" fill="#2A4767"/>
<defs>
<linearGradient id="paint0_linear_411_698" x1="152.754" y1="0.866333" x2="152.754" y2="184.866" gradientUnits="userSpaceOnUse">
<stop stop-color="#EBD9B2"/>
<stop offset="1" stop-color="#DDB762" stop-opacity="0"/>
</linearGradient>
</defs>
</svg>
