<svg width="20" height="20" viewBox="0 0 20 20" fill="none" xmlns="http://www.w3.org/2000/svg">
<g id="share (1) 1" clip-path="url(#clip0_2850_20654)">
<path id="Vector" d="M16.1101 12.2229C15.4796 12.223 14.8586 12.3766 14.3007 12.6703C13.7428 12.964 13.2647 13.389 12.9076 13.9087L7.49096 11.4629C7.87082 10.53 7.87381 9.4862 7.49929 8.55121L12.911 6.09371C13.4387 6.85933 14.2233 7.41044 15.1226 7.64705C16.0218 7.88366 16.9761 7.7901 17.8123 7.38335C18.6485 6.9766 19.3112 6.28359 19.6802 5.43006C20.0491 4.57654 20.0999 3.61902 19.8234 2.73124C19.5468 1.84346 18.9612 1.08422 18.1727 0.591259C17.3843 0.0982996 16.4452 -0.0957202 15.526 0.0443981C14.6068 0.184516 13.7682 0.64949 13.1624 1.35496C12.5566 2.06044 12.2238 2.95968 12.2243 3.88954C12.2243 4.11072 12.243 4.33151 12.2801 4.54954L6.53763 7.15621C5.98404 6.6399 5.2918 6.29638 4.54581 6.16776C3.79983 6.03914 3.03252 6.13102 2.338 6.43214C1.64347 6.73325 1.05191 7.23051 0.635876 7.86292C0.21984 8.49534 -0.00259261 9.23542 -0.00414224 9.99241C-0.00569186 10.7494 0.213709 11.4904 0.627153 12.1245C1.0406 12.7586 1.63011 13.2583 2.3234 13.5623C3.01669 13.8662 3.78361 13.9612 4.53012 13.8357C5.27662 13.7101 5.97026 13.3694 6.52596 12.8554L12.276 15.4529C12.1408 16.2388 12.2505 17.0472 12.5902 17.7686C12.9298 18.4901 13.483 19.0897 14.1749 19.4862C14.8667 19.8828 15.6637 20.0571 16.4579 19.9855C17.2521 19.914 18.0051 19.6 18.6149 19.0862C19.2247 18.5724 19.6618 17.8835 19.867 17.1129C20.0722 16.3424 20.0357 15.5274 19.7622 14.7783C19.4887 14.0293 18.9916 13.3824 18.3382 12.9253C17.6848 12.4682 16.9075 12.223 16.1101 12.2229Z" fill="url(#paint0_linear_2850_20654)"/>
</g>
<defs>
<linearGradient id="paint0_linear_2850_20654" x1="9.99757" y1="0" x2="9.99757" y2="20.0012" gradientUnits="userSpaceOnUse">
<stop stop-color="#DDB762"/>
<stop offset="1" stop-color="#FFE6AF"/>
</linearGradient>
<clipPath id="clip0_2850_20654">
<rect width="20" height="20" fill="white"/>
</clipPath>
</defs>
</svg>
