<svg width="20" height="20" viewBox="0 0 20 20" fill="none" xmlns="http://www.w3.org/2000/svg">
<path d="M2.87942 10.1445L5.25406 11.8788L4.35223 14.6716C4.20649 15.1048 4.20464 15.5735 4.34697 16.0078C4.48929 16.4421 4.76815 16.8187 5.142 17.0816C5.50943 17.353 5.9547 17.4983 6.41146 17.496C6.86822 17.4938 7.31202 17.344 7.67672 17.069L9.99867 15.36L12.3213 17.067C12.688 17.3367 13.1309 17.4833 13.5862 17.4855C14.0415 17.4877 14.4858 17.3455 14.8552 17.0793C15.2246 16.8131 15.5 16.4366 15.642 16.004C15.7839 15.5714 15.785 15.1049 15.6451 14.6716L14.7433 11.8788L17.1179 10.1445C17.4842 9.87668 17.7565 9.49996 17.8959 9.06815C18.0353 8.63634 18.0347 8.17152 17.8941 7.74009C17.7536 7.30865 17.4803 6.93267 17.1133 6.66584C16.7462 6.39902 16.3043 6.25499 15.8505 6.25435H12.9336L12.0485 3.4955C11.9093 3.06123 11.6357 2.68239 11.2673 2.41361C10.8989 2.14483 10.4547 2 9.99867 2C9.54264 2 9.09839 2.14483 8.72999 2.41361C8.36159 2.68239 8.08807 3.06123 7.94887 3.4955L7.06372 6.25435H4.14945C3.6957 6.25499 3.25375 6.39902 2.88674 6.66584C2.51973 6.93267 2.24643 7.30865 2.10588 7.74009C1.96532 8.17152 1.9647 8.63634 2.1041 9.06815C2.2435 9.49996 2.51579 9.87668 2.88209 10.1445H2.87942Z" fill="url(#paint0_linear_3201_18918)"/>
<defs>
<linearGradient id="paint0_linear_3201_18918" x1="10" y1="2" x2="10" y2="17.4961" gradientUnits="userSpaceOnUse">
<stop stop-color="#DDB762"/>
<stop offset="1" stop-color="#E8D29F"/>
</linearGradient>
</defs>
</svg>
