<svg width="24" height="24" viewBox="0 0 24 24" fill="none" xmlns="http://www.w3.org/2000/svg">
<path d="M18 18C21.3137 14.6863 21.3137 9.31371 18 6C14.6863 2.68629 9.31371 2.68629 6 6C2.68629 9.31371 2.68629 14.6863 6 18C9.31371 21.3137 14.6863 21.3137 18 18Z" fill="#FCC85D"/>
<path d="M20.4873 12.0004C20.4873 16.6864 16.6881 20.4856 12.002 20.4856C8.88438 20.4856 6.15815 18.805 4.68555 16.2977C5.94464 17.0395 7.41453 17.4665 8.98293 17.4665C13.6717 17.4665 17.4682 13.67 17.4682 8.98122C17.4682 7.41282 17.0412 5.94296 16.2995 4.68384C18.8067 6.15644 20.4873 8.8827 20.4873 12.0004Z" fill="#EF9638"/>
<path d="M20.488 12.0006C20.488 16.6866 16.6888 20.4858 12.0027 20.4858C9.40791 20.4858 7.08402 19.3198 5.5293 17.4831C7.00465 18.7258 8.91246 19.4758 10.9927 19.4758C15.6788 19.4758 19.478 15.6766 19.478 10.9905C19.478 8.91026 18.728 7.00245 17.4853 5.5271C19.322 7.08182 20.488 9.40568 20.488 12.0006Z" fill="#F78426"/>
<path d="M16.0744 16.0756C18.3253 13.8247 18.3253 10.1753 16.0744 7.92442C13.8235 5.67354 10.1741 5.67354 7.92324 7.92442C5.67236 10.1753 5.67236 13.8247 7.92324 16.0756C10.1741 18.3265 13.8235 18.3265 16.0744 16.0756Z" fill="#F1543F"/>
<path d="M17.7651 12.0001C17.7651 15.1835 15.1839 17.7647 12.0006 17.7647C9.82178 17.7647 7.9249 16.5548 6.94775 14.7729C7.77164 15.2273 8.71599 15.4846 9.72054 15.4846C12.9039 15.4846 15.4851 12.9034 15.4851 9.72005C15.4851 8.7155 15.2278 7.77119 14.7734 6.94727C16.5553 7.92445 17.7651 9.82132 17.7651 12.0001Z" fill="#CC3121"/>
<path d="M17.7659 11.9991C17.7659 15.1824 15.1848 17.7636 12.0015 17.7636C10.1922 17.7636 8.57727 16.9287 7.52344 15.6258C8.51159 16.4196 9.768 16.8959 11.1338 16.8959C14.3171 16.8959 16.8983 14.3147 16.8983 11.1314C16.8983 9.76549 16.422 8.50912 15.6283 7.521C16.9312 8.57483 17.7659 10.1898 17.7659 11.9991Z" fill="#AF1710"/>
<path d="M14.5422 12.0004L12.0023 15.4375L9.4624 12.0004L12.0023 8.56323L14.5422 12.0004Z" fill="#E9EEF4"/>
<path d="M14.5428 12.0004L12.0033 15.4375L10.6558 13.6144L12.9927 10.4503L11.8007 8.83617L12.0033 8.56323L14.5428 12.0004Z" fill="#C3CFDD"/>
<path d="M14.5411 12.0004L12.0016 15.4375L11.3193 14.5142L13.7565 11.2157L11.8993 8.70183L12.0016 8.56323L14.5411 12.0004Z" fill="#B3BEC9"/>
</svg>
