<svg width="57" height="41" viewBox="0 0 57 41" fill="none" xmlns="http://www.w3.org/2000/svg">
<path d="M25.8951 40.218H14.5991C10.792 40.218 7.53958 38.9001 4.84194 36.2644C2.1443 33.6287 0.794642 30.4073 0.792969 26.6001C0.792969 23.3368 1.77614 20.4292 3.74247 17.8771C5.7088 15.3251 8.28177 13.6934 11.4614 12.9822C12.5073 9.1332 14.5991 6.01635 17.7369 3.63165C20.8747 1.24695 24.4308 0.0545959 28.4053 0.0545959C33.3002 0.0545959 37.453 1.75987 40.8635 5.17041C44.274 8.58095 45.9785 12.7328 45.9768 17.6261C48.8636 17.9608 51.2591 19.2059 53.1635 21.3613C55.068 23.5167 56.0193 26.037 56.0177 28.9221C56.0177 32.0598 54.9199 34.7273 52.7243 36.9246C50.5287 39.1219 47.8611 40.2197 44.7217 40.218H30.9155V22.27L34.9319 26.1608L38.4462 22.6465L28.4053 12.6057L18.3645 22.6465L21.8788 26.1608L25.8951 22.27V40.218Z" fill="#B4BBC1"/>
</svg>
