<svg width="20" height="20" viewBox="0 0 20 20" fill="none" xmlns="http://www.w3.org/2000/svg">
<g id="user-add 1" clip-path="url(#clip0_2850_20649)">
<g id="Group">
<path id="Vector" d="M19.1666 9.16699H17.4999V7.50031C17.4999 7.04008 17.1268 6.66699 16.6666 6.66699C16.2063 6.66699 15.8333 7.04008 15.8333 7.50031V9.16699H14.1666C13.7063 9.16699 13.3333 9.54008 13.3333 10.0003C13.3333 10.4605 13.7063 10.8336 14.1666 10.8336H15.8333V12.5003C15.8333 12.9605 16.2063 13.3336 16.6666 13.3336C17.1268 13.3336 17.4999 12.9605 17.4999 12.5003V10.8336H19.1666C19.6268 10.8336 19.9999 10.4605 19.9999 10.0003C19.9999 9.54008 19.6268 9.16699 19.1666 9.16699Z" fill="url(#paint0_linear_2850_20649)"/>
<path id="Vector_2" d="M7.5 10C10.2614 10 12.5 7.76142 12.5 5C12.5 2.23858 10.2614 0 7.5 0C4.73858 0 2.5 2.23858 2.5 5C2.5 7.76142 4.73858 10 7.5 10Z" fill="url(#paint1_linear_2850_20649)"/>
<path id="Vector_3" d="M7.5 11.667C3.35977 11.6716 0.00460937 15.0268 0 19.167C0 19.6272 0.373086 20.0003 0.83332 20.0003H14.1666C14.6269 20.0003 15 19.6272 15 19.167C14.9954 15.0268 11.6402 11.6716 7.5 11.667Z" fill="url(#paint2_linear_2850_20649)"/>
</g>
</g>
<defs>
<linearGradient id="paint0_linear_2850_20649" x1="16.6666" y1="6.66699" x2="16.6666" y2="13.3336" gradientUnits="userSpaceOnUse">
<stop stop-color="#DDB762"/>
<stop offset="1" stop-color="#FFE6AF"/>
</linearGradient>
<linearGradient id="paint1_linear_2850_20649" x1="7.5" y1="0" x2="7.5" y2="10" gradientUnits="userSpaceOnUse">
<stop stop-color="#DDB762"/>
<stop offset="1" stop-color="#FFE6AF"/>
</linearGradient>
<linearGradient id="paint2_linear_2850_20649" x1="7.49998" y1="11.667" x2="7.49998" y2="20.0003" gradientUnits="userSpaceOnUse">
<stop stop-color="#DDB762"/>
<stop offset="1" stop-color="#FFE6AF"/>
</linearGradient>
<clipPath id="clip0_2850_20649">
<rect width="20" height="20" fill="white"/>
</clipPath>
</defs>
</svg>
