<svg width="20" height="20" viewBox="0 0 20 20" fill="none" xmlns="http://www.w3.org/2000/svg">
<path d="M7.5 3.33333C7.5 5.17417 6.0075 6.66667 4.16667 6.66667C2.32583 6.66667 0.833333 5.17417 0.833333 3.33333C0.833333 1.4925 2.32583 0 4.16667 0C6.0075 0 7.5 1.4925 7.5 3.33333ZM11.6667 0C9.82583 0 8.33333 1.4925 8.33333 3.33333C8.33333 5.17417 9.82583 6.66667 11.6667 6.66667C13.5075 6.66667 15 5.17417 15 3.33333C15 1.4925 13.5075 0 11.6667 0ZM15.8333 11.6667V16.6667C15.8333 18.5075 14.3408 20 12.5 20H3.33333C1.4925 20 0 18.5075 0 16.6667V11.6667C0 9.82583 1.4925 8.33333 3.33333 8.33333H12.5C14.3408 8.33333 15.8333 9.82583 15.8333 11.6667ZM18.1375 9.905L17.5 10.5425V17.0008L18.1375 17.6383C18.825 18.3258 20 17.8392 20 16.8667V10.6758C20 9.70417 18.825 9.21833 18.1375 9.905Z" fill="url(#paint0_linear_3011_22203)"/>
<defs>
<linearGradient id="paint0_linear_3011_22203" x1="10" y1="0" x2="10" y2="20" gradientUnits="userSpaceOnUse">
<stop stop-color="#DDB762"/>
<stop offset="1" stop-color="#E8D29F"/>
</linearGradient>
</defs>
</svg>
