<svg width="20" height="20" viewBox="0 0 20 20" fill="none" xmlns="http://www.w3.org/2000/svg">
<path d="M18.8145 7.19591V5.71136C18.8145 3.66269 17.1519 2 15.1032 2H4.71136C2.66269 2 1 3.66269 1 5.71136V7.19591H18.8145ZM15.4743 3.48455C16.0904 3.48455 16.5877 3.98187 16.5877 4.59795C16.5877 5.21404 16.0904 5.71136 15.4743 5.71136C14.8582 5.71136 14.3609 5.21404 14.3609 4.59795C14.3609 3.98187 14.8582 3.48455 15.4743 3.48455ZM12.5052 3.48455C13.1213 3.48455 13.6186 3.98187 13.6186 4.59795C13.6186 5.21404 13.1213 5.71136 12.5052 5.71136C11.8891 5.71136 11.3918 5.21404 11.3918 4.59795C11.3918 3.98187 11.8891 3.48455 12.5052 3.48455ZM9.53614 3.48455C10.1522 3.48455 10.6495 3.98187 10.6495 4.59795C10.6495 5.21404 10.1522 5.71136 9.53614 5.71136C8.92005 5.71136 8.42273 5.21404 8.42273 4.59795C8.42273 3.98187 8.92005 3.48455 9.53614 3.48455ZM18.8145 8.68045V14.6186C18.8145 16.6673 17.1519 18.33 15.1032 18.33H4.71136C2.66269 18.33 1 16.6673 1 14.6186V8.68045H18.8145Z" fill="url(#paint0_linear_3201_18895)"/>
<defs>
<linearGradient id="paint0_linear_3201_18895" x1="9.90727" y1="2" x2="9.90727" y2="18.33" gradientUnits="userSpaceOnUse">
<stop stop-color="#DDB762"/>
<stop offset="1" stop-color="#E8D29F"/>
</linearGradient>
</defs>
</svg>
